<svg width="37" height="60" viewBox="0 0 37 60" fill="none" xmlns="http://www.w3.org/2000/svg">
<path d="M0 59.5028H2.16501C10.6264 59.1556 19.2383 57.6651 26.7917 53.6932C30.2194 51.8328 33.5364 49.3712 35.3836 45.8623C36.7456 43.3075 36.8989 40.1458 35.6986 37.5035C34.26 34.2627 31.4736 31.8208 28.4913 30.0028L28.4885 30C24.6295 32.3544 20.3307 33.9098 15.9468 34.9769C10.7314 36.2275 5.36004 36.7977 0 36.7921V59.5028Z" fill="white"/>
<path d="M28.4885 29.4972L28.4913 29.5C31.4196 27.7187 34.1436 25.3361 35.6163 22.1913C36.8279 19.6366 36.8024 16.5595 35.5681 14.0189C33.7833 10.3151 30.3414 7.74057 26.8002 5.81531C19.2524 1.8434 10.6463 0.352867 2.19339 -3.8147e-06H0V22.7051C5.29761 22.7108 10.6009 23.2584 15.7566 24.4808C20.2087 25.545 24.5699 27.1202 28.4885 29.4972Z" fill="white"/>
</svg>
