<svg width="22" height="22" viewBox="0 0 22 22" fill="none" xmlns="http://www.w3.org/2000/svg">
<path d="M10.3167 4.91531C10.3416 4.93113 10.3666 4.94695 10.3923 4.96325C10.451 5.00145 10.5082 5.04189 10.5651 5.0827C10.6998 5.14631 10.7616 5.13205 10.9036 5.0879C11.0166 5.02917 11.1223 4.96064 11.229 4.8912C12.8422 3.87869 14.6503 3.36159 16.5122 3.0301C16.5483 3.02338 16.5845 3.01666 16.6218 3.00973C17.4731 2.85284 18.3269 2.76876 19.0732 3.27629C19.5906 3.6649 19.8776 4.20332 20.0037 4.83218C20.0258 4.99024 20.0285 5.14554 20.0285 5.30475C20.0286 5.33818 20.0287 5.3716 20.0289 5.40604C20.0293 5.51773 20.0295 5.62942 20.0297 5.74111C20.0299 5.82132 20.0302 5.90153 20.0305 5.98173C20.0313 6.24479 20.0317 6.50784 20.0321 6.77089C20.0323 6.86154 20.0325 6.95219 20.0326 7.04284C20.0334 7.46858 20.034 7.89433 20.0343 8.32008C20.0347 8.81132 20.0358 9.30256 20.0374 9.7938C20.0386 10.1737 20.0392 10.5536 20.0393 10.9336C20.0394 11.1604 20.0398 11.3872 20.0408 11.6141C20.0418 11.8274 20.0419 12.0407 20.0415 12.2541C20.0415 12.3323 20.0417 12.4105 20.0423 12.4887C20.043 12.5957 20.0427 12.7026 20.0422 12.8096C20.0429 12.8557 20.0429 12.8557 20.0435 12.9028C20.0409 13.1248 19.9835 13.2945 19.8611 13.4805C19.6642 13.6678 19.4993 13.6967 19.2359 13.6936C19.036 13.6711 18.9275 13.5603 18.7994 13.4149C18.6808 13.2479 18.6852 13.1195 18.6854 12.9202C18.6853 12.8869 18.6852 12.8537 18.6851 12.8194C18.6847 12.7073 18.6847 12.5952 18.6846 12.4831C18.6844 12.403 18.6842 12.3229 18.684 12.2427C18.6836 12.0698 18.6832 11.8969 18.683 11.7241C18.6825 11.4506 18.6817 11.1771 18.6808 10.9036C18.6783 10.1257 18.6761 9.34787 18.6748 8.57002C18.6741 8.14069 18.6729 7.71137 18.6713 7.28204C18.6704 7.05482 18.6698 6.82761 18.6697 6.60039C18.6696 6.38648 18.669 6.17258 18.6679 5.95867C18.6676 5.88029 18.6675 5.8019 18.6677 5.72352C18.6678 5.61622 18.6672 5.50894 18.6665 5.40163C18.6667 5.37088 18.6669 5.34012 18.6671 5.30843C18.6638 5.03362 18.6055 4.73779 18.4161 4.52806C18.3976 4.50652 18.379 4.48499 18.3599 4.46281C18.0853 4.23194 17.7766 4.2566 17.4402 4.28092C17.2107 4.30367 16.9838 4.34199 16.7568 4.38179C16.71 4.38981 16.71 4.38981 16.6623 4.39799C15.0341 4.67861 13.3568 5.12977 11.9613 6.04217C11.872 6.09662 11.872 6.09662 11.7613 6.14983C11.5242 6.2716 11.5242 6.2716 11.3873 6.48948C11.3719 6.62855 11.3708 6.76169 11.3744 6.90158C11.3739 6.95438 11.3735 7.00717 11.3731 7.06157C11.3719 7.20773 11.3735 7.35375 11.3756 7.49989C11.3774 7.65763 11.3766 7.81536 11.376 7.97311C11.3755 8.24633 11.3766 8.51951 11.3787 8.79272C11.3818 9.188 11.3823 9.58324 11.3821 9.97853C11.3818 10.6202 11.3834 11.2619 11.3863 11.9035C11.3891 12.5262 11.3915 13.1489 11.3929 13.7715C11.393 13.8291 11.393 13.8291 11.3931 13.8878C11.3941 14.3065 11.3948 14.7252 11.3952 15.1439C11.3952 15.1807 11.3953 15.2175 11.3953 15.2554C11.3955 15.4025 11.3956 15.5496 11.3957 15.6967C11.3961 16.1274 11.3971 16.5581 11.3994 16.9888C11.4008 17.2589 11.4016 17.5289 11.4021 17.799C11.4024 17.9549 11.4029 18.1108 11.4042 18.2666C11.4056 18.4356 11.4058 18.6044 11.4058 18.7734C11.4064 18.8227 11.407 18.872 11.4077 18.9229C11.4066 19.1785 11.4024 19.3406 11.2264 19.5328C11.0487 19.6816 10.9245 19.7163 10.6943 19.7144C10.6455 19.7148 10.5967 19.7152 10.5463 19.7157C10.1705 19.685 9.85372 19.4944 9.54691 19.2907C7.90288 18.2417 5.9527 17.7554 4.0366 17.5083C3.24664 17.4037 2.5481 17.1421 2.0193 16.5218C1.47016 15.7948 1.44389 15.058 1.44632 14.1829C1.44615 14.0832 1.44594 13.9834 1.44568 13.8837C1.44518 13.6421 1.44525 13.4005 1.4456 13.1589C1.44588 12.9623 1.44591 12.7658 1.44578 12.5692C1.44576 12.5411 1.44575 12.513 1.44573 12.4841C1.44569 12.427 1.44565 12.3699 1.44561 12.3128C1.44526 11.7789 1.44566 11.2449 1.44631 10.711C1.44685 10.254 1.44676 9.79693 1.4462 9.33989C1.44555 8.80773 1.4453 8.27556 1.44567 7.7434C1.44571 7.68653 1.44575 7.62967 1.44578 7.5728C1.4458 7.54483 1.44582 7.51686 1.44584 7.48804C1.44594 7.29198 1.44577 7.09591 1.44548 6.89985C1.44511 6.63543 1.44538 6.37101 1.44607 6.10659C1.44623 6.00988 1.44619 5.91317 1.44592 5.81646C1.44373 4.94725 1.50879 4.17639 2.13468 3.51687C2.32132 3.33103 2.51866 3.18918 2.75315 3.07045C2.80409 3.04431 2.80409 3.04431 2.85607 3.01765C4.87677 2.17252 8.64902 3.85249 10.3167 4.91531ZM3.04615 4.51765C2.80723 4.81074 2.7815 5.09251 2.78298 5.45869C2.78282 5.49951 2.78267 5.54033 2.78251 5.58238C2.7821 5.71885 2.78225 5.85531 2.78242 5.99178C2.78224 6.08975 2.78203 6.18773 2.78179 6.2857C2.78131 6.52403 2.7812 6.76235 2.7813 7.00068C2.78137 7.19449 2.7813 7.3883 2.78113 7.58211C2.7811 7.60973 2.78108 7.63734 2.78105 7.6658C2.78101 7.72191 2.78096 7.77802 2.78091 7.83413C2.78047 8.36003 2.78056 8.88593 2.7808 9.41183C2.78101 9.89241 2.78056 10.373 2.77979 10.8536C2.77901 11.3476 2.77867 11.8415 2.77883 12.3355C2.7789 12.6127 2.7788 12.8898 2.77823 13.1669C2.7777 13.4276 2.7778 13.6882 2.77833 13.9489C2.77842 14.0445 2.77831 14.14 2.77798 14.2355C2.77756 14.3662 2.77789 14.4969 2.7784 14.6276C2.7781 14.6652 2.7778 14.7027 2.7775 14.7414C2.78099 15.1675 2.89113 15.5172 3.19699 15.8207C3.40967 16.0005 3.62093 16.0749 3.89348 16.1229C3.92153 16.1279 3.94958 16.1329 3.97847 16.1381C4.24048 16.1843 4.50321 16.2263 4.76594 16.2682C6.57852 16.5582 8.32921 17.0467 9.93369 17.958C10.0126 18.0056 10.0126 18.0056 10.0967 17.9996C10.1124 16.5268 10.1245 15.054 10.1317 13.5811C10.1325 13.4071 10.1334 13.2331 10.1343 13.0591C10.1345 13.0245 10.1347 12.9899 10.1349 12.9542C10.1379 12.3937 10.1433 11.8334 10.1496 11.2729C10.156 10.6977 10.1598 10.1224 10.1612 9.54713C10.1621 9.19225 10.1651 8.83752 10.1707 8.48269C10.1743 8.23918 10.1754 7.99574 10.1745 7.75221C10.1741 7.61175 10.1747 7.47153 10.1784 7.33112C10.2142 6.78456 10.2142 6.78456 10.0292 6.29123C9.86872 6.14607 9.69094 6.05214 9.49202 5.96977C9.3831 5.92349 9.28507 5.86303 9.18503 5.80015C7.78091 5.01059 6.21219 4.58801 4.6319 4.32379C4.55707 4.31098 4.55707 4.31098 4.48073 4.29791C3.70024 4.16353 3.70024 4.16353 3.04615 4.51765Z" fill="#6C7072"/>
<path d="M5.68888 7.55168C5.73511 7.56119 5.73511 7.56119 5.78228 7.57089C6.34053 7.68583 6.88966 7.82325 7.43397 7.993C7.49966 8.0134 7.49966 8.0134 7.56668 8.03421C7.70006 8.07607 7.83313 8.11876 7.96608 8.16196C8.00637 8.17491 8.04666 8.18785 8.08818 8.20119C8.34873 8.28827 8.5483 8.37599 8.74027 8.57806C8.83703 8.78646 8.83625 8.97752 8.80584 9.20347C8.71393 9.40143 8.59532 9.50676 8.40235 9.60696C8.10452 9.68596 7.87905 9.59693 7.59452 9.49634C7.45608 9.44764 7.31676 9.40163 7.17738 9.35572C7.1486 9.34623 7.11983 9.33675 7.09018 9.32697C6.78769 9.22846 6.48173 9.14648 6.17307 9.06981C6.14645 9.06315 6.11983 9.05648 6.09241 9.04962C5.80506 8.97823 5.51762 8.91543 5.2255 8.86617C5.17605 8.85782 5.12659 8.84946 5.07565 8.84085C4.98333 8.82589 4.89083 8.81198 4.79817 8.79938C4.50335 8.75305 4.32314 8.66347 4.12536 8.43684C4.03017 8.27819 4.02889 8.13553 4.04466 7.95265C4.11821 7.71563 4.21277 7.60955 4.4078 7.46846C4.7635 7.29061 5.3147 7.47287 5.68888 7.55168Z" fill="#6C7072"/>
<path d="M16.196 14.9784C16.3527 15.0829 16.4663 15.2063 16.5516 15.3768C16.5562 15.4987 16.5583 15.6196 16.5587 15.7414C16.5591 15.7981 16.5591 15.7981 16.5595 15.856C16.5603 15.9814 16.5608 16.1069 16.5612 16.2324C16.5614 16.2752 16.5615 16.318 16.5617 16.3621C16.5625 16.5887 16.5631 16.8152 16.5635 17.0418C16.5639 17.2759 16.5653 17.51 16.5669 17.7441C16.568 17.924 16.5683 18.1039 16.5685 18.2839C16.5687 18.3702 16.5691 18.4565 16.5699 18.5427C16.5709 18.6636 16.5708 18.7844 16.5705 18.9052C16.5711 18.9408 16.5716 18.9764 16.5721 19.0131C16.5702 19.2334 16.5362 19.3577 16.3902 19.5328C16.2361 19.6792 16.1125 19.7067 15.906 19.7144C15.6995 19.7067 15.5759 19.6792 15.4218 19.5328C15.2483 19.324 15.2371 19.1674 15.2395 18.9078C15.2392 18.87 15.239 18.8321 15.2387 18.7932C15.238 18.6686 15.2384 18.544 15.239 18.4194C15.2389 18.3326 15.2387 18.2458 15.2385 18.1589C15.2383 17.9771 15.2386 17.7954 15.2394 17.6136C15.2403 17.3807 15.2398 17.1479 15.2388 16.9151C15.2382 16.7359 15.2384 16.5566 15.2388 16.3774C15.2389 16.2916 15.2388 16.2057 15.2384 16.1199C15.238 15.9998 15.2386 15.8798 15.2395 15.7598C15.2392 15.7244 15.2389 15.6891 15.2385 15.6527C15.2416 15.4335 15.2766 15.3089 15.4218 15.1348C15.6565 14.9229 15.8976 14.8731 16.196 14.9784Z" fill="#6C7072"/>
<path d="M5.46612 10.9523C5.54685 10.9685 5.62768 10.9841 5.70855 10.9996C6.80892 11.2139 6.80892 11.2139 7.03045 11.5033C7.11611 11.6783 7.12841 11.8345 7.11115 12.0278C7.03946 12.2165 6.9398 12.3392 6.78836 12.4717C6.37275 12.6102 5.90331 12.4667 5.48963 12.3758C5.42882 12.3629 5.36801 12.3499 5.30719 12.3371C5.19188 12.3126 5.07666 12.2877 4.96151 12.2625C4.87201 12.2429 4.78244 12.2235 4.69276 12.2047C4.46899 12.1574 4.29262 12.1113 4.15543 11.9151C4.05572 11.7355 4.01499 11.5897 4.04463 11.3822C4.11956 11.1695 4.21443 11.022 4.40777 10.8981C4.75036 10.7839 5.12212 10.8829 5.46612 10.9523Z" fill="#6C7072"/>
<path d="M16.3279 12.2144C16.5562 12.3499 16.6917 12.5429 16.7739 12.7918C16.8368 13.0477 16.8001 13.2429 16.6871 13.4758C16.5699 13.6607 16.3928 13.8037 16.1892 13.8839C15.8913 13.9187 15.6128 13.9294 15.3666 13.7422C15.1441 13.537 15.0346 13.3532 15.0039 13.0466C15.0117 12.8082 15.0897 12.5762 15.2469 12.3951C15.5458 12.1275 15.9528 12.0433 16.3279 12.2144Z" fill="#6C7072"/>
</svg>
