<svg width="32" height="32" viewBox="0 0 32 32" fill="none" xmlns="http://www.w3.org/2000/svg">
<path d="M24.6427 12.7511C25.6312 13.3209 26.5941 13.8754 27.5566 14.4305C28.2668 14.8402 28.98 15.2446 29.6856 15.662C30.9736 16.4239 31.7208 17.5584 31.9683 19.0271C31.9953 19.1878 31.9962 19.3541 31.9964 19.5178C31.9984 21.16 32.0039 22.8023 31.9954 24.4444C31.9897 25.5584 31.5693 26.5174 30.8528 27.3563C30.4688 27.8059 29.9942 28.1376 29.4845 28.4292C28.2351 29.1436 26.9885 29.863 25.7443 30.5867C24.9258 31.0629 24.0446 31.281 23.1028 31.2307C22.4127 31.1938 21.7526 31.0159 21.1507 30.6715C19.5455 29.7533 17.9444 28.8282 16.3479 27.8951C16.1138 27.7582 15.9399 27.7309 15.6851 27.881C14.1234 28.8011 12.5466 29.6956 10.9774 30.6029C10.1656 31.0722 9.29084 31.2798 8.35921 31.231C7.55241 31.1888 6.81482 30.9192 6.11961 30.512C4.85412 29.7708 3.57132 29.0586 2.31546 28.3016C0.831191 27.4068 0.0312926 26.084 0.00972112 24.3365C-0.00966038 22.7674 0.00600208 21.1981 0.00556408 19.6288C0.00523558 18.5064 0.392861 17.5281 1.10505 16.6712C1.47669 16.2242 1.9332 15.8833 2.43602 15.5947C4.00812 14.6924 5.57386 13.7788 7.14803 12.8799C7.31797 12.7829 7.3644 12.6748 7.36385 12.4923C7.35827 10.6311 7.33549 8.7695 7.3679 6.90888C7.39714 5.23265 8.12937 3.90146 9.5579 3.01254C10.702 2.30057 11.8873 1.65507 13.0556 0.982302C13.3634 0.805131 13.6713 0.627193 13.9872 0.465352C14.4869 0.209231 15.021 0.0782684 15.5813 0.0225328C16.6185 -0.0808352 17.563 0.176382 18.4531 0.692566C19.6982 1.41461 20.941 2.14048 22.1943 2.84774C23.2216 3.42754 23.9443 4.25909 24.3631 5.35803C24.5463 5.83885 24.6389 6.34035 24.6405 6.85292C24.6467 8.7141 24.643 10.5753 24.643 12.4364C24.6427 12.5359 24.6427 12.6355 24.6427 12.7511ZM15.9872 24.781C16.024 24.7709 16.0336 24.7702 16.0412 24.7658C17.619 23.8565 19.208 22.9661 20.7696 22.0298C21.6312 21.5133 22.0871 20.7178 22.0878 19.6918C22.0889 17.95 22.0855 16.2081 22.0919 14.4662C22.0926 14.2895 22.0407 14.1915 21.8834 14.1016C20.3736 13.2387 18.8759 12.3542 17.3603 11.5015C16.4482 10.9884 15.5093 11.0093 14.5999 11.5264C13.1119 12.3725 11.634 13.2364 10.147 14.0844C9.97532 14.1823 9.90907 14.2878 9.91006 14.4885C9.91849 16.2029 9.9163 17.9175 9.91444 19.6319C9.91324 20.7349 10.417 21.5447 11.3477 22.104C11.7612 22.3525 12.1833 22.5869 12.6013 22.828C13.7291 23.4784 14.8566 24.129 15.9872 24.781ZM7.36035 15.6913C7.23848 15.756 7.16588 15.7917 7.09591 15.8321C5.96018 16.4885 4.82937 17.1536 3.68772 17.7994C2.92735 18.2295 2.53567 18.8744 2.52779 19.7355C2.51388 21.2408 2.51585 22.7463 2.52713 24.2516C2.53337 25.0833 2.91027 25.7193 3.63166 26.1383C4.95507 26.9069 6.27718 27.6777 7.60903 28.4315C8.26548 28.803 8.95916 28.8185 9.61791 28.4507C10.8426 27.767 12.0503 27.0527 13.2644 26.3501C13.3135 26.3216 13.3559 26.2811 13.4124 26.2378C13.3385 26.1878 13.288 26.1487 13.2332 26.1172C12.1989 25.5218 11.1661 24.9241 10.1291 24.3338C9.29554 23.8595 8.62135 23.2228 8.12553 22.4013C7.60464 21.5381 7.36101 20.5978 7.36035 19.5924C7.35958 18.4063 7.36013 17.2203 7.36013 16.0342C7.36035 15.935 7.36035 15.8359 7.36035 15.6913ZM18.5747 26.2386C18.6708 26.3029 18.7417 26.3562 18.8179 26.4002C19.9775 27.0686 21.1374 27.7363 22.2981 28.4029C23.0047 28.8087 23.7239 28.8141 24.4267 28.415C25.7647 27.6552 27.0949 26.8814 28.4228 26.104C29.1161 25.6981 29.4688 25.0727 29.4756 24.2757C29.4886 22.7529 29.4909 21.2297 29.4748 19.707C29.466 18.8806 29.0948 18.2462 28.3648 17.8287C27.3372 17.2411 26.3155 16.6433 25.2905 16.0513C25.0887 15.9346 24.8834 15.824 24.643 15.6902C24.643 15.8332 24.643 15.9312 24.643 16.0294C24.643 17.2514 24.6459 18.4733 24.6405 19.6953C24.6395 19.9399 24.6258 20.1875 24.5859 20.4284C24.3118 22.0866 23.4713 23.3702 22.0244 24.2393C21.3922 24.619 20.7487 24.9798 20.1105 25.3492C19.6069 25.6405 19.1038 25.9321 18.5747 26.2386ZM9.91499 11.2752C10.0243 11.2203 10.0965 11.1882 10.1648 11.149C11.223 10.542 12.2739 9.92199 13.3399 9.32905C15.105 8.34727 16.89 8.35746 18.6553 9.31689C19.7348 9.9036 20.7859 10.5426 21.8504 11.157C21.9172 11.1956 21.9897 11.2245 22.0745 11.2651C22.0807 11.1877 22.0873 11.1427 22.0873 11.0976C22.0879 9.65689 22.0886 8.2162 22.0861 6.7754C22.0859 6.67652 22.0691 6.576 22.0473 6.47909C21.9066 5.85582 21.5417 5.39975 20.9935 5.08395C19.6919 4.3342 18.3914 3.58249 17.087 2.83745C16.3618 2.42321 15.6303 2.43241 14.905 2.84369C14.5169 3.06368 14.1317 3.28859 13.7455 3.51175C12.8074 4.05367 11.8629 4.58496 10.9336 5.14144C10.2682 5.5398 9.91608 6.13931 9.91532 6.92673C9.91411 8.26712 9.91499 9.60751 9.91499 10.948C9.91499 11.0447 9.91499 11.1415 9.91499 11.2752Z" fill="#221AFB"/>
</svg>
