<svg width="22" height="22" viewBox="0 0 22 22" fill="none" xmlns="http://www.w3.org/2000/svg">
<g clip-path="url(#clip0_950_14280)">
<path d="M19.828 12.295L18.1925 6.41071C17.7131 4.68686 16.6713 3.17271 15.2326 2.10895C13.7939 1.04518 12.0409 0.49285 10.2522 0.539745C8.46356 0.58664 6.74191 1.23007 5.36092 2.36776C3.97994 3.50546 3.01887 5.07212 2.63048 6.81872L1.36427 12.5128C1.22441 13.1419 1.22764 13.7945 1.37374 14.4223C1.51983 15.05 1.80505 15.6369 2.20834 16.1397C2.61163 16.6425 3.12269 17.0483 3.70379 17.3271C4.2849 17.6059 4.9212 17.7506 5.56573 17.7506H6.52464C6.7222 18.7235 7.25004 19.5982 8.01873 20.2265C8.78742 20.8548 9.74967 21.198 10.7425 21.198C11.7352 21.198 12.6975 20.8548 13.4662 20.2265C14.2349 19.5982 14.7627 18.7235 14.9603 17.7506H15.6816C16.3451 17.7507 16.9996 17.5973 17.594 17.3025C18.1885 17.0077 18.7067 16.5795 19.1082 16.0513C19.5097 15.5231 19.7837 14.9092 19.9087 14.2576C20.0337 13.606 20.0064 12.9343 19.8288 12.295H19.828ZM10.7425 19.4722C10.2103 19.47 9.69176 19.3034 9.25787 18.9952C8.82398 18.6871 8.4959 18.2524 8.3185 17.7506H13.1664C12.989 18.2524 12.6609 18.6871 12.227 18.9952C11.7931 19.3034 11.2746 19.47 10.7425 19.4722V19.4722ZM17.7371 15.009C17.4973 15.3272 17.1865 15.5851 16.8295 15.7622C16.4726 15.9392 16.0792 16.0306 15.6807 16.0291H5.56573C5.17906 16.029 4.79733 15.9421 4.44874 15.7748C4.10014 15.6074 3.79357 15.364 3.55165 15.0623C3.30973 14.7607 3.13865 14.4085 3.05102 14.0319C2.9634 13.6553 2.96147 13.2638 3.04537 12.8863L4.31072 7.19144C4.61574 5.81954 5.3706 4.58897 6.45531 3.69534C7.54002 2.80172 8.89232 2.29634 10.2972 2.25954C11.7022 2.22273 13.0791 2.65662 14.2091 3.49222C15.3391 4.32782 16.1573 5.51718 16.5338 6.87123L18.1693 12.7555C18.2773 13.1389 18.2945 13.5422 18.2195 13.9333C18.1445 14.3245 17.9793 14.6928 17.7371 15.009V15.009Z" fill="#6C7072"/>
</g>
<defs>
<clipPath id="clip0_950_14280">
<rect width="20.6587" height="20.6587" fill="white" transform="translate(0.414062 0.535156)"/>
</clipPath>
</defs>
</svg>
