<svg width="32" height="32" viewBox="0 0 32 32" fill="none" xmlns="http://www.w3.org/2000/svg">
<path d="M2.66675 26.6666H5.33341M5.33341 26.6666H20.0001M5.33341 26.6666V19.1575C5.33341 18.457 5.33341 18.1066 5.41741 17.7799C5.49186 17.4903 5.61439 17.2157 5.78003 16.9668C5.96682 16.6862 6.22826 16.4511 6.74878 15.9835L9.81755 13.2265C10.8239 12.3225 11.3274 11.8701 11.8967 11.6985C12.3987 11.5472 12.9344 11.5472 13.4363 11.6985C14.0061 11.8702 14.5103 12.3228 15.5183 13.2284L18.585 15.9835C19.1061 16.4517 19.3661 16.686 19.553 16.9668C19.7186 17.2157 19.841 17.4903 19.9154 17.7799C19.9994 18.1066 20.0001 18.457 20.0001 19.1575V26.6666M20.0001 26.6666H26.6667M26.6667 26.6666H29.3334M26.6667 26.6666V9.5958C26.6667 8.10524 26.6667 7.35885 26.3764 6.78898C26.1207 6.28722 25.7117 5.87956 25.2099 5.6239C24.6395 5.33325 23.8938 5.33325 22.4003 5.33325H13.6003C12.1069 5.33325 11.3596 5.33325 10.7891 5.6239C10.2874 5.87956 9.87973 6.28722 9.62406 6.78898C9.33341 7.35941 9.33341 8.10671 9.33341 9.60018V13.3335" stroke="white" stroke-width="2" stroke-linecap="round" stroke-linejoin="round"/>
</svg>
