<svg width="25" height="25" viewBox="0 0 25 25" fill="none" xmlns="http://www.w3.org/2000/svg">
<g clip-path="url(#clip0_710_7919)">
<path fill-rule="evenodd" clip-rule="evenodd" d="M7.61193 4.15255C7.90859 2.69699 9.20415 1.66699 10.6875 1.66699H14.3186C15.8019 1.66699 17.0964 2.69699 17.3941 4.15255C17.427 4.31283 17.5128 4.4574 17.6377 4.56301C17.7627 4.66862 17.9195 4.72912 18.083 4.73477H18.1197C19.6786 4.80366 20.8764 4.99477 21.8764 5.65144C22.5064 6.06477 23.0486 6.59588 23.4708 7.21699C23.9964 7.9881 24.2275 8.87477 24.3386 9.94588C24.4475 10.9937 24.4475 12.3059 24.4475 13.9681V14.0625C24.4475 15.7248 24.4475 17.0381 24.3386 18.0848C24.2275 19.1559 23.9964 20.0425 23.4708 20.8148C23.0463 21.4354 22.5047 21.9672 21.8764 22.3803C21.0953 22.8925 20.1986 23.1192 19.1119 23.227C18.0475 23.3337 16.713 23.3337 15.0175 23.3337H9.98859C8.29304 23.3337 6.95859 23.3337 5.89415 23.227C4.80748 23.1192 3.91082 22.8937 3.1297 22.3803C2.50131 21.9669 1.95969 21.4347 1.53526 20.8137C1.0097 20.0425 0.778594 19.1559 0.667483 18.0848C0.558594 17.0381 0.558594 15.7248 0.558594 14.0625V13.9681C0.558594 12.3059 0.558594 10.9937 0.667483 9.94588C0.778594 8.87477 1.0097 7.9881 1.53526 7.21699C1.95969 6.59596 2.50131 6.06378 3.1297 5.65033C4.1297 4.99477 5.32748 4.80366 6.88637 4.73588L6.90526 4.73477H6.92304C7.08655 4.72912 7.2434 4.66862 7.36836 4.56301C7.49331 4.4574 7.5791 4.31283 7.61193 4.15255ZM10.6875 3.33366C9.97637 3.33366 9.3797 3.82588 9.24526 4.48477C9.02859 5.55144 8.08193 6.39144 6.94304 6.40144C5.44526 6.4681 4.64304 6.65144 4.04304 7.04477C3.59798 7.33802 3.21419 7.71502 2.91304 8.15477C2.60637 8.60477 2.42193 9.18144 2.32415 10.1181C2.22637 11.0692 2.22526 12.2959 2.22526 14.0159C2.22526 15.7359 2.22526 16.9614 2.32526 17.9125C2.42193 18.8492 2.60637 19.4259 2.91415 19.877C3.21193 20.3148 3.59526 20.6925 4.04415 20.987C4.50748 21.2903 5.10082 21.4737 6.0597 21.5692C7.03082 21.6659 8.28193 21.667 10.0341 21.667H14.9719C16.723 21.667 17.9741 21.667 18.9464 21.5692C19.9053 21.4737 20.4986 21.2914 20.9619 20.987C21.4108 20.6925 21.7953 20.3148 22.093 19.8759C22.3997 19.4259 22.5841 18.8492 22.6819 17.9125C22.7797 16.9614 22.7808 15.7348 22.7808 14.0159C22.7808 12.297 22.7808 11.0692 22.6808 10.1181C22.5841 9.18144 22.3997 8.60477 22.0919 8.15477C21.7909 7.71462 21.4071 7.33724 20.9619 7.04366C20.3641 6.65144 19.5619 6.4681 18.0619 6.40144C16.9241 6.39033 15.9775 5.55255 15.7608 4.48477C15.6897 4.15618 15.5074 3.8622 15.2446 3.65248C14.9819 3.44276 14.6548 3.33015 14.3186 3.33366H10.6875ZM12.503 11.1114C11.84 11.1114 11.2041 11.3748 10.7353 11.8437C10.2664 12.3125 10.003 12.9484 10.003 13.6114C10.003 14.2745 10.2664 14.9104 10.7353 15.3792C11.2041 15.848 11.84 16.1114 12.503 16.1114C13.1661 16.1114 13.802 15.848 14.2708 15.3792C14.7396 14.9104 15.003 14.2745 15.003 13.6114C15.003 12.9484 14.7396 12.3125 14.2708 11.8437C13.802 11.3748 13.1661 11.1114 12.503 11.1114ZM8.33637 13.6114C8.33637 12.5064 8.77536 11.4466 9.55676 10.6652C10.3382 9.88376 11.398 9.44477 12.503 9.44477C13.6081 9.44477 14.6679 9.88376 15.4493 10.6652C16.2307 11.4466 16.6697 12.5064 16.6697 13.6114C16.6697 14.7165 16.2307 15.7763 15.4493 16.5577C14.6679 17.3391 13.6081 17.7781 12.503 17.7781C11.398 17.7781 10.3382 17.3391 9.55676 16.5577C8.77536 15.7763 8.33637 14.7165 8.33637 13.6114ZM18.3364 10.2781C18.3364 10.0571 18.4242 9.84513 18.5804 9.68885C18.7367 9.53257 18.9487 9.44477 19.1697 9.44477H20.2808C20.5018 9.44477 20.7138 9.53257 20.8701 9.68885C21.0264 9.84513 21.1141 10.0571 21.1141 10.2781C21.1141 10.4991 21.0264 10.7111 20.8701 10.8674C20.7138 11.0236 20.5018 11.1114 20.2808 11.1114H19.1697C18.9487 11.1114 18.7367 11.0236 18.5804 10.8674C18.4242 10.7111 18.3364 10.4991 18.3364 10.2781Z" fill="#8B8B8B" fill-opacity="0.5"/>
</g>
<defs>
<clipPath id="clip0_710_7919">
<rect width="25" height="25" fill="white"/>
</clipPath>
</defs>
</svg>
