<svg width="18" height="18" viewBox="0 0 18 18" fill="none" xmlns="http://www.w3.org/2000/svg">
<path d="M6.75 8.25V15M6.75 8.25H3.44971C3.02967 8.25 2.81986 8.25 2.65942 8.33175C2.5183 8.40365 2.40365 8.5183 2.33175 8.65942C2.25 8.81986 2.25 9.03003 2.25 9.45007V15H6.75M6.75 8.25V4.20007C6.75 3.78003 6.75 3.56986 6.83175 3.40942C6.90365 3.2683 7.0183 3.15365 7.15942 3.08175C7.31986 3 7.52967 3 7.94971 3H10.0497C10.4697 3 10.6802 3 10.8406 3.08175C10.9818 3.15365 11.0961 3.2683 11.168 3.40942C11.2497 3.56986 11.25 3.78003 11.25 4.20007V6M6.75 15H11.25M11.25 15L15.75 15.0001V7.20007C15.75 6.78003 15.7497 6.56986 15.668 6.40942C15.5961 6.2683 15.4822 6.15365 15.3411 6.08175C15.1806 6 14.97 6 14.55 6H11.25M11.25 15V6" stroke="black" stroke-width="2" stroke-linecap="round" stroke-linejoin="round"/>
</svg>
