<svg width="25" height="25" viewBox="0 0 25 25" fill="none" xmlns="http://www.w3.org/2000/svg">
<path fill-rule="evenodd" clip-rule="evenodd" d="M4.66602 1.66675H4.58268C4.20102 1.66675 3.87268 1.66675 3.58268 1.73508C3.13374 1.84236 2.72327 2.07183 2.39673 2.39806C2.0702 2.7243 1.84036 3.13457 1.73268 3.58341C1.66602 3.87341 1.66602 4.20008 1.66602 4.58341V8.75008C1.66602 9.13175 1.66602 9.46008 1.73435 9.75008C1.84162 10.199 2.07109 10.6095 2.39733 10.936C2.72357 11.2626 3.13384 11.4924 3.58268 11.6001C3.87268 11.6667 4.19935 11.6667 4.58268 11.6667H8.74935C9.13102 11.6667 9.45935 11.6667 9.74935 11.5984C10.1983 11.4911 10.6088 11.2617 10.9353 10.9354C11.2618 10.6092 11.4917 10.1989 11.5993 9.75008C11.666 9.46008 11.666 9.13342 11.666 8.75008V4.58341C11.666 4.20175 11.666 3.87341 11.5977 3.58341C11.4904 3.13447 11.2609 2.724 10.9347 2.39747C10.6085 2.07093 10.1982 1.84109 9.74935 1.73341C9.45935 1.66675 9.13268 1.66675 8.74935 1.66675H4.66602ZM3.97102 3.35675C4.04268 3.34008 4.15435 3.33341 4.66602 3.33341H8.66602C9.17935 3.33341 9.28935 3.33841 9.36102 3.35675C9.51073 3.39255 9.64761 3.46912 9.75646 3.57797C9.86531 3.68682 9.94188 3.8237 9.97768 3.97341C9.99435 4.04341 9.99935 4.15341 9.99935 4.66675V8.66675C9.99935 9.18008 9.99435 9.29008 9.97602 9.36175C9.94021 9.51147 9.86364 9.64834 9.75479 9.75719C9.64594 9.86604 9.50907 9.94261 9.35935 9.97842C9.29102 9.99341 9.18102 10.0001 8.66602 10.0001H4.66602C4.15268 10.0001 4.04268 9.99508 3.97102 9.97675C3.8213 9.94095 3.68443 9.86437 3.57557 9.75552C3.46672 9.64667 3.39015 9.5098 3.35435 9.36008C3.33935 9.29175 3.33268 9.18175 3.33268 8.66675V4.66675C3.33268 4.15341 3.33768 4.04341 3.35602 3.97175C3.39182 3.82203 3.46839 3.68516 3.57724 3.57631C3.68609 3.46746 3.82297 3.39088 3.97268 3.35508M16.3327 1.66675H16.2493C15.8677 1.66675 15.5393 1.66675 15.2493 1.73508C14.8004 1.84236 14.3899 2.07183 14.0634 2.39806C13.7369 2.7243 13.507 3.13457 13.3993 3.58341C13.3327 3.87341 13.3327 4.20008 13.3327 4.58341V8.75008C13.3327 9.13175 13.3327 9.46008 13.401 9.75008C13.5083 10.199 13.7378 10.6095 14.064 10.936C14.3902 11.2626 14.8005 11.4924 15.2493 11.6001C15.5393 11.6667 15.866 11.6667 16.2493 11.6667H20.416C20.7977 11.6667 21.126 11.6667 21.416 11.5984C21.865 11.4911 22.2754 11.2617 22.602 10.9354C22.9285 10.6092 23.1583 10.1989 23.266 9.75008C23.3327 9.46008 23.3327 9.13342 23.3327 8.75008V4.58341C23.3327 4.20175 23.3327 3.87341 23.2643 3.58341C23.1571 3.13447 22.9276 2.724 22.6014 2.39747C22.2751 2.07093 21.8649 1.84109 21.416 1.73341C21.126 1.66675 20.7994 1.66675 20.416 1.66675H16.3327ZM15.6377 3.35675C15.7094 3.34008 15.821 3.33341 16.3327 3.33341H20.3327C20.846 3.33341 20.956 3.33841 21.0277 3.35675C21.1774 3.39255 21.3143 3.46912 21.4231 3.57797C21.532 3.68682 21.6085 3.8237 21.6444 3.97341C21.661 4.04341 21.666 4.15341 21.666 4.66675V8.66675C21.666 9.18008 21.6593 9.29008 21.6427 9.36175C21.6069 9.51147 21.5303 9.64834 21.4215 9.75719C21.3126 9.86604 21.1757 9.94261 21.026 9.97842C20.956 9.99508 20.846 10.0001 20.3327 10.0001H16.3327C15.8194 10.0001 15.7094 9.99508 15.6377 9.97675C15.488 9.94095 15.3511 9.86437 15.2422 9.75552C15.1334 9.64667 15.0568 9.5098 15.021 9.36008C15.006 9.29175 14.9993 9.18175 14.9993 8.66675V4.66675C14.9993 4.15341 15.0043 4.04341 15.0227 3.97175C15.0585 3.82203 15.1351 3.68516 15.2439 3.57631C15.3528 3.46746 15.4896 3.39088 15.6393 3.35508M4.58268 13.3334H8.74935C9.13102 13.3334 9.45935 13.3334 9.74935 13.4017C10.1983 13.509 10.6088 13.7385 10.9353 14.0647C11.2618 14.391 11.4917 14.8012 11.5993 15.2501C11.666 15.5401 11.666 15.8667 11.666 16.2501V20.4167C11.666 20.7984 11.666 21.1267 11.5977 21.4167C11.4904 21.8657 11.2609 22.2762 10.9347 22.6027C10.6085 22.9292 10.1982 23.1591 9.74935 23.2667C9.45935 23.3334 9.13268 23.3334 8.74935 23.3334H4.58268C4.20102 23.3334 3.87268 23.3334 3.58268 23.2651C3.13374 23.1578 2.72327 22.9283 2.39673 22.6021C2.0702 22.2759 1.84036 21.8656 1.73268 21.4167C1.66602 21.1267 1.66602 20.8001 1.66602 20.4167V16.2501C1.66602 15.8684 1.66602 15.5401 1.73435 15.2501C1.84162 14.8011 2.07109 14.3907 2.39733 14.0641C2.72357 13.7376 3.13384 13.5078 3.58268 13.4001C3.87268 13.3334 4.19935 13.3334 4.58268 13.3334ZM4.66602 15.0001C4.15268 15.0001 4.04268 15.0051 3.97102 15.0234C3.8213 15.0592 3.68443 15.1358 3.57557 15.2446C3.46672 15.3535 3.39015 15.4904 3.35435 15.6401C3.33935 15.7084 3.33268 15.8184 3.33268 16.3334V20.3334C3.33268 20.8467 3.33768 20.9567 3.35602 21.0284C3.39182 21.1781 3.46839 21.315 3.57724 21.4239C3.68609 21.5327 3.82297 21.6093 3.97268 21.6451C4.04268 21.6617 4.15268 21.6667 4.66602 21.6667H8.66602C9.17935 21.6667 9.28935 21.6601 9.36102 21.6434C9.51073 21.6076 9.64761 21.531 9.75646 21.4222C9.86531 21.3133 9.94188 21.1765 9.97768 21.0267C9.99435 20.9567 9.99935 20.8467 9.99935 20.3334V16.3334C9.99935 15.8201 9.99435 15.7101 9.97602 15.6384C9.94021 15.4887 9.86364 15.3518 9.75479 15.243C9.64594 15.1341 9.50907 15.0576 9.35935 15.0217C9.29102 15.0067 9.18102 15.0001 8.66602 15.0001H4.66602ZM16.3327 13.3334H16.2493C15.8677 13.3334 15.5393 13.3334 15.2493 13.4017C14.8004 13.509 14.3899 13.7385 14.0634 14.0647C13.7369 14.391 13.507 14.8012 13.3993 15.2501C13.3327 15.5401 13.3327 15.8667 13.3327 16.2501V20.4167C13.3327 20.7984 13.3327 21.1267 13.401 21.4167C13.5083 21.8657 13.7378 22.2762 14.064 22.6027C14.3902 22.9292 14.8005 23.1591 15.2493 23.2667C15.5393 23.3351 15.8677 23.3351 16.2493 23.3351H20.416C20.7977 23.3351 21.126 23.3351 21.416 23.2667C21.8647 23.1592 22.2748 22.9296 22.601 22.6034C22.9272 22.2772 23.1568 21.867 23.2643 21.4184C23.3327 21.1284 23.3327 20.8001 23.3327 20.4184V16.2517C23.3327 15.8701 23.3327 15.5417 23.2643 15.2517C23.1573 14.8025 22.928 14.3917 22.6017 14.0648C22.2755 13.738 21.8651 13.5079 21.416 13.4001C21.126 13.3334 20.7994 13.3334 20.416 13.3334H16.3327ZM15.6377 15.0234C15.7094 15.0067 15.821 15.0001 16.3327 15.0001H20.3327C20.846 15.0001 20.956 15.0051 21.0277 15.0234C21.1774 15.0592 21.3143 15.1358 21.4231 15.2446C21.532 15.3535 21.6085 15.4904 21.6444 15.6401C21.661 15.7101 21.666 15.8201 21.666 16.3334V20.3334C21.666 20.8467 21.6593 20.9567 21.6427 21.0284C21.6069 21.1781 21.5303 21.315 21.4215 21.4239C21.3126 21.5327 21.1757 21.6093 21.026 21.6451C20.956 21.6617 20.846 21.6667 20.3327 21.6667H16.3327C15.8194 21.6667 15.7094 21.6601 15.6377 21.6434C15.488 21.6076 15.3511 21.531 15.2422 21.4222C15.1334 21.3133 15.0568 21.1765 15.021 21.0267C15.006 20.9584 14.9993 20.8484 14.9993 20.3334V16.3334C14.9993 15.8201 15.0043 15.7101 15.0227 15.6384C15.0585 15.4887 15.1351 15.3518 15.2439 15.243C15.3528 15.1341 15.4896 15.0576 15.6393 15.0217" fill="#8B8B8B" fill-opacity="0.5"/>
</svg>
