<svg width="76" height="68" viewBox="0 0 76 68" fill="none" xmlns="http://www.w3.org/2000/svg">
<path d="M69.7458 17.4653C68.5423 18.0503 67.6295 19.0859 66.7489 20.0937C66.2629 20.6499 65.5747 21.2624 64.8839 21.001C64.4535 20.8382 64.2097 20.3794 64.0938 19.9342C63.978 19.4889 63.9494 19.0176 63.7637 18.5965C63.2208 17.3649 61.4598 17.0647 60.2875 17.726C59.1151 18.3873 58.4649 19.7043 58.1299 21.0079C57.7947 22.3115 57.7041 23.6736 57.2936 24.9556C57.1308 25.4643 56.8752 26.0025 56.3847 26.2139C55.7359 26.4933 54.9957 26.0705 54.5064 25.5611C54.0172 25.0517 53.612 24.4212 52.9721 24.1221C52.1266 23.7271 51.0734 24.0523 50.407 24.7056C49.7406 25.359 49.3996 26.2757 49.1967 27.1867C48.4116 30.7117 50.7632 35.7788 53.2984 38.3507L73.5068 17.7749C72.5321 16.8584 70.9495 16.8803 69.7458 17.4653Z" fill="#AAE0FE"/>
<path d="M73.8847 21.53C73.3215 22.7438 72.3023 23.675 71.3107 24.5737C70.7634 25.0696 70.1634 25.7687 70.4373 26.4546C70.6079 26.8819 71.0709 27.1174 71.5181 27.2252C71.9653 27.3331 72.4372 27.3532 72.8614 27.5313C74.1026 28.0521 74.4345 29.8072 73.7942 30.9912C73.1541 32.1751 71.8491 32.8491 70.5517 33.2077C69.2543 33.5663 67.8939 33.6816 66.6197 34.1148C66.1141 34.2869 65.5804 34.5521 65.3781 35.0462C65.1104 35.6999 65.5465 36.4323 66.0646 36.9125C66.5827 37.3926 67.2205 37.7863 67.531 38.4208C67.9412 39.259 67.6351 40.3179 66.9937 40.9959C66.3523 41.6739 65.4419 42.0314 64.5348 42.2505C61.0247 43.0989 55.9158 40.8391 53.2988 38.3506L73.5073 17.7749C74.4416 18.7333 74.4481 20.3159 73.8847 21.53Z" fill="#77CCFE"/>
<path d="M53.2991 38.3508C53.4034 38.4498 53.5127 38.5483 53.6245 38.6465L55.5245 36.6283L64.8262 39.4469L55.962 36.1637L62.2281 29.5076L69.8604 30.5516L62.673 29.0352L67.8529 23.5328L62.4448 28.8109L60.7991 21.652L61.9803 29.2641L55.4383 35.649L51.9961 26.8453L54.9818 36.0946L52.998 38.0307C53.0977 38.1407 53.1982 38.2484 53.2991 38.3508Z" fill="#D8F2FE"/>
<path d="M57.3251 39.452C58.6473 37.821 60.2391 36.3693 62.1337 35.4643C63.9516 34.596 65.9921 34.2596 68.0068 34.2748C69.9181 34.2893 71.9093 34.6479 73.427 35.8097C74.9446 36.9715 75.8398 39.0927 75.135 40.8692C74.6475 42.0978 73.488 42.9714 72.2298 43.3756C70.9715 43.7799 69.6173 43.769 68.3018 43.6428C66.9862 43.5168 65.6794 43.2797 64.3582 43.2451C59.7937 43.1255 55.304 45.5795 52.7207 49.3445C53.5702 44.7095 56.088 40.9778 57.3251 39.452Z" fill="#E0422D"/>
<path d="M75.3623 39.2071C75.4134 39.7687 75.3471 40.3345 75.135 40.8691C74.6475 42.0976 73.4881 42.9712 72.2298 43.3754C70.9715 43.7797 69.6173 43.7688 68.3018 43.6426C66.9862 43.5167 65.6794 43.2795 64.3582 43.2449C59.7937 43.1253 55.304 45.5793 52.7207 49.3443C58.9415 32.6489 75.3623 39.2071 75.3623 39.2071Z" fill="#FF5B42"/>
<path d="M50.3746 57.3826L48.8668 60.6861C48.7342 60.9765 48.8622 61.3193 49.1526 61.452C49.443 61.5845 49.786 61.4566 49.9185 61.1661L51.4264 57.8628L50.3746 57.3826Z" fill="#003672"/>
<path d="M60.7163 36.1213L58.0002 36.6939L52.2949 49.1927C50.8439 52.3713 49.8099 55.7243 49.2188 59.168L50.0278 59.5373L50.8369 59.9066C53.0514 57.2037 54.9072 54.226 56.358 51.0474L62.0632 38.5486L60.7163 36.1213Z" fill="#FFBB45"/>
<path d="M57.9987 36.694L56.9102 39.0787L60.973 40.9334L62.0618 38.5485L61.4494 37.445L59.2336 36.4335L57.9987 36.694Z" fill="#FF9A30"/>
<path d="M66.6793 23.0517C65.324 22.433 63.7238 23.0303 63.1051 24.3855L57.2617 37.187L62.1695 39.4273L68.0129 26.6258C68.6318 25.2706 68.0347 23.6704 66.6793 23.0517Z" fill="#FFBB45"/>
<path d="M64.9539 24.2641L64.7638 24.1772C64.4514 24.0346 64.0827 24.1723 63.94 24.4847L58.7106 35.9411C58.5679 36.2534 58.7057 36.6223 59.0181 36.7648L59.2082 36.8517C59.5206 36.9943 59.8895 36.8565 60.032 36.5442L65.2614 25.0878C65.4039 24.7755 65.2661 24.4067 64.9539 24.2641Z" fill="#FFE187"/>
<path d="M58.012 39.8834C57.7325 39.7558 57.4023 39.879 57.2747 40.1586L52.1441 51.3982C52.0165 51.6777 52.1398 52.0078 52.4193 52.1354C52.6988 52.263 53.0289 52.1398 53.1566 51.8602L58.2872 40.6206C58.4146 40.3409 58.2915 40.0108 58.012 39.8834Z" fill="#FFE187"/>
<path d="M68.4704 29.3423L62.1602 26.4619L62.7879 25.0867L67.9207 27.4296C68.571 27.7264 68.8574 28.4941 68.5606 29.1443L68.4704 29.3423Z" fill="#003672"/>
<path d="M67.6335 28.9607L62.2154 40.8302C62.1101 41.061 62.2118 41.3336 62.4425 41.439C62.6733 41.5443 62.946 41.4426 63.0513 41.2118L68.4694 29.3423L67.6335 28.9607Z" fill="#003672"/>
<path d="M19.8786 41.7599C18.8754 39.9115 17.5738 38.1904 15.8741 36.9521C14.2432 35.7638 12.2955 35.0588 10.3088 34.7046C8.42422 34.3687 6.39768 34.3571 4.69038 35.2231C2.98308 36.089 1.71303 38.0137 2.08157 39.8923C2.33645 41.1914 3.31827 42.264 4.48318 42.8927C5.64809 43.5214 6.98358 43.7587 8.30222 43.8754C9.62085 43.9923 10.9509 43.9983 12.2583 44.2062C16.7749 44.9247 20.7466 48.1636 22.6006 52.3443C22.6127 47.6248 20.8171 43.4889 19.8786 41.7599Z" fill="#E0422D"/>
<path d="M2.16183 38.2142C2.00864 38.7579 1.97039 39.3271 2.08134 39.8925C2.33622 41.1916 3.31804 42.2642 4.48295 42.8929C5.64786 43.5216 6.98335 43.7589 8.30199 43.8758C9.62062 43.9927 10.9507 43.9987 12.2581 44.2066C16.7747 44.9251 20.7464 48.164 22.6003 52.3447C19.5332 34.7645 2.16183 38.2142 2.16183 38.2142Z" fill="#FF5B42"/>
<path d="M45.5915 20.7702C46.3641 18.7511 47.4579 16.8214 49.0227 15.33C50.5243 13.8988 52.4138 12.9172 54.3905 12.2878C56.2656 11.6908 58.3292 11.4053 60.186 12.057C62.0429 12.7089 63.5972 14.4987 63.4753 16.4628C63.3911 17.821 62.5356 19.0468 61.4334 19.8448C60.3312 20.6428 59.0024 21.065 57.6744 21.3623C56.3465 21.6596 54.9918 21.8454 53.6876 22.2339C49.1821 23.5761 45.5724 27.4135 44.248 31.9243C43.5976 27.1163 44.8687 22.659 45.5915 20.7702Z" fill="#FF9A30"/>
<path d="M63.1665 14.7634C63.396 15.2967 63.512 15.8715 63.4754 16.4627C63.3911 17.8208 62.5356 19.0467 61.4335 19.8447C60.3313 20.6426 59.0025 21.0649 57.6744 21.3622C56.3465 21.6595 54.9918 21.8453 53.6877 22.2337C49.1821 23.576 45.5725 27.4133 44.248 31.9241C44.9982 13.595 63.1665 14.7634 63.1665 14.7634Z" fill="#FFBB45"/>
<path d="M18.1729 44.3576C16.1883 43.4338 14.0332 42.8012 11.8442 42.8191C9.74375 42.8363 7.67787 43.4539 5.79708 44.3892C4.01274 45.2764 2.31087 46.5227 1.41988 48.3052C0.528884 50.0877 0.659769 52.4844 2.13231 53.827C3.15057 54.7553 4.63652 55.0439 6.00048 54.8476C7.36444 54.6513 8.62815 54.0219 9.80339 53.3024C10.9786 52.5829 12.0946 51.7633 13.3168 51.127C17.5392 48.9283 22.8681 49.1753 27.0098 51.5224C24.0948 47.5677 20.0296 45.222 18.1729 44.3576Z" fill="#FF9A30"/>
<path d="M1.16016 52.3737C1.36899 52.9231 1.68986 53.4231 2.13291 53.827C3.15116 54.7553 4.63712 55.0439 6.00108 54.8476C7.36504 54.6513 8.62874 54.0219 9.80399 53.3024C10.9792 52.5829 12.0952 51.7633 13.3174 51.127C17.5398 48.9282 22.8687 49.1753 27.0104 51.5224C13.5492 38.7216 1.16016 52.3737 1.16016 52.3737Z" fill="#FFBB45"/>
<path d="M18.7235 22.7651C17.9572 21.1493 17.4277 19.3925 17.4297 17.6044C17.4315 15.8884 17.9237 14.1974 18.6767 12.6554C19.391 11.1927 20.3991 9.79516 21.8499 9.05681C23.3007 8.31845 25.2592 8.41126 26.3647 9.60627C27.1289 10.4325 27.3733 11.6448 27.221 12.76C27.0688 13.8752 26.5621 14.9114 25.9811 15.8755C25.4002 16.8397 24.7373 17.7561 24.2246 18.7582C22.4533 22.2203 22.6865 26.572 24.628 29.9414C21.3805 27.5835 19.4405 24.2764 18.7235 22.7651Z" fill="#FF9A30"/>
<path d="M25.1713 8.82007C25.6214 8.98739 26.0316 9.24662 26.3643 9.60628C27.1286 10.4326 27.3731 11.6448 27.2206 12.76C27.0684 13.8753 26.5617 14.9115 25.9807 15.8755C25.3999 16.8397 24.7369 17.7561 24.2243 18.7582C22.453 22.2203 22.6861 26.572 24.6276 29.9415C14.0921 19.0204 25.1713 8.82007 25.1713 8.82007Z" fill="#FFBB45"/>
<path d="M56.4689 44.8157C58.2544 44.0135 60.1888 43.4736 62.1457 43.5161C64.0234 43.5567 65.8631 44.1335 67.5334 44.9922C69.1181 45.8069 70.6246 46.9415 71.3999 48.5457C72.1753 50.15 72.0295 52.2913 70.6969 53.474C69.7755 54.2918 68.4434 54.532 67.2263 54.3402C66.0092 54.1484 64.8869 53.5704 63.8447 52.9131C62.8027 52.2558 61.8145 51.5096 60.7296 50.9261C56.9809 48.9097 52.2134 49.0669 48.4824 51.1157C51.1362 47.6148 54.7988 45.5662 56.4689 44.8157Z" fill="#FF9A30"/>
<path d="M71.5841 52.1862C71.3909 52.6749 71.0979 53.1181 70.6969 53.474C69.7755 54.2917 68.4434 54.5319 67.2263 54.3401C66.0092 54.1484 64.8869 53.5704 63.8447 52.9131C62.8027 52.2558 61.8145 51.5096 60.7296 50.9261C56.9809 48.9099 52.2134 49.0669 48.4824 51.1157C60.671 39.8321 71.5841 52.1862 71.5841 52.1862Z" fill="#FFBB45"/>
<path d="M25.0638 12.4655C25.0333 13.5521 25.4365 14.5985 25.8317 15.6111C26.0498 16.17 26.2325 16.8957 25.7849 17.295C25.5059 17.5439 25.0841 17.5472 24.7199 17.4635C24.3557 17.3797 24.0055 17.2233 23.6326 17.199C22.5416 17.1277 21.664 18.2832 21.7003 19.376C21.7366 20.4687 22.4408 21.4315 23.2541 22.1624C24.0671 22.8934 25.0143 23.4702 25.7835 24.247C26.0887 24.5553 26.3804 24.9415 26.3483 25.3742C26.3059 25.9465 25.7236 26.3208 25.1729 26.482C24.6222 26.6431 24.016 26.6983 23.5602 27.0469C22.9582 27.5077 22.7969 28.3883 23.0175 29.1136C23.2379 29.8389 23.7702 30.4288 24.3501 30.917C26.5943 32.8061 31.1271 33.015 33.9315 32.1546L26.6991 9.87286C25.6727 10.2307 25.0942 11.3789 25.0638 12.4655Z" fill="#FF5B42"/>
<path d="M29.5457 11.011C30.2086 11.8726 30.4967 12.9561 30.7715 14.0079C30.9232 14.5884 31.2015 15.283 31.7985 15.3434C32.1703 15.3809 32.5138 15.1358 32.7594 14.8541C33.0051 14.5724 33.1967 14.2401 33.4842 14.0014C34.3253 13.3029 35.7141 13.7229 36.3267 14.6286C36.939 15.5343 36.9345 16.7273 36.7056 17.7965C36.4766 18.8655 36.0488 19.8886 35.8825 20.9693C35.8166 21.398 35.8073 21.882 36.0872 22.2134C36.4576 22.6517 37.1488 22.6126 37.6892 22.4197C38.2296 22.2268 38.7526 21.9152 39.3261 21.9299C40.0839 21.9493 40.7318 22.5673 40.9792 23.2839C41.2269 24.0005 41.1424 24.7903 40.9597 25.5261C40.2527 28.3731 36.7066 31.2042 33.9316 32.1548L26.6992 9.87307C27.7405 9.55963 28.8829 10.1493 29.5457 11.011Z" fill="#E0422D"/>
<path d="M33.9305 32.1546C34.0409 32.1168 34.153 32.0749 34.2655 32.0314L33.5252 29.9049L39.0481 24.2635L33.3548 29.4157L30.9135 22.4028L34.5313 17.2974L30.7402 21.905L28.722 16.1078L30.4931 21.9852L24.7188 20.4823L30.6452 22.4898L32.7876 29.5995L25.1538 28.773L32.9371 30.0955L33.5868 32.2513C33.7038 32.2208 33.8189 32.1889 33.9305 32.1546Z" fill="#FFA599"/>
<path d="M1.01986 19.0584C1.32024 20.0288 1.99225 20.8328 2.64703 21.6094C3.00833 22.0382 3.38865 22.625 3.11311 23.1132C2.94143 23.4173 2.56926 23.5473 2.22175 23.583C1.87423 23.6187 1.51747 23.5859 1.18011 23.6768C0.19358 23.9423 -0.234424 25.2291 0.12705 26.1848C0.488342 27.1405 1.40164 27.7799 2.34103 28.1814C3.28061 28.5829 4.29216 28.8077 5.20672 29.2631C5.56964 29.4438 5.94399 29.6974 6.04605 30.0899C6.1811 30.6089 5.77866 31.1154 5.34014 31.424C4.90162 31.7325 4.38189 31.9638 4.08387 32.4096C3.69012 32.9986 3.81303 33.8261 4.22653 34.4013C4.64003 34.9765 5.28866 35.3378 5.9487 35.5949C8.50313 36.5896 12.5756 35.4085 14.7968 33.8024L1.6848 16.2723C0.884984 16.8981 0.719475 18.088 1.01986 19.0584Z" fill="#FFBB45"/>
<path d="M4.54616 16.4211C5.39219 16.9835 5.97356 17.8553 6.53354 18.7028C6.84262 19.1705 7.29818 19.7011 7.84438 19.5745C8.18464 19.4957 8.41469 19.1755 8.54702 18.8523C8.67936 18.5291 8.74879 18.1774 8.93116 17.8796C9.46467 17.0083 10.8197 16.9612 11.6344 17.5777C12.4491 18.1943 12.8046 19.2509 12.9242 20.2656C13.0439 21.2802 12.9739 22.3142 13.1525 23.3202C13.2233 23.7193 13.3609 24.1502 13.7085 24.3589C14.1682 24.635 14.7679 24.3921 15.1877 24.0587C15.6075 23.7251 15.9763 23.2921 16.488 23.1322C17.1642 22.921 17.9234 23.2725 18.3583 23.8315C18.7932 24.3908 18.9565 25.115 19.0167 25.8207C19.2493 28.5521 16.9659 32.125 14.7976 33.8022L1.68555 16.2721C2.51201 15.6815 3.70012 15.8588 4.54616 16.4211Z" fill="#FF9A30"/>
<path d="M14.7986 33.8024C14.8849 33.7356 14.9714 33.6648 15.0578 33.5923L13.7622 31.9344L16.9475 25.28L13.464 31.553L9.19122 26.0856L10.8528 20.4793L8.88793 25.6975L5.35568 21.1778L8.69342 25.8429L3.13281 26.2536L8.98002 26.2435L13.0177 31.8868L6.01626 33.4563L13.2996 32.2807L14.524 33.9918C14.6179 33.9293 14.7103 33.8662 14.7986 33.8024Z" fill="#FFE1AD"/>
<path d="M18.7224 22.1399L16.1741 9.2323L13.28 9.8037L10.3858 10.3751L12.9341 23.2826L7.40575 34.6308C6.36629 36.7645 8.21607 39.1668 10.5446 38.7071L18.6694 37.1031L26.7943 35.4992C29.1228 35.0394 29.9208 32.1145 28.1486 30.5359L18.7224 22.1399Z" fill="#AAE0FE"/>
<path d="M16.0496 8.59853L10.2613 9.74132C9.9112 9.81039 9.68351 10.1503 9.75258 10.5002C9.82165 10.8502 10.1614 11.0779 10.5114 11.0088L16.2997 9.86604C16.6498 9.79697 16.8775 9.45725 16.8084 9.1072C16.7393 8.75715 16.3996 8.52946 16.0496 8.59853Z" fill="#AAE0FE"/>
<path d="M27.5126 33.0292C27.6497 32.5267 27.5054 32.04 27.1165 31.6937L23.9155 28.8425C21.8951 30.019 19.554 30.6508 17.2155 30.591C15.6072 30.5498 14.0096 30.2014 12.4029 30.2828C11.9905 30.3037 11.5826 30.3539 11.1781 30.4251L8.79865 35.3095C8.5706 35.7778 8.62208 36.283 8.93987 36.6956C9.25765 37.1082 9.73261 37.287 10.2435 37.1862L26.4931 33.978C27.004 33.8772 27.3754 33.5314 27.5126 33.0292Z" fill="#FF9A30"/>
<path d="M12.6441 11.4217C12.1365 11.522 11.8064 12.0145 11.9066 12.5221L13.8293 22.2609C13.9295 22.7685 14.4221 23.0986 14.9296 22.9983C15.4372 22.8981 15.7673 22.4055 15.6671 21.898L13.7444 12.1592C13.6444 11.6516 13.1516 11.3215 12.6441 11.4217Z" fill="white"/>
<path d="M11.1487 6.37181C11.3614 5.47112 10.8037 4.56855 9.90298 4.35587C9.00229 4.1432 8.09972 4.70094 7.88704 5.60163C7.67436 6.50233 8.23211 7.40489 9.1328 7.61757C10.0335 7.83025 10.9361 7.27251 11.1487 6.37181Z" fill="#AAE0FE"/>
<path d="M13.8632 7.43541C13.8632 7.82153 13.5502 8.13461 13.164 8.13461C12.7779 8.13461 12.4648 7.82153 12.4648 7.43541C12.4648 7.04928 12.7779 6.73621 13.164 6.73621C13.5502 6.73639 13.8632 7.04928 13.8632 7.43541Z" fill="#AAE0FE"/>
<path d="M53.4562 57.2226L57.7988 60.519L70.6691 43.5637L66.3264 40.2673L53.4562 57.2226Z" fill="#E0422D"/>
<path d="M70.6709 43.5611L72.7779 40.7853C73.1648 40.2757 73.0652 39.5488 72.5557 39.1619L70.0585 37.2665C69.5489 36.8796 68.822 36.9791 68.4351 37.4887L66.3281 40.2645L70.6709 43.5611Z" fill="#FFE5B2"/>
<path d="M66.3253 40.2673L70.668 43.5637L71.2833 42.7531L66.9406 39.4567L66.3253 40.2673Z" fill="#6593C7"/>
<path d="M54.6162 58.103L56.6387 59.6382L69.5089 42.6829L67.4865 41.1477L54.6162 58.103Z" fill="#FF9A30"/>
<path d="M50.9512 65.0289L57.7991 60.5166L55.6277 58.8682L53.4563 57.22L50.9512 65.0289Z" fill="#FFE5B2"/>
<path d="M50.9512 65.0289L52.7518 63.8422L51.6099 62.9753L50.9512 65.0289Z" fill="#003672"/>
<path d="M35.8999 15.3702L33.9095 25.9398L33.9122 25.9404C33.6185 27.8163 37.4787 30.102 42.5843 31.0635C47.6901 32.025 52.1171 31.2997 52.5259 29.4456L52.5286 29.4461L54.5191 18.8766L35.8999 15.3702Z" fill="#003672"/>
<path d="M43.5806 25.7739C44.4086 25.9298 45.2188 26.0413 45.9968 26.1108C46.9043 26.1918 47.5415 27.0404 47.3729 27.9357L46.7042 31.487C49.8855 31.5198 52.2336 30.7717 52.526 29.4456L52.5288 29.4461L53.6908 23.2755L54.5192 18.8766L35.8999 15.3702L34.9055 20.6502L34.9083 20.6508C34.6148 22.5267 38.4748 24.8124 43.5806 25.7739Z" fill="#002854"/>
<path d="M45.2687 11.6563L27.7418 12.9574C26.5988 13.0422 26.3078 14.5869 27.3417 15.0816L43.1949 22.6688C43.7782 22.948 44.4245 23.0696 45.0695 23.0217L62.5964 21.7207C63.7394 21.6359 64.0304 20.0912 62.9965 19.5964L47.1433 12.0093C46.5598 11.7301 45.9135 11.6085 45.2687 11.6563Z" fill="#003672"/>
<path d="M53.4936 34.1277C52.6483 33.9686 51.6958 35.2571 51.3666 37.0059C51.3113 37.2994 51.9518 37.6665 52.7973 37.8257C53.6426 37.9848 54.3728 37.8759 54.4281 37.5824C54.7573 35.8336 54.3389 34.2869 53.4936 34.1277Z" fill="#FFBB45"/>
<path d="M54.3788 34.3813C54.4726 33.8837 54.1452 33.4042 53.6474 33.3105C53.1498 33.2168 52.6703 33.5442 52.5766 34.042C52.4828 34.5396 52.8102 35.0191 53.308 35.1128C53.8058 35.2063 54.2851 34.8789 54.3788 34.3813Z" fill="#003672"/>
<path d="M53.4779 34.2117C53.2049 34.1604 53.0253 33.8973 53.0767 33.6243L55.1705 22.5058L45.0328 17.2873C44.7857 17.16 44.6885 16.8568 44.8156 16.6099C44.9429 16.3628 45.2465 16.2662 45.493 16.3929L55.9644 21.7829C56.1623 21.8848 56.2696 22.1045 56.2285 22.3233L54.0653 33.8105C54.0138 34.0833 53.7507 34.263 53.4779 34.2117Z" fill="#FFBB45"/>
<path d="M54.3429 31.8973L36.583 32.6855C36.5381 32.6875 36.4931 32.6875 36.4481 32.6855L18.6883 31.8973H18.5133C17.6733 31.8973 16.9922 32.5784 16.9922 33.4184V51.818C16.9922 52.6146 17.6065 53.2763 18.4009 53.335C22.0702 53.6071 31.9535 54.3358 36.5156 54.6333C41.0777 54.3358 50.9611 53.6071 54.6302 53.335C55.4246 53.2761 56.039 52.6144 56.039 51.818V33.4184C56.039 32.5784 55.3579 31.8973 54.5178 31.8973H54.3429Z" fill="#003672"/>
<path d="M19.2576 29.7422L18.0258 33.1129L17.877 51.5617L19.2576 49.6811C19.2576 49.6811 23.0717 30.9597 19.2576 29.7422Z" fill="#FAB45A"/>
<path d="M19.2576 49.6811L17.877 51.5617L36.5164 53.4749V51.7566C36.5164 51.7566 26.4372 45.6924 19.2576 49.6811Z" fill="#FAB45A"/>
<path d="M53.7745 49.6811L55.1551 51.5617L36.5156 53.4749V51.7566C36.5156 51.7566 46.5947 45.6924 53.7745 49.6811Z" fill="#FAB45A"/>
<path d="M36.5166 51.7564V31.5953C36.5166 31.5953 27.2659 25.2948 19.2578 29.7422V49.6811C19.2578 49.6811 25.609 46.9385 36.5166 51.7564Z" fill="#FFEDCC"/>
<path d="M53.7734 29.7422L55.0052 33.1129L55.154 51.5617L53.7734 49.6811C53.7734 49.6811 49.9591 30.9597 53.7734 29.7422Z" fill="#FAB45A"/>
<path d="M36.5156 51.7564V31.5953C36.5156 31.5953 45.7664 25.2948 53.7745 29.7422V49.6811C53.7745 49.6811 47.4231 46.9385 36.5156 51.7564Z" fill="#FFEDCC"/>
<path d="M36.5156 33.8992L37.2491 51.7564L36.5156 51.917V33.8992Z" fill="#FAB45A"/>
<path d="M34.681 33.1127C34.6555 33.1127 34.6294 33.1059 34.6054 33.0912C30.6423 30.6722 25.8095 29.9688 21.3466 31.1614C21.2628 31.1836 21.1791 31.1279 21.1588 31.0369C21.1385 30.9459 21.1894 30.8542 21.2728 30.8319C25.8111 29.6191 30.7262 30.3346 34.7572 32.795C34.832 32.8406 34.8589 32.944 34.817 33.0257C34.7884 33.0814 34.7356 33.1127 34.681 33.1127Z" fill="#6593C7"/>
<path d="M34.681 35.0846C34.6555 35.0846 34.6294 35.0777 34.6054 35.063C30.6423 32.644 25.8095 31.9404 21.3466 33.1331C21.2628 33.1554 21.1791 33.0995 21.1588 33.0085C21.1385 32.9175 21.1894 32.8258 21.2728 32.8035C25.8111 31.5906 30.726 32.3062 34.7572 34.7668C34.832 34.8125 34.8589 34.9158 34.817 34.9975C34.7884 35.0532 34.7356 35.0846 34.681 35.0846Z" fill="#6593C7"/>
<path d="M34.681 37.0563C34.6555 37.0563 34.6294 37.0494 34.6054 37.0348C30.6423 34.6156 25.8095 33.9122 21.3466 35.105C21.2628 35.1273 21.1791 35.0715 21.1588 34.9805C21.1385 34.8895 21.1894 34.7978 21.2728 34.7755C25.8111 33.5625 30.726 34.2784 34.7572 36.7385C34.832 36.7842 34.8589 36.8876 34.817 36.9693C34.7884 37.025 34.7356 37.0563 34.681 37.0563Z" fill="#6593C7"/>
<path d="M34.681 39.0281C34.6555 39.0281 34.6294 39.0212 34.6054 39.0065C30.6423 36.5875 25.8095 35.884 21.3466 37.0768C21.2628 37.0989 21.1791 37.0432 21.1588 36.9522C21.1385 36.8612 21.1894 36.7695 21.2728 36.7472C25.8111 35.5344 30.7262 36.25 34.7572 38.7103C34.832 38.756 34.8589 38.8593 34.817 38.9411C34.7884 38.9967 34.7356 39.0279 34.681 39.0281Z" fill="#6593C7"/>
<path d="M34.681 40.9999C34.6555 40.9999 34.6294 40.993 34.6054 40.9783C30.6423 38.5593 25.8095 37.8558 21.3466 39.0484C21.2628 39.0705 21.1791 39.0149 21.1588 38.9241C21.1385 38.8331 21.1894 38.7413 21.2728 38.719C25.8111 37.5061 30.726 38.2218 34.7572 40.6823C34.832 40.728 34.8589 40.8313 34.817 40.9131C34.7884 40.9685 34.7356 40.9997 34.681 40.9999Z" fill="#6593C7"/>
<path d="M34.682 42.9715C34.6564 42.9715 34.6303 42.9646 34.6064 42.9499C32.6701 41.768 30.4344 40.9676 28.1408 40.635C28.0558 40.6226 27.996 40.5374 28.0072 40.4444C28.0185 40.3515 28.0966 40.2866 28.1816 40.2987C30.5138 40.6368 32.7878 41.4511 34.7579 42.6537C34.8328 42.6994 34.8596 42.8027 34.8178 42.8845C34.7893 42.9403 34.7365 42.9715 34.682 42.9715Z" fill="#6593C7"/>
<path d="M34.6808 44.9433C34.6552 44.9433 34.6291 44.9364 34.6052 44.9217C32.621 43.7106 30.3287 42.9023 27.9761 42.5839C27.8911 42.5725 27.8305 42.4877 27.841 42.3949C27.8515 42.3019 27.9288 42.2359 28.0143 42.2475C30.4065 42.5711 32.738 43.3935 34.7569 44.6257C34.8318 44.6714 34.8586 44.7747 34.8167 44.8565C34.7881 44.9121 34.7353 44.9433 34.6808 44.9433Z" fill="#6593C7"/>
<path d="M34.6815 46.9151C34.656 46.9151 34.6298 46.9082 34.6059 46.8935C32.5897 45.6628 30.2597 44.8496 27.8675 44.5412C27.7823 44.5303 27.7214 44.446 27.7316 44.3528C27.7415 44.2599 27.8188 44.1924 27.904 44.2044C30.336 44.5176 32.7059 45.3452 34.7575 46.5973C34.8323 46.643 34.8592 46.7463 34.8173 46.8281C34.7888 46.8837 34.7361 46.9151 34.6815 46.9151Z" fill="#6593C7"/>
<path d="M34.6815 48.8867C34.656 48.8867 34.6298 48.8798 34.6059 48.8651C32.5897 47.6344 30.2597 46.8212 27.8675 46.5128C27.7823 46.5019 27.7214 46.4176 27.7316 46.3245C27.7415 46.2315 27.8188 46.1635 27.904 46.176C30.336 46.4892 32.7059 47.3168 34.7575 48.5689C34.8323 48.6146 34.8592 48.7179 34.8173 48.7997C34.7888 48.8555 34.7361 48.8867 34.6815 48.8867Z" fill="#6593C7"/>
<path d="M51.721 31.1664C51.7088 31.1664 51.6963 31.1647 51.684 31.1615C49.2795 30.519 46.6886 30.4258 44.1913 30.8925C44.107 30.9082 44.0265 30.8462 44.012 30.7538C43.9975 30.6615 44.0544 30.5738 44.1389 30.558C46.6776 30.0836 49.3123 30.1784 51.7578 30.8319C51.8412 30.8542 51.8921 30.9459 51.8718 31.0369C51.8544 31.1145 51.791 31.1664 51.721 31.1664Z" fill="#6593C7"/>
<path d="M51.7219 33.1382C51.7098 33.1382 51.6973 33.1365 51.6849 33.1333C49.2743 32.489 46.677 32.3973 44.1739 32.8677C44.0898 32.8842 44.0091 32.8217 43.9944 32.7294C43.9799 32.6371 44.0367 32.5494 44.1212 32.5334C46.6658 32.055 49.3067 32.1486 51.7587 32.8037C51.8421 32.826 51.893 32.9177 51.8727 33.0087C51.8553 33.0861 51.7919 33.1382 51.7219 33.1382Z" fill="#6593C7"/>
<path d="M51.7209 35.1097C51.7088 35.1097 51.6962 35.1081 51.6839 35.1048C49.2644 34.4582 46.6581 34.3681 44.1468 34.8442C44.0632 34.8607 43.9818 34.7983 43.9672 34.706C43.9525 34.6138 44.009 34.5258 44.0937 34.5099C46.6467 34.026 49.297 34.1178 51.7577 34.7753C51.8411 34.7976 51.892 34.8893 51.8717 34.9803C51.8543 35.0579 51.7909 35.1097 51.7209 35.1097Z" fill="#6593C7"/>
<path d="M51.7215 37.0816C51.7094 37.0816 51.6969 37.0799 51.6846 37.0767C49.2663 36.4304 46.6611 36.3401 44.1507 36.8155C44.0664 36.8318 43.9857 36.7696 43.9711 36.6773C43.9564 36.5851 44.0131 36.4971 44.0976 36.4812C46.6498 35.9981 49.2991 36.09 51.7583 36.7471C51.8417 36.7694 51.8927 36.8611 51.8724 36.9521C51.855 37.0297 51.7915 37.0816 51.7215 37.0816Z" fill="#6593C7"/>
<path d="M38.3489 41C38.2945 41 38.2416 40.9686 38.2131 40.9131C38.1713 40.8314 38.1981 40.7281 38.273 40.6824C42.3039 38.222 47.2188 37.5063 51.7573 38.7191C51.8407 38.7414 51.8917 38.8331 51.8714 38.9241C51.8511 39.0151 51.767 39.0706 51.6836 39.0485C47.2204 37.856 42.3878 38.5592 38.4247 40.9784C38.4006 40.9929 38.3747 41 38.3489 41Z" fill="#6593C7"/>
<path d="M38.3489 43.043C38.2945 43.043 38.2416 43.0118 38.2131 42.9561C38.1713 42.8744 38.1981 42.7711 38.273 42.7254C42.3039 40.2648 47.2188 39.5493 51.7573 40.7621C51.8407 40.7844 51.8917 40.8761 51.8714 40.9671C51.8511 41.0581 51.767 41.114 51.6836 41.0915C47.2204 39.8988 42.3878 40.6022 38.4247 43.0214C38.4006 43.0359 38.3747 43.043 38.3489 43.043Z" fill="#6593C7"/>
<path d="M38.3489 45.0148C38.2945 45.0148 38.2416 44.9836 38.2131 44.9279C38.1713 44.8462 38.1981 44.7429 38.273 44.6972C42.3039 42.2367 47.2188 41.5211 51.7573 42.7339C51.8407 42.7562 51.8917 42.8479 51.8714 42.9389C51.8511 43.0298 51.767 43.0858 51.6836 43.0635C47.2204 41.8708 42.3878 42.5744 38.4247 44.9934C38.4006 45.0077 38.3747 45.0148 38.3489 45.0148Z" fill="#6593C7"/>
<path d="M38.3489 46.9864C38.2945 46.9864 38.2416 46.9552 38.2131 46.8996C38.1713 46.8178 38.1981 46.7145 38.273 46.6688C42.3039 44.2086 47.2186 43.4927 51.7573 44.7057C51.8407 44.728 51.8917 44.8197 51.8714 44.9107C51.8511 45.0015 51.767 45.0574 51.6836 45.0353C47.2204 43.8424 42.3878 44.546 38.4247 46.965C38.4006 46.9795 38.3747 46.9864 38.3489 46.9864Z" fill="#6593C7"/>
<path d="M38.3489 48.9582C38.2945 48.9582 38.2416 48.927 38.2131 48.8713C38.1713 48.7896 38.1981 48.6862 38.273 48.6406C42.3039 46.1802 47.2186 45.4645 51.7573 46.6775C51.8407 46.6998 51.8917 46.7915 51.8714 46.8825C51.8511 46.9733 51.767 47.029 51.6836 47.007C47.2204 45.8144 42.3878 46.5176 38.4247 48.9368C38.4006 48.9513 38.3747 48.9582 38.3489 48.9582Z" fill="#6593C7"/>
<path d="M21.3105 40.2601V46.7456C21.3105 46.7456 23.7268 46.2382 26.9627 46.3448V39.7512C26.9627 39.7512 24.7449 39.525 21.3105 40.2601Z" fill="#6593C7"/>
<path d="M38.3496 32.6841V39.0633C38.3496 39.0633 40.0042 37.7771 42.5049 37.1409V30.9967C42.5049 30.9967 40.5455 31.2806 38.3496 32.6841Z" fill="#6593C7"/>
<path d="M19.0192 54.4006L17.7598 55.183L19.3946 57.8146L20.654 57.0321L19.0192 54.4006Z" fill="#6593C7"/>
<path d="M22.4102 48.9864C22.4433 44.7529 19.0381 41.2942 14.8046 41.2612C10.5711 41.2281 7.11234 44.6333 7.07932 48.8668C7.0463 53.1003 10.4515 56.5591 14.685 56.5921C18.9185 56.6251 22.3772 53.2199 22.4102 48.9864Z" fill="#003672"/>
<path d="M19.233 53.4175C21.7123 50.9382 21.7123 46.9185 19.233 44.4392C16.7537 41.96 12.734 41.96 10.2547 44.4392C7.77547 46.9185 7.77547 50.9382 10.2547 53.4175C12.734 55.8967 16.7537 55.8967 19.233 53.4175Z" fill="#AAE0FE"/>
<path d="M20.1373 45.5787C18.2872 42.6002 14.373 41.6857 11.3945 43.5358L18.0945 54.3213C21.0729 52.4712 21.9875 48.557 20.1373 45.5787Z" fill="#8CCDF5"/>
<path d="M11.9689 44.4611C14.7912 42.7079 18.4529 43.4387 20.4031 46.0544C20.3214 45.8938 20.2338 45.7346 20.1368 45.5787C18.2867 42.6002 14.3725 41.6857 11.394 43.5358C8.41576 45.386 7.50101 49.3002 9.35116 52.2786C9.44815 52.4345 9.55184 52.5836 9.6597 52.728C8.17918 49.8207 9.1465 46.2143 11.9689 44.4611Z" fill="#6593C7"/>
<path d="M20.4036 46.0544C20.3636 45.9757 20.3221 45.8974 20.2787 45.8198C20.2332 45.7389 20.1868 45.6583 20.1373 45.5787C18.2872 42.6002 14.373 41.6857 11.3945 43.5358L11.9692 44.4611C14.7917 42.7077 18.4534 43.4387 20.4036 46.0544Z" fill="#4C77AD"/>
<path d="M20.2305 56.4249L19.0326 57.169C18.6938 57.3795 18.5898 57.8247 18.8002 58.1635L23.9497 66.4531C24.3656 67.1228 25.2457 67.3284 25.9151 66.9123C26.5848 66.4965 26.7904 65.6163 26.3743 64.9469L21.2249 56.6573C21.0144 56.3184 20.5692 56.2144 20.2305 56.4249Z" fill="#003672"/>
<path d="M19.408 57.5916C19.2434 57.6939 19.1928 57.9103 19.295 58.0749L24.3143 66.155C24.4166 66.3196 24.633 66.3701 24.7976 66.2679C24.9622 66.1657 25.0128 65.9492 24.9106 65.7846L19.8913 57.7046C19.7889 57.54 19.5726 57.4894 19.408 57.5916Z" fill="#4C77AD"/>
<path d="M59.6566 5.62207C58.2731 5.62207 57.0201 6.1815 56.1115 7.08609C55.5885 6.83139 55.0013 6.68818 54.3804 6.68818C53.1245 6.68818 52.006 7.27372 51.2807 8.18592C50.929 8.02005 50.5375 7.9247 50.1229 7.9247C48.6193 7.9247 47.4004 9.14363 47.4004 10.6472H64.6821C64.6817 7.87195 62.4318 5.62207 59.6566 5.62207Z" fill="#AAE0FE"/>
<path d="M25.3682 4.30707C24.9164 4.30707 24.4979 4.44774 24.1525 4.68667C23.5257 3.52883 22.3004 2.74243 20.8915 2.74243C18.8448 2.74243 17.1855 4.40169 17.1855 6.44835H27.5095C27.5095 5.26568 26.5507 4.30707 25.3682 4.30707Z" fill="#AAE0FE"/>
<path d="M11.9805 28.9906H15.9047L17.2269 41.1304H16.0326L14.265 31.2408C14.226 31.0692 14.0735 30.9473 13.8975 30.9473C13.6959 30.9473 13.5302 31.106 13.5212 31.3072L13.1747 41.1304H11.9805V28.9906Z" fill="#003672"/>
<path d="M16.145 21.8066H13.1956C12.8205 21.8066 12.5089 22.0954 12.4803 22.4694L11.9805 28.9908H15.9047L16.8549 22.6302C16.9195 22.1964 16.5836 21.8066 16.145 21.8066Z" fill="#E0422D"/>
<path d="M13.9878 20.6667L13.9265 21.9257C13.9107 22.2513 14.1616 22.528 14.4872 22.5439C14.8128 22.5597 15.0894 22.3086 15.1052 21.9832L15.1664 20.7242L13.9878 20.6667Z" fill="#F8C79F"/>
<path d="M13.9375 21.6681C14.1465 21.6433 14.3512 21.5848 14.5428 21.4981C14.7732 21.394 14.9715 21.2521 15.1475 21.0821L15.165 20.7238L13.9861 20.6666L13.9375 21.6681Z" fill="#D9A275"/>
<path d="M12.8969 17.8745C13.2007 17.4697 13.8569 17.3051 14.4073 17.4202C14.8728 17.5176 15.4354 17.8453 15.6273 18.2247C15.7827 18.5318 15.7481 18.9745 15.6835 19.3559C15.7149 19.3487 15.7479 19.3443 15.7825 19.3443C15.9308 19.3449 16.0811 19.4248 16.1065 19.5579C16.1704 19.8947 15.8481 20.1422 15.5894 20.1577C15.5541 20.1626 15.5177 20.1621 15.481 20.1574C15.3005 20.6137 14.982 21.0319 14.4646 21.2233C14.149 21.3401 13.7578 21.3502 13.4846 21.1822C13.2721 21.0516 13.161 20.8361 13.0976 20.6224C13.0434 20.44 13.0169 20.2515 13.0194 20.0628C13.0212 19.9253 13.0381 19.7872 13.0182 19.6511C12.9946 19.4904 12.921 19.3389 12.8586 19.1863C12.6846 18.7602 12.6061 18.2617 12.8969 17.8745Z" fill="#F8C79F"/>
<path d="M14.0622 18.8052C14.1771 18.823 14.3077 18.8801 14.358 18.9798C14.3845 19.0326 14.2997 19.0793 14.2701 19.026C14.2264 18.9473 14.1224 18.9187 14.0332 18.9006C13.9873 18.8912 13.9395 18.8841 13.8923 18.8834C13.8521 18.8828 13.8178 18.9011 13.7792 18.8988C13.76 18.8975 13.7509 18.8817 13.7585 18.8665C13.7986 18.7869 13.9844 18.7933 14.0622 18.8052Z" fill="#003672"/>
<path d="M12.817 18.8828C12.8869 18.794 13.1037 18.7568 13.1781 18.8589C13.2 18.8892 13.1563 18.9283 13.1224 18.9087C13.035 18.8578 12.952 18.8872 12.8692 18.9298C12.838 18.9459 12.7939 18.912 12.817 18.8828Z" fill="#003672"/>
<path d="M14.1627 19.7861C14.1859 19.77 14.218 19.7602 14.2458 19.7527C14.3438 19.7265 14.377 19.8543 14.2869 19.8869C14.234 19.9061 14.1776 19.8878 14.1444 19.8486C14.1263 19.8273 14.1433 19.7997 14.1627 19.7861Z" fill="#DD675B"/>
<path d="M13.0908 19.7477C13.1189 19.7461 13.1319 19.754 13.1511 19.7715C13.1961 19.8119 13.1263 19.8744 13.0813 19.8342C13.0621 19.8168 13.0532 19.8046 13.0549 19.78C13.0561 19.7617 13.0703 19.749 13.0908 19.7477Z" fill="#DD675B"/>
<path d="M14.186 19.5307C14.3142 19.5307 14.3144 19.7093 14.186 19.7093C14.0579 19.7093 14.0577 19.5307 14.186 19.5307Z" fill="#003672"/>
<path d="M13.2071 19.4906C13.327 19.4906 13.3273 19.6577 13.2071 19.6577C13.0873 19.6577 13.0871 19.4906 13.2071 19.4906Z" fill="#003672"/>
<path d="M13.3215 20.0035C13.4504 20.0185 13.4923 19.793 13.503 19.7114C13.5108 19.6518 13.5984 19.6362 13.6219 19.6969C13.6932 19.8815 13.5871 20.2134 13.3215 20.1962C13.182 20.1871 13.187 19.9875 13.3215 20.0035Z" fill="#DD675B"/>
<path d="M14.1656 20.1026C14.178 20.0872 14.1992 20.0693 14.2169 20.0796C14.2235 20.0834 14.2269 20.0901 14.23 20.0966C14.2958 20.2395 14.2492 20.4179 14.1198 20.5199C13.9903 20.622 13.7871 20.6403 13.6376 20.5634C13.531 20.5087 13.5283 20.3988 13.6541 20.3782C13.7831 20.357 13.9022 20.3174 14.0079 20.2462C14.0681 20.2058 14.1218 20.1574 14.1656 20.1026Z" fill="white"/>
<path d="M15.7566 17.1804C14.1356 15.832 13.3182 18.1765 12.9656 18.3821C12.9454 18.3939 12.9246 18.4028 12.9043 18.4138C13.0526 18.4403 13.2036 18.4541 13.3533 18.4543C13.8149 18.4545 14.3248 18.3517 14.7742 18.2465C14.7131 18.862 14.9533 19.4999 15.3684 19.9584C15.4703 19.5552 15.5548 19.4778 15.6545 19.421C15.8245 19.3244 15.9402 19.379 16.0372 19.4718C16.3729 18.9559 16.8638 17.0332 15.7566 17.1804Z" fill="#003672"/>
<path d="M14.6014 16.3945C14.1164 16.2896 13.5914 16.3826 13.1721 16.6478C12.5489 17.0421 12.1997 17.761 11.61 18.2041C11.8024 18.1711 11.9947 18.1383 12.1871 18.1053C11.9925 18.2023 11.798 18.2992 11.6035 18.3962C12.2108 18.495 12.8282 18.5313 13.4428 18.5039C13.8954 18.4838 14.3541 18.4274 14.7705 18.2487C15.1238 18.0969 15.4699 17.8392 15.6562 17.4953C15.8556 17.1276 15.5266 16.8485 15.2355 16.6599C15.0422 16.5347 14.8267 16.4433 14.6014 16.3945Z" fill="#003672"/>
<path d="M11.155 26.1369C10.75 26.1103 10.5433 25.5755 10.5031 25.2789L10.1016 22.2381L10.8894 22.131L11.4275 24.4904L12.5744 22.2091L13.5548 23.4503C13.5548 23.4503 12.1685 26.2035 11.155 26.1369Z" fill="#E0422D"/>
<path d="M10.8913 22.1309L10.6927 21.251C10.6569 21.0926 10.5161 20.98 10.3537 20.98H9.51143C9.38544 20.98 9.2832 21.0822 9.2832 21.2082V21.8374C9.2832 21.94 9.35173 22.03 9.45052 22.0573L10.1035 22.2381L10.8913 22.1309Z" fill="#F8C79F"/>
<path d="M10.451 20.6136L9.92217 22.653L9.36328 22.4567L9.90712 20.5759L10.451 20.6136Z" fill="#A33021"/>
<path d="M6.26562 18.129V20.2672V22.4054L10.5734 20.651C10.7295 20.5874 10.8315 20.4356 10.8315 20.2671C10.8315 20.0985 10.7295 19.9467 10.5734 19.8831L6.26562 18.129Z" fill="#E0422D"/>
<path d="M6.2642 22.4054C6.61721 22.4054 6.90339 21.4481 6.90339 20.2672C6.90339 19.0863 6.61721 18.129 6.2642 18.129C5.91118 18.129 5.625 19.0863 5.625 20.2672C5.625 21.4481 5.91118 22.4054 6.2642 22.4054Z" fill="#A33021"/>
<path d="M10.4089 21.1234H9.66488L9.46094 21.9618H9.80084L9.95565 21.4483L10.2841 21.6711L10.4089 21.1234Z" fill="#F8C79F"/>
<path d="M15.2422 21.9618L18.8914 21.3312L20.4776 17.5696L21.248 17.7764L20.0931 21.768C20.0077 22.0634 19.7865 22.3003 19.4978 22.406L15.7416 23.779L15.2422 21.9618Z" fill="#E0422D"/>
<path d="M21.788 16.0892C21.5598 15.7867 21.0659 16.5203 20.7538 17.0595C20.3254 15.7586 20.4773 17.5696 20.4773 17.5696L21.2478 17.7764C21.2478 17.7764 22.1353 16.5499 21.788 16.0892Z" fill="#F8C79F"/>
<path d="M13.1752 41.1306V42.1684C13.1752 42.1684 7.14202 44.8715 11.9809 41.1306H13.1752Z" fill="#E0422D"/>
<path d="M16.0332 41.1306L16.1784 42.0439C16.1784 42.0439 21.3016 44.4776 17.2275 41.1306H16.0332Z" fill="#E0422D"/>
<path d="M41.0783 12.2785H35.3203V13.9679H41.0783V12.2785Z" fill="#FF9A30"/>
<path d="M43.3011 8.4154L43.1642 8.11684C43.12 8.01478 43.0674 7.92522 43.0165 7.83277C42.9646 7.74213 42.916 7.64514 42.8595 7.5623L42.6938 7.30615C42.6371 7.22367 42.5778 7.1459 42.5196 7.06577C42.4619 6.98456 42.4014 6.90932 42.3401 6.83572C42.2787 6.76249 42.2194 6.68417 42.1559 6.61547L41.967 6.40555C41.8383 6.27194 41.71 6.13743 41.5766 6.01452C41.5106 5.95126 41.4442 5.88908 41.3764 5.83034C41.3088 5.77088 41.2421 5.70961 41.173 5.65341C41.0362 5.53794 40.8975 5.42681 40.7554 5.3204C40.6848 5.26674 40.6125 5.21453 40.5396 5.16305L40.4282 5.08618L40.3094 5.00823C39.9508 4.77221 39.5058 4.94007 39.3145 5.3824C39.1233 5.8249 39.2589 6.37491 39.6175 6.61094L39.6387 6.62489L39.7224 6.68L39.8111 6.74128C39.8707 6.7837 39.9305 6.82648 39.99 6.87198C40.1093 6.96117 40.2269 7.05562 40.3424 7.15315C40.4011 7.20046 40.4568 7.25231 40.5137 7.30216C40.571 7.35165 40.6263 7.4035 40.681 7.45625C40.7929 7.55885 40.8971 7.66943 41.0026 7.77802L41.1545 7.94679C41.2062 8.00208 41.2508 8.06281 41.2996 8.12046C41.348 8.17829 41.3953 8.23666 41.4381 8.29793C41.4818 8.35848 41.5276 8.41776 41.5699 8.47903L41.69 8.66539C41.7174 8.704 41.7395 8.74479 41.7615 8.7854C41.7306 8.83163 41.6986 8.87749 41.6652 8.92317C41.6143 8.99206 41.5679 9.06385 41.5118 9.13092L41.3494 9.33577L41.1776 9.5359C41.1212 9.60352 41.0603 9.66769 41.0003 9.73295C40.9399 9.79767 40.881 9.8642 40.8181 9.92692C40.695 10.0551 40.5688 10.1804 40.4403 10.3036C40.3768 10.3663 40.3105 10.4254 40.2458 10.4865C40.1809 10.5478 40.1147 10.6069 40.0484 10.6662C39.9162 10.7855 39.7813 10.9015 39.6457 11.015L39.4413 11.1836L39.2391 11.3436L39.2215 11.3574C39.0348 11.5048 38.96 11.8032 39.0548 12.0591C39.1586 12.3392 39.4269 12.4621 39.6539 12.334L39.897 12.1966L40.1328 12.0564C40.2895 11.9616 40.4448 11.8646 40.5989 11.7629C40.6761 11.7125 40.7534 11.6621 40.8297 11.6092C40.906 11.5563 40.9834 11.5057 41.0592 11.4506C41.2116 11.3429 41.3632 11.2314 41.5135 11.1152C41.5893 11.0592 41.6634 10.997 41.7381 10.937C41.8128 10.8765 41.8878 10.8172 41.9612 10.7516L42.1828 10.5581L42.4012 10.3513C42.4748 10.2846 42.5451 10.2054 42.6169 10.1316C42.6887 10.0574 42.7603 9.98185 42.8296 9.89647C42.899 9.81163 42.9706 9.73549 43.0382 9.64195L43.2409 9.36151L43.2447 9.35589C43.4106 9.0934 43.4421 8.72304 43.3011 8.4154Z" fill="#E0422D"/>
<path d="M39.7239 6.68001L39.8126 6.74128C39.8722 6.7837 39.932 6.82648 39.9915 6.87199C40.1108 6.96118 40.2284 7.05562 40.3439 7.15315C40.4027 7.20047 40.4583 7.25231 40.5152 7.30217C40.5725 7.35166 40.6278 7.4035 40.6825 7.45625C40.7944 7.55886 40.8986 7.66944 41.0041 7.77803L41.1561 7.9468C41.199 7.99266 41.2371 8.04197 41.2766 8.09037C41.0848 6.99562 40.3077 5.64363 40.3077 5.64363C39.9551 5.60882 39.7771 6.14849 39.6875 6.65626L39.7239 6.68001Z" fill="#A33021"/>
<path d="M33.0892 8.4154L33.2261 8.11684C33.2703 8.01478 33.3229 7.92522 33.3738 7.83277C33.4256 7.74213 33.4742 7.64514 33.5308 7.5623L33.6965 7.30615C33.7532 7.22367 33.8125 7.1459 33.8707 7.06577C33.9283 6.98456 33.9889 6.90932 34.0502 6.83572C34.1116 6.76249 34.1709 6.68417 34.2343 6.61547L34.4232 6.40555C34.5519 6.27194 34.6805 6.13743 34.8137 6.01452C34.8797 5.95126 34.946 5.88908 35.0138 5.83034C35.0815 5.77088 35.1482 5.70961 35.2172 5.65341C35.3541 5.53794 35.4928 5.42681 35.6349 5.3204C35.7054 5.26674 35.7778 5.21453 35.8506 5.16305L35.9619 5.08618L36.0807 5.00823C36.4393 4.77221 36.8843 4.94007 37.0756 5.3824C37.2668 5.8249 37.1312 6.37491 36.7726 6.61094L36.7514 6.62489L36.6677 6.68L36.579 6.74128C36.5194 6.7837 36.4596 6.82648 36.4001 6.87198C36.2808 6.96117 36.1632 7.05562 36.0477 7.15315C35.989 7.20046 35.9333 7.25231 35.8764 7.30216C35.8191 7.35165 35.7638 7.4035 35.7091 7.45625C35.5972 7.55885 35.493 7.66943 35.3875 7.77802L35.2356 7.94679C35.1839 8.00208 35.1393 8.06281 35.0905 8.12046C35.0421 8.17829 34.9948 8.23666 34.952 8.29793C34.9083 8.35848 34.8625 8.41776 34.8202 8.47903L34.7001 8.66539C34.6727 8.704 34.6506 8.74479 34.6286 8.7854C34.6594 8.83163 34.6915 8.87749 34.7249 8.92317C34.7758 8.99206 34.8222 9.06385 34.8783 9.13092L35.0407 9.33577L35.2125 9.5359C35.2691 9.60352 35.3298 9.66769 35.3898 9.73295C35.4502 9.79767 35.5091 9.8642 35.572 9.92692C35.6951 10.0551 35.8213 10.1804 35.95 10.3036C36.0134 10.3663 36.0798 10.4254 36.1445 10.4865C36.2092 10.5478 36.2756 10.6069 36.3419 10.6662C36.4741 10.7855 36.6088 10.9015 36.7445 11.015L36.949 11.1836L37.1512 11.3436L37.1687 11.3574C37.3555 11.5048 37.4303 11.8032 37.3355 12.0591C37.2316 12.3392 36.9633 12.4621 36.7364 12.334L36.4933 12.1966L36.2574 12.0564C36.1008 11.9616 35.9455 11.8646 35.7914 11.7629C35.7141 11.7125 35.6369 11.6621 35.5606 11.6092C35.4843 11.5563 35.4069 11.5057 35.3311 11.4506C35.1786 11.3429 35.0271 11.2314 34.8768 11.1152C34.801 11.0592 34.7269 10.997 34.6522 10.937C34.5775 10.8765 34.5025 10.8172 34.429 10.7516L34.2075 10.5581L33.9891 10.3513C33.9155 10.2846 33.8451 10.2054 33.7733 10.1316C33.7016 10.0574 33.63 9.98185 33.5607 9.89647C33.4913 9.81163 33.4197 9.73549 33.352 9.64195L33.1494 9.36151L33.1456 9.35589C32.9799 9.0934 32.9482 8.72304 33.0892 8.4154Z" fill="#E0422D"/>
<path d="M36.6679 6.68001L36.5793 6.74128C36.5196 6.7837 36.4598 6.82648 36.4003 6.87199C36.2811 6.96118 36.1634 7.05562 36.0479 7.15315C35.9892 7.20047 35.9335 7.25231 35.8766 7.30217C35.8193 7.35166 35.764 7.4035 35.7093 7.45625C35.5974 7.55886 35.4932 7.66944 35.3877 7.77803L35.2358 7.9468C35.193 7.99266 35.1548 8.04197 35.1152 8.09037C35.307 6.99562 36.0842 5.64363 36.0842 5.64363C36.4368 5.60882 36.6148 6.14849 36.7043 6.65626L36.6679 6.68001Z" fill="#A33021"/>
<path d="M39.8832 4.89459H36.4485C36.1813 4.89459 35.9648 5.11122 35.9648 5.37825V11.3821H40.3671V5.37825C40.3669 5.11122 40.1504 4.89459 39.8832 4.89459Z" fill="#E0422D"/>
<path d="M37.5703 3.961V5.0262C37.5703 5.36683 37.8464 5.64292 38.187 5.64292C38.5277 5.64292 38.8039 5.36683 38.8039 5.0262V3.961H37.5703Z" fill="#F8C79F"/>
<path d="M37.5703 4.36852C37.6626 4.4481 37.7608 4.52116 37.8647 4.58497C38.0456 4.69591 38.242 4.78148 38.447 4.83658C38.5621 4.86758 38.6857 4.8868 38.8039 4.87792V3.961H37.5703V4.36852Z" fill="#D9A275"/>
<path d="M41.511 7.83277C41.511 7.38084 41.1446 7.01465 40.6928 7.01465H35.8142C35.3625 7.01465 34.9961 7.38102 34.9961 7.83277L35.0313 11.8626H41.5461L41.511 7.83277Z" fill="#002854"/>
<path d="M38.2539 9.9659C38.6035 9.9659 38.8868 9.68256 38.8868 9.33305C38.8868 8.98353 38.6035 8.7002 38.2539 8.7002C37.9044 8.7002 37.6211 8.98353 37.6211 9.33305C37.6211 9.68256 37.9044 9.9659 38.2539 9.9659Z" fill="white"/>
<path d="M41.7595 11.8629H34.8477V12.6775H41.7595V11.8629Z" fill="#002854"/>
<path d="M42.2658 12.7397C42.489 13.1555 42.3501 13.6575 41.9756 13.9069C41.9098 13.9508 41.8362 13.9813 41.761 14.0059L36.7237 15.657L36.2305 14.5757L41.0805 12.3635C41.5137 12.1661 42.0409 12.3204 42.2658 12.7397Z" fill="#FFBB45"/>
<path d="M38.8764 13.3689L36.2305 14.5759L36.7237 15.6572L41.0786 14.2296L38.8764 13.3689Z" fill="#FF9A30"/>
<path d="M34.0252 12.7397C33.802 13.1555 33.9409 13.6575 34.3154 13.9069C34.3812 13.9508 34.4548 13.9813 34.53 14.0059L39.5673 15.657L40.0606 14.5757L35.2104 12.3635C34.7773 12.1661 34.2503 12.3204 34.0252 12.7397Z" fill="#FFBB45"/>
<path d="M40.0614 14.5759H42.3742C42.3742 14.5759 42.4049 15.6572 41.2026 15.6572C40.0003 15.6572 39.5684 15.6572 39.5684 15.6572L40.0614 14.5759Z" fill="#E0422D"/>
<path d="M36.2308 14.5759H33.918C33.918 14.5759 33.8874 15.6572 35.0897 15.6572C36.2919 15.6572 36.7239 15.6572 36.7239 15.6572L36.2308 14.5759Z" fill="#E0422D"/>
<path d="M39.8406 2.0744C40.2805 2.12334 40.6915 1.66289 40.6359 1.18322C40.603 0.900243 40.4346 0.646632 40.2224 0.475321C40.0101 0.304011 39.7566 0.206301 39.5025 0.13687C38.4268 -0.157711 37.2604 0.0286459 36.3313 0.64355C36.3255 1.23181 36.2918 1.86756 36.4457 2.4366C36.5996 3.00582 36.9388 3.55111 37.4392 3.7866C37.9281 4.01664 38.5078 3.91132 38.9373 3.59317C39.3669 3.27502 39.6814 2.61715 39.8406 2.0744Z" fill="#003672"/>
<path d="M36.6037 1.72035C36.9217 2.28432 36.6969 3.01288 36.9199 3.6209C37.1021 4.11797 37.6013 4.4818 38.1301 4.50319C38.6591 4.52458 39.1859 4.20245 39.4078 3.72169C39.5753 3.35877 39.5735 2.94418 39.5805 2.54445C39.5876 2.14473 39.6128 1.72543 39.8233 1.38553C39.8909 1.27621 39.7566 1.11397 39.6598 1.02949C39.563 0.945013 39.4415 0.894255 39.3199 0.852741C38.629 0.61762 37.8517 0.647713 37.1811 0.935406C37.0239 1.00284 36.8702 1.08551 36.7498 1.20696C36.6295 1.32842 36.5198 1.57134 36.6037 1.72035Z" fill="#F8C79F"/>
<path d="M37.5708 2.58978C37.4426 2.58978 37.4425 2.76834 37.5708 2.76834C37.699 2.76834 37.6991 2.58978 37.5708 2.58978Z" fill="#003672"/>
<path d="M38.8032 2.58978C38.6751 2.58978 38.6749 2.76834 38.8032 2.76834C38.9314 2.76834 38.9316 2.58978 38.8032 2.58978Z" fill="#003672"/>
<path d="M37.3551 3.13655C37.4552 3.13655 37.5364 3.08663 37.5364 3.02506C37.5364 2.96349 37.4552 2.91357 37.3551 2.91357C37.255 2.91357 37.1738 2.96349 37.1738 3.02506C37.1738 3.08663 37.255 3.13655 37.3551 3.13655Z" fill="#DD675B"/>
<path d="M39.0133 3.13655C39.1134 3.13655 39.1946 3.08663 39.1946 3.02506C39.1946 2.96349 39.1134 2.91357 39.0133 2.91357C38.9132 2.91357 38.832 2.96349 38.832 3.02506C38.832 3.08663 38.9132 3.13655 39.0133 3.13655Z" fill="#DD675B"/>
<path d="M38.3806 3.29404C38.2517 3.30927 38.2098 3.08358 38.1991 3.002C38.1913 2.94236 38.1038 2.92677 38.0802 2.9875C38.009 3.17204 38.115 3.50397 38.3806 3.48675C38.5204 3.47768 38.5151 3.27809 38.3806 3.29404Z" fill="#DD675B"/>
<path d="M38.0051 3.87724C37.9184 3.87724 37.8316 3.85186 37.7591 3.80454C37.6677 3.7449 37.5994 3.65009 37.5718 3.54441C37.5655 3.52011 37.58 3.49528 37.6041 3.48912C37.6282 3.48223 37.653 3.49709 37.6594 3.52138C37.6815 3.60568 37.7359 3.68109 37.8086 3.72877C37.8814 3.77663 37.9724 3.79657 38.0584 3.78261C38.0819 3.77916 38.1062 3.79548 38.1102 3.8205C38.114 3.84515 38.0972 3.86835 38.0725 3.87234C38.0504 3.87561 38.0277 3.87724 38.0051 3.87724Z" fill="#DD675B"/>
<path d="M37.2015 2.24697C37.1932 2.24697 37.1847 2.24462 37.1771 2.23972C37.156 2.22613 37.1499 2.19821 37.1635 2.177C37.1657 2.17355 37.3903 1.8342 37.7737 1.931C37.798 1.93716 37.8126 1.96182 37.8065 1.98611C37.8003 2.01022 37.7758 2.02508 37.7514 2.01892C37.4301 1.93771 37.2418 2.22304 37.2398 2.22613C37.2311 2.23972 37.2164 2.24697 37.2015 2.24697Z" fill="#003672"/>
<path d="M39.1823 2.24696C39.1675 2.24696 39.1528 2.23971 39.1443 2.2263C39.1365 2.21433 38.9525 1.93788 38.6327 2.01891C38.608 2.02508 38.5837 2.01039 38.5776 1.9861C38.5714 1.96181 38.5861 1.93715 38.6104 1.93099C38.9945 1.83401 39.2184 2.17354 39.2206 2.17699C39.234 2.19802 39.228 2.22594 39.207 2.23953C39.1992 2.24461 39.1907 2.24696 39.1823 2.24696Z" fill="#003672"/>
<path d="M39.5917 2.41465C39.6454 2.35356 39.7407 2.32057 39.8102 2.36281C39.8769 2.40341 39.8939 2.49261 39.8923 2.57074C39.8883 2.7667 39.8065 2.95995 39.6689 3.09935C39.6367 3.13216 39.5948 3.16407 39.5495 3.15682C39.4889 3.14721 39.4608 3.07651 39.4516 3.01578C39.4239 2.83414 39.4652 2.55895 39.5917 2.41465Z" fill="#F8C79F"/>
<path d="M36.7811 2.41472C36.7275 2.35362 36.6321 2.32063 36.5627 2.36287C36.496 2.40348 36.4789 2.49267 36.4806 2.5708C36.4846 2.76676 36.5663 2.96001 36.7039 3.09941C36.7362 3.13222 36.7781 3.16413 36.8234 3.15688C36.8841 3.14727 36.912 3.07657 36.9213 3.01584C36.949 2.8342 36.9077 2.55902 36.7811 2.41472Z" fill="#F8C79F"/>
<path d="M36.7313 2.69766C36.9924 2.28797 37.1588 1.81827 37.2139 1.33552C37.9426 1.75772 38.7801 1.97906 39.6211 1.93447C39.7424 1.92812 40.1263 1.15641 39.9837 1.02335C39.5769 0.644292 38.9973 0.517033 38.4433 0.470625C38.0441 0.437089 37.6328 0.438901 37.2547 0.571236C36.8765 0.70339 36.5332 0.984375 36.4099 1.36561C36.3071 1.68321 36.3648 2.03037 36.4599 2.35033C36.5029 2.49463 36.585 2.66086 36.7313 2.69766Z" fill="#003672"/>
<path d="M39.3412 1.79196C39.3296 2.07839 39.3923 2.36735 39.5218 2.62314C39.6836 2.43859 39.8044 2.21761 39.862 1.97905C39.8812 1.89946 39.8932 1.81172 39.8562 1.73867C39.8136 1.65473 39.7114 1.61123 39.618 1.62265C39.5245 1.63407 39.3989 1.71764 39.3412 1.79196Z" fill="#003672"/>
<path d="M35.7072 53.1316L38.732 66.101L38.0026 66.3191L33.7891 56.2065C33.7891 56.2065 33.9894 52.2919 35.7072 53.1316Z" fill="#003672"/>
<path d="M34.3809 57.6261L35.633 60.6308L35.1236 54.108L34.3809 57.6261Z" fill="#002854"/>
<path d="M33.2089 53.1218C33.2089 53.1218 32.2365 54.1346 32.4297 57.2965C32.623 60.4584 33.3111 66.6452 33.3111 66.6452H34.2938L35.1747 53.3379C35.1747 53.3379 33.5769 52.4725 33.2089 53.1218Z" fill="#003672"/>
<path d="M35.4219 48.3701C36.0573 49.9186 35.6877 51.5139 35.7076 53.1316C34.6791 53.397 34.221 53.4197 33.2089 53.122C33.2741 52.098 33.1202 51.0632 32.791 50.0673C33.3048 49.2586 34.2521 48.6014 35.4219 48.3701Z" fill="#E0422D"/>
<path d="M35.3933 49.7493C35.9955 50.2007 36.2956 50.388 37.0758 50.6815C38.2001 50.2609 39.7883 49.0886 39.9174 48.6152C39.954 48.4809 39.9727 48.337 39.8934 48.2115C39.7756 48.025 39.4305 47.9253 39.1558 47.9985C38.8814 48.0718 38.722 48.3058 38.8155 48.4988C38.8777 48.6268 39.0458 48.7858 38.9479 48.9027C38.5909 49.3284 37.5834 49.5416 37.0789 49.8885C36.5312 49.6362 36.441 49.5031 36.0287 49.1484C35.981 49.1072 35.9214 49.0614 35.8454 49.0652C35.8028 49.0672 35.7655 49.0851 35.7323 49.1036C35.464 49.2535 35.365 49.5115 35.3933 49.7493Z" fill="#F8C79F"/>
<path d="M34.4062 47.6657C34.7916 47.7144 35.3507 48.011 36.2292 49.2181C35.9993 49.4513 35.7372 49.7013 35.5075 49.9344C35.0662 49.6608 34.6966 49.2992 34.396 48.9007C34.2552 48.714 34.1292 48.5063 34.1201 48.2809C34.1112 48.0556 34.1587 47.6343 34.4062 47.6657Z" fill="#E0422D"/>
<path d="M35.8991 49.5903L34.75 48.7162L35.4668 49.9096L35.8991 49.5903Z" fill="#A33021"/>
<path d="M34.4061 47.6656L33.638 47.4325L32.9984 47.5975L32.8242 50.0312L33.8376 50.9028L35.6337 50.2338L34.4061 47.6656Z" fill="#E0422D"/>
<path d="M33.7219 48.3701C34.2032 48.857 34.6067 49.6016 34.7492 50.3051C34.5041 50.4037 34.0792 50.666 33.8163 50.7153C33.7846 50.7213 33.7485 50.726 33.7223 50.709C33.7032 50.6967 33.6942 50.6756 33.6865 50.6557C33.5509 50.2984 33.5877 49.9074 33.6637 49.5361C33.7395 49.1649 33.7083 48.7474 33.7219 48.3701Z" fill="#A33021"/>
<path d="M33.3262 46.6267C33.4351 46.9331 33.4349 47.2494 33.4478 47.6294C33.6208 47.9651 34.1689 48.2813 34.4046 48.2809C34.2099 47.8393 34.3437 46.9538 34.4046 46.5819C33.9958 46.5774 33.7359 46.5395 33.3262 46.6267Z" fill="#F8C79F"/>
<path d="M33.3359 46.6599C33.3677 46.756 33.3894 46.8534 33.4045 46.9534C33.6236 47.2739 33.9369 47.5342 34.304 47.7075C34.2951 47.3678 34.3406 46.9955 34.3796 46.7373C34.2603 46.6784 34.1423 46.6231 34.0185 46.572C33.8011 46.5666 33.601 46.5706 33.343 46.6237C33.3408 46.6355 33.3383 46.6478 33.3359 46.6599Z" fill="#D9A275"/>
<path d="M32.3599 43.083C32.0358 43.0978 31.7436 43.2985 31.5945 43.5572C31.4457 43.8159 31.4267 44.1231 31.4881 44.409C31.5496 44.6949 31.6861 44.9632 31.8364 45.2212C31.927 45.3771 32.0262 45.5527 31.9674 45.7206C31.9239 45.8448 31.7952 45.9369 31.6535 45.9641C31.5117 45.9912 31.3605 45.9586 31.2363 45.8914C31.2565 46.0121 31.3485 46.1165 31.462 46.1839C31.5757 46.2514 31.7093 46.286 31.8429 46.3101C32.0845 46.3538 32.3556 46.3603 32.5559 46.2316C32.7308 46.1191 32.8155 45.9271 32.8798 45.7427C33.0326 45.3051 33.1206 44.8495 33.1423 44.3914C33.1579 44.0619 33.2183 43.6217 32.9786 43.3436C32.8332 43.1749 32.5992 43.0719 32.3599 43.083Z" fill="#003672"/>
<path d="M33.1434 44.3914C33.1544 44.1582 33.1858 43.8709 33.1196 43.6236C33.0667 43.5861 33.0063 43.5582 32.9449 43.548C32.4859 43.7454 32.1777 44.1965 32.1898 44.6528C32.1958 44.8765 32.2714 45.0931 32.3323 45.3101C32.3934 45.5271 32.4404 45.7544 32.3887 45.9734C32.3564 46.1106 32.2769 46.2442 32.1621 46.3372C32.3042 46.3338 32.442 46.3053 32.5566 46.2317C32.7315 46.1191 32.8162 45.927 32.8805 45.7428C33.0337 45.305 33.1216 44.8493 33.1434 44.3914Z" fill="#002854"/>
<path d="M35.6719 46.6804C35.6786 46.6597 35.5409 46.4955 35.5247 46.4661C35.4816 46.3873 35.4473 46.3046 35.4218 46.2198C35.3706 46.0501 35.355 45.8715 35.3766 45.6968C35.3862 45.6188 35.4528 45.2608 35.5907 45.4587C35.6971 45.6117 35.7294 45.8492 35.7453 46.0249C35.7651 46.245 35.7412 46.4685 35.6719 46.6804Z" fill="#003672"/>
<path d="M32.7499 43.6098C32.614 43.7449 32.5469 43.9293 32.5469 44.1113C32.5469 44.1947 32.5639 44.2848 32.6308 44.3426C32.697 44.3997 32.8003 44.412 32.8888 44.3895C32.9772 44.3672 33.0525 44.3148 33.1174 44.2567C33.2323 44.1535 33.3211 44.0284 33.3862 43.8948C33.4252 43.8145 33.4564 43.7282 33.4497 43.6408C33.4429 43.5536 33.3797 43.4327 33.2729 43.4152C33.1563 43.3959 33.0168 43.4387 32.9171 43.4898C32.8547 43.5214 32.798 43.5622 32.7499 43.6098Z" fill="#E0422D"/>
<path d="M32.5607 45.5127C32.728 45.9869 33.0759 46.3968 33.4831 46.7345C33.5402 46.5346 33.5253 46.3245 33.5068 46.1187C33.4818 45.8412 33.4506 45.5642 33.4136 45.2877C33.3817 45.0501 33.3449 44.811 33.2548 44.5856C33.1883 44.4194 32.93 43.9932 32.6709 44.1908C32.5629 44.2731 32.5277 44.4504 32.5 44.5684C32.4652 44.7169 32.4532 44.8693 32.4615 45.0207C32.4708 45.1877 32.5045 45.3534 32.5607 45.5127Z" fill="#003672"/>
<path d="M35.6107 44.0199C35.3187 43.6309 34.688 43.4726 34.159 43.5832C33.7118 43.6768 33.1711 43.9916 32.9865 44.3564C32.8371 44.6515 32.8705 45.077 32.9325 45.4435C32.9022 45.4365 32.8707 45.4323 32.8373 45.4325C32.6948 45.433 32.5663 45.5139 32.5259 45.6379C32.5161 45.6678 32.5127 45.6977 32.5123 45.7272C32.5063 45.7492 32.5021 45.7718 32.502 45.7959C32.5009 46.0127 32.7739 46.1995 33.0226 46.2145C33.0567 46.2192 33.0915 46.2187 33.1268 46.2141C33.3003 46.6527 33.6065 47.0547 34.1038 47.2386C34.407 47.3508 34.783 47.3604 35.0457 47.199C35.2498 47.0736 35.3566 46.8666 35.4177 46.661C35.4699 46.4857 35.4951 46.3046 35.4929 46.1231C35.4913 45.9912 35.475 45.8583 35.4942 45.7274C35.5167 45.573 35.5875 45.4276 35.6475 45.2806C35.8149 44.8714 35.8903 44.3923 35.6107 44.0199Z" fill="#F8C79F"/>
<path d="M34.4883 44.915C34.3779 44.932 34.2523 44.9869 34.2041 45.0828C34.1785 45.1334 34.2603 45.1784 34.2888 45.1272C34.3308 45.0516 34.4309 45.0241 34.5166 45.0067C34.5607 44.9976 34.6067 44.9909 34.652 44.9902C34.6907 44.9896 34.7237 45.0072 34.7608 45.0049C34.7793 45.0038 34.788 44.9886 34.7806 44.9739C34.7418 44.8972 34.5632 44.9033 34.4883 44.915Z" fill="#003672"/>
<path d="M35.6867 44.9893C35.6194 44.9039 35.4109 44.8682 35.3397 44.9662C35.3185 44.9952 35.3607 45.0329 35.3932 45.0141C35.4771 44.9651 35.5571 44.9934 35.6366 45.0342C35.6666 45.0498 35.7088 45.0172 35.6867 44.9893Z" fill="#003672"/>
<path d="M34.3946 45.8574C34.3723 45.842 34.3415 45.8325 34.3148 45.8253C34.2205 45.8001 34.1886 45.9228 34.2753 45.9542C34.3262 45.9727 34.3802 45.9551 34.4123 45.9174C34.4296 45.8969 34.4134 45.8702 34.3946 45.8574Z" fill="#DD675B"/>
<path d="M35.4236 45.8204C35.3965 45.819 35.384 45.8266 35.3655 45.8433C35.3222 45.8821 35.3895 45.9422 35.4326 45.9035C35.4511 45.8868 35.4596 45.8752 35.458 45.8514C35.4567 45.8338 35.4431 45.8215 35.4236 45.8204Z" fill="#DD675B"/>
<path d="M34.3697 45.6118C34.2466 45.6118 34.2465 45.7834 34.3697 45.7834C34.4928 45.7834 34.493 45.6118 34.3697 45.6118Z" fill="#003672"/>
<path d="M35.3131 45.5733C35.1978 45.5733 35.1976 45.7339 35.3131 45.7339C35.4282 45.7339 35.4284 45.5733 35.3131 45.5733Z" fill="#003672"/>
<path d="M35.202 46.0661C35.0782 46.0806 35.0377 45.8638 35.0276 45.7854C35.02 45.7282 34.9359 45.7133 34.9134 45.7715C34.8449 45.9488 34.9467 46.2678 35.2022 46.2513C35.3361 46.2428 35.3312 46.051 35.202 46.0661Z" fill="#DD675B"/>
<path d="M34.3911 46.1614C34.3791 46.1465 34.3588 46.1293 34.3418 46.1392C34.3356 46.1429 34.3321 46.1494 34.3292 46.1556C34.2662 46.293 34.3108 46.4643 34.4351 46.5624C34.5597 46.6604 34.7547 46.678 34.8985 46.6042C35.0009 46.5517 35.0036 46.446 34.8825 46.4262C34.7583 46.4059 34.644 46.3678 34.5424 46.2995C34.4848 46.2605 34.4333 46.2141 34.3911 46.1614Z" fill="white"/>
<path d="M32.9397 45.4526C32.9329 45.8104 33.1073 46.413 33.3435 46.7014C33.5394 46.4694 33.5032 45.9016 33.334 45.6531C33.7619 45.4973 34.1828 45.317 34.551 45.0672C34.9192 44.8174 35.2344 44.493 35.403 44.1075C35.5855 44.3493 35.7068 44.6339 35.761 44.9218C36.3476 44.5063 36.2318 43.3294 35.3513 43.4679C34.6494 42.8769 33.8141 43.0738 33.3609 43.3403C32.9078 43.6068 32.5897 44.0524 32.5145 44.5335C32.4603 44.8817 32.6167 45.2537 32.9397 45.4526Z" fill="#003672"/>
<path d="M31.9358 54.108C31.9358 54.108 33.1319 54.677 34.2947 54.501C34.433 55.7816 34.2684 56.8219 33.7903 56.8219C33.3123 56.8219 31.8398 56.5817 31.8398 56.5817C31.8398 56.5817 30.8472 56.4769 31.9358 54.108Z" fill="#6593C7"/>
<path d="M34.2445 55.0829L34.1136 55.0716C34.119 55.0098 34.6569 48.8746 33.4853 47.8037C33.3526 47.6825 33.2066 47.6359 33.0393 47.6607C32.4048 47.7553 32.277 50.0422 32.1645 52.0598C32.1041 53.1406 32.0472 54.1614 31.9206 54.8956L31.791 54.8744C31.9163 54.1473 31.973 53.1299 32.0332 52.0528C32.1597 49.7857 32.2792 47.6444 33.0194 47.534C33.2251 47.503 33.4131 47.5623 33.575 47.7102C34.793 48.8234 34.2675 54.8276 34.2445 55.0829Z" fill="#6593C7"/>
<path d="M33.0078 49.5205C33.0408 50.186 33.2504 50.953 33.5921 51.5447C34.6335 51.5505 36.2165 50.9064 37.3281 49.0724C37.4784 49.1833 37.8045 49.3336 37.9863 49.2712C38.1682 49.2089 38.3096 49.0655 38.3703 48.8996C38.418 48.7694 38.4165 48.621 38.3434 48.5006C38.2702 48.3804 38.1185 48.2959 37.9666 48.3112C38.1183 48.2669 38.255 48.1997 38.4067 48.1556C38.2771 47.9272 37.9091 47.8881 37.6539 48.0035C37.3988 48.119 37.2442 48.3512 37.0609 48.5479C36.2063 49.4643 35.5443 49.7126 34.174 50.4084C34.0076 49.8586 33.9209 49.3582 33.8879 48.8059C33.5859 48.7312 33.1965 49.2962 33.0078 49.5205Z" fill="#F8C79F"/>
<path d="M33.5099 47.8362C33.3963 47.6885 33.1974 47.5792 32.9982 47.5975C32.7235 47.6225 32.5624 47.8873 32.4977 48.1281C32.3751 48.584 32.4248 49.0662 32.5602 49.519C32.6956 49.9719 32.9139 50.401 33.132 50.8272C33.5108 50.5735 33.9354 50.3729 34.3864 50.2456C34.2711 49.8482 34.0977 48.6007 33.5099 47.8362Z" fill="#E0422D"/>
<path d="M42.6848 46.1699H39.1389C39.0847 46.1699 39.0362 46.203 39.0164 46.2534L38.0542 48.7025C38.0203 48.789 38.0839 48.8824 38.1767 48.8824H41.7226C41.7768 48.8824 41.8253 48.8492 41.8451 48.7988L42.8073 46.3497C42.8414 46.2632 42.7776 46.1699 42.6848 46.1699Z" fill="#003672"/>
<path d="M36.393 48.4792H41.7228V48.8824H36.393C36.2817 48.8824 36.1914 48.7921 36.1914 48.6808C36.1914 48.5695 36.2817 48.4792 36.393 48.4792Z" fill="#003672"/>
<path d="M41.1732 47.3215H40.1058C40.0839 47.3215 40.0641 47.3353 40.0569 47.356L39.9718 47.5944C39.9597 47.6283 39.9849 47.6638 40.0208 47.6638H41.0882C41.1101 47.6638 41.1297 47.65 41.1371 47.6293L41.2221 47.391C41.2343 47.3572 41.2093 47.3215 41.1732 47.3215Z" fill="#FFEDCC"/>
<path d="M33.3105 66.6454V67.6542C33.3105 67.79 33.4333 67.8998 33.5846 67.8998H34.3038C34.5173 67.8998 34.6694 67.7139 34.6051 67.5311L34.2931 66.6452H33.3105V66.6454Z" fill="#F8C79F"/>
<path d="M38.002 66.319L38.1995 67.2728H40.7884C41.0348 67.2728 41.1015 66.9684 40.8733 66.885L38.7314 66.1011L38.002 66.319Z" fill="#F8C79F"/>
<path d="M38.1989 67.2726H40.7877C41.0341 67.2726 41.1008 66.9682 40.8726 66.8849L39.8873 66.5243C39.6372 66.9345 38.6514 66.8285 38.0859 66.7286L38.1989 67.2726Z" fill="#E0422D"/>
<path d="M34.304 67.9C34.5175 67.9 34.6696 67.714 34.6053 67.5313L34.505 67.2466C33.9075 67.425 33.5292 67.3536 33.3105 67.2548V67.6543C33.3105 67.7901 33.4333 67.9 33.5846 67.9H34.304Z" fill="#E0422D"/>
<path d="M32.4022 55.3015C32.3547 55.361 32.3442 55.4422 32.3486 55.5182C32.352 55.5782 32.3679 55.6442 32.4178 55.6779C32.4501 55.6996 32.4907 55.7038 32.5295 55.7069C32.6263 55.7145 32.7233 55.7196 32.8204 55.7217C32.8697 55.723 32.9228 55.7223 32.9633 55.694C33.0166 55.6567 33.03 55.5845 33.0392 55.52C33.0467 55.4672 33.0534 55.4103 33.0278 55.3635C32.9943 55.3023 32.917 55.2801 32.8473 55.2765C32.7599 55.2718 32.6912 55.262 32.6078 55.2414C32.5349 55.2234 32.451 55.2406 32.4022 55.3015Z" fill="#FFBB45"/>
</svg>
