<svg width="18" height="14" viewBox="0 0 18 14" fill="none" xmlns="http://www.w3.org/2000/svg">
<path d="M2.9225 6.86003L0.1425 9.65003C-0.0475 9.85003 -0.0475 10.16 0.1425 10.36L2.9225 13.15C3.2325 13.47 3.7725 13.24 3.7725 12.8V11H9.7825C10.3325 11 10.7825 10.55 10.7825 10C10.7825 9.45003 10.3325 9.00003 9.7825 9.00003H3.7725V7.21003C3.7725 6.76003 3.2325 6.54003 2.9225 6.86003ZM17.4325 3.65003L14.6525 0.860027C14.3425 0.540027 13.8025 0.770027 13.8025 1.21003V3.00003H7.7825C7.2325 3.00003 6.7825 3.45003 6.7825 4.00003C6.7825 4.55003 7.2325 5.00003 7.7825 5.00003H13.7925V6.79003C13.7925 7.24003 14.3325 7.46003 14.6425 7.14003L17.4225 4.35003C17.6225 4.16003 17.6225 3.84003 17.4325 3.65003Z" fill="#010101"/>
</svg>
