<svg width="207" height="151" viewBox="0 0 207 151" fill="none" xmlns="http://www.w3.org/2000/svg">
<g clip-path="url(#clip0_648_29925)">
<mask id="mask0_648_29925" style="mask-type:luminance" maskUnits="userSpaceOnUse" x="0" y="-22" width="217" height="218">
<path d="M216.38 -21.0001H0V195.38H216.38V-21.0001Z" fill="white"/>
</mask>
<g mask="url(#mask0_648_29925)">
<path d="M198.17 87.4835H179.393V119.625H198.17V87.4835Z" fill="#FF5757"/>
<path d="M226.023 29.6715V55.3428H208.526V87.4839H179.393V119.625H126.834V93.958H156.127V61.8126H185.257V29.6715H226.023Z" fill="#FF5757" fill-opacity="0.4"/>
</g>
<mask id="mask1_648_29925" style="mask-type:luminance" maskUnits="userSpaceOnUse" x="0" y="-22" width="217" height="218">
<path d="M216.38 -21.0001H0V195.38H216.38V-21.0001Z" fill="white"/>
</mask>
<g mask="url(#mask1_648_29925)">
<path d="M62.2306 133.56H50.4336V158.193H62.2306V133.56Z" fill="#FF5757" fill-opacity="0.2"/>
<path d="M74.4513 113.891H62.6543V133.564H74.4513V113.891Z" fill="#FF5757"/>
<path d="M62.6549 113.891V133.56H50.4337V158.193H26.342V182.821H2.25459V197.617H-16.9902V163.152H7.10583V138.519H31.1976V113.891H62.6549Z" fill="#FF5757"/>
<path d="M62.6543 106.413L86.5556 123.728L62.6543 141.038V133.56V113.891V106.413Z" fill="#FF5757"/>
<path d="M62.6543 106.413H74.4513L98.3527 123.728H86.5556L62.6543 106.413Z" fill="#FF5757" fill-opacity="0.4"/>
<path d="M86.5556 123.728H98.3527L74.4513 141.038H62.6543L86.5556 123.728Z" fill="#FF5757" fill-opacity="0.2"/>
</g>
<path d="M66.926 44.2469C66.926 44.2469 64.2343 46.4973 63.9357 46.8738C63.6414 47.2546 64.3208 48.6092 65.0219 48.6524C65.7229 48.6957 68.2589 46.9127 68.2589 46.9127L66.926 44.2469Z" fill="#F2B096"/>
<path d="M65.8567 48.7997C65.5884 49.8383 64.8311 50.8033 63.7968 51.1279C63.6886 51.1625 63.5804 51.1885 63.4765 51.2361C63.351 51.2967 63.2385 51.3832 63.1044 51.4265C62.9702 51.4655 62.8014 51.4395 62.7365 51.314C62.6889 51.2188 62.7235 51.102 62.7798 51.0154C62.9529 50.7471 63.2948 50.6562 63.5328 50.4485C63.6323 50.3619 63.7145 50.2537 63.7708 50.1326C63.7924 50.0893 63.8141 50.033 63.7881 49.9898C63.6713 49.7907 62.7668 50.0893 61.9316 50.7255C61.7325 50.8769 61.4209 51.1712 61.2392 51.34C61.0574 51.5131 61.0055 51.578 60.7545 51.5823C60.7025 51.5823 60.6419 51.5737 60.6073 51.5304C60.5727 51.4785 60.59 51.4092 60.6117 51.353C60.9103 50.5523 61.581 49.9551 62.2258 49.3969C61.6719 49.7388 61.1137 50.0763 60.5597 50.4182C60.3607 50.5394 60.1616 50.6649 59.9409 50.7384C59.8154 50.7817 59.6466 50.799 59.5471 50.6908C59.4216 50.5523 59.586 50.336 59.6985 50.2494C59.6077 50.2364 59.5471 50.1412 59.5471 50.046C59.5471 49.9551 59.5903 49.8686 59.6423 49.795C59.7808 49.5873 59.9798 49.4228 60.1659 49.2584C60.3607 49.0896 60.5597 48.9252 60.7631 48.7651C60.5294 48.8776 60.2957 48.9901 60.0447 49.0377C59.9928 49.0463 59.9366 49.055 59.8846 49.042C59.8327 49.029 59.7851 48.9858 59.7764 48.9338C59.7548 48.8127 59.9279 48.7001 60.0101 48.6352C60.1443 48.5357 60.2871 48.4361 60.4256 48.3409C61.1742 47.8433 61.9878 47.4495 62.8231 47.1249C63.5025 46.8566 64.3853 46.3719 65.0777 46.8263C65.3937 47.034 65.6144 47.3586 65.7788 47.7005C65.8783 47.9039 65.9562 48.1246 65.9303 48.3496C65.9216 48.5011 65.8913 48.6525 65.8567 48.7997Z" fill="#F2B096"/>
<path d="M59.763 50.215C60.0832 49.9077 60.4684 49.6611 60.8362 49.4144C61.2084 49.1634 61.5892 48.9167 61.9744 48.6787C62.0566 48.6268 62.1388 48.5748 62.2211 48.5272C62.2817 48.4883 62.2254 48.3931 62.1648 48.432C61.5027 48.8388 60.8406 49.2586 60.2131 49.7217C60.0313 49.8558 59.8495 49.99 59.6851 50.1414C59.6332 50.1847 59.7111 50.2626 59.763 50.215Z" fill="#BC755C"/>
<path d="M61.9959 47.943C61.9483 47.956 61.9007 47.9992 61.8617 48.0209C61.7622 48.0815 61.6626 48.142 61.5674 48.207C61.3424 48.3454 61.1217 48.4883 60.8967 48.6267C60.8447 48.6614 60.7928 48.6917 60.7409 48.7263C60.6803 48.7652 60.7365 48.8604 60.7971 48.8215C61.1563 48.5964 61.5155 48.3671 61.8747 48.1421C61.9136 48.1204 61.9526 48.0944 61.9872 48.0728C62.0002 48.0642 62.0089 48.0598 62.0218 48.0512C62.0305 48.0468 62.0478 48.0425 62.0262 48.0468C62.0954 48.0295 62.0651 47.9257 61.9959 47.943Z" fill="#BC755C"/>
<path d="M62.5152 49.1328C62.5066 49.1415 62.5282 49.1242 62.5152 49.1328C62.5152 49.1328 62.5109 49.1372 62.5066 49.1415C62.4893 49.1501 62.4763 49.1631 62.459 49.1718C62.4114 49.2021 62.3638 49.2324 62.3205 49.2627C62.2166 49.3319 62.1171 49.3968 62.0132 49.4617C61.9916 49.4747 61.9656 49.492 61.944 49.505C61.8834 49.5439 61.9397 49.6392 62.0003 49.6002C62.169 49.4877 62.3421 49.3795 62.5109 49.267C62.5412 49.2497 62.5758 49.228 62.5975 49.2064C62.6451 49.1631 62.5672 49.0852 62.5152 49.1328Z" fill="#BC755C"/>
<path d="M65.9265 48.8172C65.9698 48.6571 66.0131 48.497 66.052 48.3368C66.0564 48.3152 66.065 48.2892 66.0693 48.2676C66.0867 48.1984 65.9828 48.1681 65.9612 48.2373C65.9179 48.3974 65.8746 48.5576 65.8357 48.7177C65.8313 48.7393 65.8227 48.7653 65.8183 48.7869C65.801 48.8562 65.9049 48.8865 65.9265 48.8172Z" fill="#BC755C"/>
<path d="M127.577 47.9517C127.56 47.9647 127.542 47.982 127.525 47.995C127.17 48.3109 126.733 48.5186 126.344 48.7869C125.898 49.0942 124.587 50.3838 124.141 50.6911C124.115 50.7084 124.085 50.73 124.054 50.73C124.015 50.73 123.981 50.7041 123.95 50.6781C123.725 50.492 123.496 50.2973 123.379 50.029C123.34 49.9338 123.314 49.8385 123.288 49.739C123.241 49.5443 123.189 49.3538 123.145 49.1591C123.098 48.9644 123.055 48.761 123.098 48.5662C123.215 48.0686 124.734 46.8698 124.881 46.3591C124.928 46.1947 124.924 46.0173 124.928 45.8442C124.959 45.1215 125.24 44.4377 125.625 43.8318C125.82 43.5289 126.041 43.2433 126.274 42.9706C126.378 42.8495 126.486 42.711 126.629 42.6288C126.724 42.5725 126.872 42.5552 126.971 42.6071C127.101 42.6764 127.079 42.8235 127.04 42.9447C126.962 43.187 126.837 43.4164 126.763 43.6587C126.755 43.6847 126.724 43.8318 126.742 43.8491C126.763 43.8665 126.798 43.8621 126.82 43.8448C126.841 43.8275 126.854 43.8015 126.867 43.7756C126.984 43.5289 127.166 43.3169 127.326 43.0918C127.625 42.6591 127.837 42.1657 128.191 41.7762C128.256 41.707 128.33 41.6377 128.421 41.6074C128.512 41.5772 128.629 41.5945 128.68 41.6767C128.741 41.7589 128.715 41.8714 128.685 41.971C128.607 42.222 128.494 42.4427 128.382 42.672C128.256 42.923 128.161 43.187 128.049 43.4424C128.304 42.8884 128.585 42.3302 129.027 41.9061C129.1 41.8368 129.178 41.7719 129.269 41.7373C129.377 41.6983 129.494 41.7373 129.537 41.8498C129.568 41.9277 129.555 42.0142 129.529 42.0965C129.507 42.1787 129.472 42.2566 129.464 42.3388C129.563 42.1873 129.762 42.1094 129.94 42.1527C129.987 42.1657 130.031 42.183 130.061 42.222C130.117 42.2869 130.104 42.3864 130.083 42.473C130.013 42.7586 129.879 43.0096 129.758 43.2736C129.628 43.5592 129.472 43.8362 129.317 44.1045C129.165 44.3641 129.009 44.6195 128.901 44.9008C128.88 44.9613 128.867 45.0436 128.919 45.0782C129.118 44.7839 129.312 44.4896 129.511 44.1997C129.697 43.9314 129.879 43.6111 130.117 43.3861C130.204 43.3039 130.377 43.213 130.502 43.2303C130.749 43.2649 130.58 43.5938 130.524 43.7236C130.325 44.1694 130.122 44.6108 129.879 45.0306C129.654 45.4201 129.459 45.8269 129.17 46.1731C128.668 46.7833 128.166 47.4194 127.577 47.9517Z" fill="#F2B096"/>
<path d="M126.647 43.8668C126.487 44.3212 126.404 44.7842 126.465 45.2689C126.495 45.5113 126.556 45.745 126.53 45.9916C126.504 46.2599 126.396 46.5153 126.223 46.723C126.171 46.7879 126.261 46.8788 126.313 46.8139C126.621 46.433 126.703 45.9916 126.629 45.5156C126.586 45.243 126.556 44.979 126.577 44.702C126.599 44.425 126.677 44.1611 126.768 43.9014C126.798 43.8235 126.673 43.7889 126.647 43.8668Z" fill="#BC755C"/>
<path d="M126.918 44.0483C127.663 44.4724 128.394 44.9181 129.112 45.3812C129.182 45.4288 129.246 45.3119 129.177 45.2687C128.459 44.8056 127.727 44.3599 126.983 43.9358C126.914 43.8925 126.845 44.005 126.918 44.0483Z" fill="#BC755C"/>
<path d="M127.538 44.2301C127.859 43.7194 128.192 43.2174 128.503 42.7068C128.547 42.6332 128.434 42.5683 128.391 42.6419C128.075 43.1525 127.742 43.6588 127.426 44.1652C127.382 44.2344 127.495 44.3037 127.538 44.2301Z" fill="#BC755C"/>
<path d="M128.136 44.6847C128.595 43.9014 129.066 43.1225 129.547 42.3522C129.59 42.2829 129.477 42.2137 129.434 42.2873C128.954 43.0576 128.482 43.8365 128.023 44.6198C127.98 44.6934 128.093 44.7583 128.136 44.6847Z" fill="#BC755C"/>
<path d="M126.68 48.3198C126.511 48.2938 126.36 48.216 126.247 48.0861C126.226 48.0602 126.178 48.0602 126.157 48.0861C126.131 48.1121 126.135 48.151 126.157 48.177C126.282 48.3198 126.459 48.415 126.646 48.4453C126.68 48.4496 126.715 48.4367 126.728 48.3977C126.736 48.3674 126.715 48.3241 126.68 48.3198Z" fill="#BC755C"/>
<path d="M102.357 42.274C104.296 43.304 109.368 49.8387 114.617 50.2325C119.871 50.6306 123.67 47.0647 123.857 47.0128C124.043 46.9608 126.072 48.9385 126.232 49.0727C126.393 49.2069 123.406 53.4003 118.365 55.1443C113.323 56.8883 106.144 53.5345 103.556 50.9725C100.972 48.4106 102.357 42.274 102.357 42.274Z" fill="#FDC61C"/>
<path d="M94.2414 39.3828C96.9851 39.3309 98.5171 40.0709 100.339 41.0187C102.161 41.9707 103.191 42.4987 103.403 44.6365C103.615 46.7744 103.81 51.8377 103.667 52.7941C103.416 54.4861 101.464 54.6722 100.806 55.1223C100.144 55.5724 97.8593 60.7136 97.8593 60.7136L87.248 57.5458C87.248 57.5458 88.4338 54.6679 89.1479 51.4482C89.8619 48.2284 90.4678 43.9528 91.5237 42.0227C92.5753 40.0969 94.2414 39.3828 94.2414 39.3828Z" fill="#FDC61C"/>
<path d="M138.877 72.1558L131.062 69.6544L129.062 74.2893C129.062 74.2893 134.169 74.8432 135.835 75.1029C137.497 75.3582 138.826 75.1808 139.241 74.0729C139.656 72.9607 138.877 72.1558 138.877 72.1558Z" fill="#F2B096"/>
<path d="M58.4533 94.3867L66.6585 94.5079L67.2254 89.4922C67.2254 89.4922 62.1751 90.4486 60.509 90.6823C58.8428 90.9203 57.6268 91.4742 57.5489 92.6557C57.4753 93.8414 58.4533 94.3867 58.4533 94.3867Z" fill="#F2B096"/>
<path d="M146.403 68.339C146.724 68.5813 146.927 68.9275 146.979 69.2824C147.096 70.1739 143.123 74.8087 140.899 76.9898C138.743 79.106 137.861 79.8547 136.757 78.7771C136.722 78.7425 136.688 78.7079 136.649 78.6689C135.493 77.4356 133.317 75.5574 133.273 75.0208C133.208 74.2764 134.814 75.4795 135.814 74.7914C136.818 74.1076 138.016 72.7574 137.956 72.1083C137.904 71.4635 136.549 70.5374 137.008 70.1912C137.463 69.845 137.952 69.6242 138.497 69.8753C139.042 70.1349 139.284 70.6023 139.284 70.6023C139.284 70.6023 143.084 68.8756 144.4 68.2178C145.183 67.8153 145.923 67.9625 146.403 68.339Z" fill="#EBECED"/>
<path d="M146.404 68.3389C146.724 68.5812 146.928 68.9274 146.98 69.2823C147.096 70.1738 143.124 74.8086 140.899 76.9897C138.744 79.1059 137.861 79.8546 136.758 78.777C137.108 78.5953 137.437 78.3702 137.757 78.1409C138.251 77.786 138.731 77.4052 139.19 77.0027C139.653 76.6003 140.103 76.1848 140.54 75.7477C140.938 75.3539 141.328 74.9471 141.709 74.5317C142.089 74.1162 142.462 73.6964 142.829 73.2637C143.193 72.8352 143.552 72.4025 143.903 71.9611C144.258 71.524 144.599 71.0782 144.933 70.6282C145.253 70.1954 145.569 69.7583 145.867 69.3082C146.002 69.0962 146.192 68.6634 146.404 68.3389Z" fill="#D4D9DD"/>
<path d="M143.062 70.1351C143.002 70.5505 143.093 70.979 143.209 71.3771C143.326 71.7709 143.491 72.1517 143.698 72.5023C143.776 72.6321 143.98 72.5152 143.902 72.3811C143.711 72.0565 143.556 71.7146 143.447 71.3511C143.339 70.9876 143.235 70.5765 143.292 70.1957C143.313 70.0485 143.084 69.9836 143.062 70.1351Z" fill="#D4D9DD"/>
<path d="M135.637 76.6309C135.888 76.5833 136.139 76.5141 136.39 76.4924C136.61 76.4708 136.818 76.5444 137.004 76.6612C137.376 76.8949 137.645 77.2584 138.021 77.4921C138.151 77.5743 138.268 77.3666 138.142 77.2887C137.735 77.0334 137.45 76.6179 137.021 76.3972C136.818 76.2934 136.597 76.2371 136.372 76.2587C136.104 76.289 135.84 76.354 135.576 76.4016C135.425 76.4318 135.485 76.6569 135.637 76.6309Z" fill="#D4D9DD"/>
<path d="M139.314 71.1389C139.314 71.061 139.319 70.9787 139.327 70.9008C139.327 70.8922 139.331 70.8835 139.331 70.8749C139.336 70.8489 139.327 70.8965 139.331 70.8705C139.336 70.8489 139.34 70.8273 139.34 70.8056C139.349 70.7667 139.357 70.7277 139.366 70.6888C139.379 70.6282 139.349 70.559 139.284 70.5416C139.223 70.5287 139.154 70.559 139.137 70.6239C139.093 70.7926 139.076 70.9658 139.076 71.1389C139.076 71.1994 139.128 71.26 139.193 71.2557C139.258 71.2557 139.314 71.2081 139.314 71.1389Z" fill="#D4D9DD"/>
<path d="M138.212 72.5108C138.268 72.2209 138.588 72.0997 138.822 71.9828C139.142 71.827 139.462 71.6626 139.774 71.4938C140.401 71.1563 141.016 70.7884 141.618 70.4033C141.743 70.321 141.626 70.1176 141.496 70.1999C140.852 70.6153 140.194 71.0048 139.519 71.364C139.194 71.5371 138.865 71.6929 138.541 71.8617C138.294 71.9872 138.039 72.1603 137.978 72.4502C137.956 72.5974 138.181 72.6623 138.212 72.5108Z" fill="#D4D9DD"/>
<path d="M56.4797 102.458C56.0772 102.441 55.7137 102.276 55.4714 102.016C54.8655 101.35 55.4671 95.2784 56.0426 92.2145C56.5922 89.2457 56.8908 88.1249 58.4141 88.3759C58.4618 88.3845 58.5137 88.3932 58.5656 88.4018C60.2188 88.7481 63.0793 89.0423 63.4212 89.4578C63.9015 90.029 61.8979 89.9641 61.4694 91.1023C61.041 92.2361 60.8333 94.032 61.2487 94.5297C61.6598 95.0274 63.3 95.0101 63.1226 95.5597C62.9451 96.105 62.6768 96.5637 62.084 96.6719C61.4867 96.7714 61.0237 96.5291 61.0237 96.5291C61.0237 96.5291 58.8988 100.121 58.1978 101.415C57.7823 102.19 57.0899 102.493 56.4797 102.458Z" fill="#EBECED"/>
<path d="M56.4797 102.458C56.0772 102.441 55.7137 102.276 55.4714 102.016C54.8655 101.35 55.4671 95.2784 56.0426 92.2145C56.5922 89.2457 56.8908 88.1249 58.4141 88.3759C58.2324 88.7264 58.0896 89.0986 57.9597 89.4708C57.7564 90.0463 57.5833 90.6306 57.4361 91.2234C57.2846 91.8163 57.1548 92.4179 57.0466 93.028C56.9471 93.5777 56.8605 94.1359 56.787 94.6942C56.7134 95.2524 56.6485 95.8107 56.5922 96.3776C56.5403 96.9359 56.497 97.4985 56.4624 98.061C56.4235 98.6236 56.3975 99.1862 56.3845 99.7445C56.3715 100.285 56.3629 100.818 56.3715 101.363C56.3758 101.61 56.4667 102.073 56.4797 102.458Z" fill="#D4D9DD"/>
<path d="M58.1799 99.0521C57.9982 98.6886 57.6779 98.3987 57.3663 98.1477C57.0461 97.888 56.6955 97.6716 56.319 97.5028C56.1806 97.4423 56.0594 97.6457 56.1979 97.7062C56.5527 97.8664 56.8903 98.0698 57.1975 98.3164C57.4918 98.5545 57.7991 98.8314 57.9722 99.1733C58.0414 99.3075 58.2448 99.1906 58.1799 99.0521Z" fill="#D4D9DD"/>
<path d="M60.565 89.4877C60.4005 89.6564 60.2404 89.8339 60.0673 89.994C59.9029 90.1498 59.7124 90.2277 59.4874 90.2536C59.0287 90.2969 58.5786 90.1368 58.1156 90.1584C57.9641 90.1671 57.9641 90.4008 58.1156 90.3965C58.6132 90.3705 59.0979 90.5566 59.5956 90.4787C60.0933 90.4051 60.3919 89.9983 60.7251 89.6564C60.8376 89.5439 60.6688 89.3752 60.565 89.4877Z" fill="#D4D9DD"/>
<path d="M60.6816 96.0919C60.7292 96.1568 60.7725 96.2261 60.8114 96.2953C60.8288 96.3299 60.8461 96.3646 60.8634 96.3992C60.8677 96.4078 60.872 96.4165 60.8764 96.4295C60.8807 96.4381 60.8893 96.4511 60.8893 96.4598C60.8807 96.4425 60.8807 96.4424 60.885 96.4511C60.885 96.4554 60.8893 96.4598 60.8893 96.4641C60.8937 96.4727 60.898 96.4814 60.9023 96.4944C60.9153 96.5247 60.9283 96.5463 60.9586 96.5636C60.9845 96.5766 61.0192 96.5853 61.0495 96.5766C61.1057 96.5593 61.1576 96.4944 61.1317 96.4295C61.0711 96.265 60.9889 96.1136 60.8893 95.9707C60.872 95.9448 60.8504 95.9231 60.8201 95.9145C60.7898 95.9058 60.7552 95.9102 60.7292 95.9275C60.673 95.9621 60.6427 96.04 60.6816 96.0919Z" fill="#D4D9DD"/>
<path d="M60.8116 94.365C60.9414 94.6679 60.6472 95.0445 60.5087 95.2955C60.3442 95.5941 60.1884 95.897 60.037 96.1999C59.7384 96.8015 59.4614 97.4203 59.2061 98.0435C59.1498 98.1863 59.3792 98.2469 59.4354 98.1084C59.7167 97.4246 60.024 96.7538 60.3572 96.0961C60.5173 95.7758 60.6904 95.4642 60.8592 95.1483C61.015 94.867 61.1492 94.5641 61.015 94.2482C60.9588 94.1054 60.7554 94.2265 60.8116 94.365Z" fill="#D4D9DD"/>
<path d="M86.6388 58.5068C86.6388 58.5068 86.5003 58.4073 86.5999 58.2082C86.6994 58.0091 86.9547 57.9529 86.9547 57.9529C86.9547 57.9529 86.8292 57.0441 86.9158 56.9056C87.0023 56.7671 89.3695 57.4812 91.7843 58.3121C94.1991 59.143 98.4748 60.3504 98.4964 60.61C98.5181 60.8653 97.843 61.2418 97.843 61.2418C97.843 61.2418 98.0983 61.6962 97.6439 61.7958C97.6439 61.7958 97.2458 63.4186 97.09 66.2316C96.9298 69.0445 95.1901 77.0809 93.6841 81.5945C92.1781 86.1082 87.3485 91.4139 81.489 95.0577C75.6294 98.7015 65.7711 99.4113 65.7711 99.4113L65.6543 89.077C65.6543 89.077 74.4826 87.493 78.2476 83.0962C82.0083 78.6994 82.6834 73.3115 82.6444 70.3082C82.6055 67.3048 82.7094 64.4096 83.8475 62.2156C84.9727 60.0258 86.6388 58.5068 86.6388 58.5068Z" fill="#57BBF8"/>
<path d="M87.8495 64.1154C94.6092 63.9552 106.804 64.4313 113.084 65.0674C119.367 65.6993 133.159 69.8711 133.159 69.8711L128.806 80.3655C128.806 80.3655 121.756 78.0675 112.967 77.1977C104.178 76.3278 99.5427 76.4057 93.1292 76.4836C86.7157 76.5615 83.0329 73.7919 82.7949 69.196C82.5569 64.6044 87.8495 64.1154 87.8495 64.1154Z" fill="#57BBF8"/>
<path d="M97.4756 40.0322C97.5102 40.0062 97.5665 40.0452 97.6011 40.0581C97.6747 40.0928 97.7482 40.1274 97.8218 40.162C98.0425 40.2659 98.2632 40.3654 98.4796 40.4693C98.7609 40.5991 99.0465 40.7332 99.3278 40.8631C99.6351 41.0059 99.9423 41.1487 100.25 41.2915C100.544 41.4257 100.834 41.5641 101.128 41.6983C101.366 41.8108 101.604 41.919 101.842 42.0315C101.985 42.1008 102.132 42.1657 102.275 42.2349C102.301 42.2479 102.327 42.2609 102.353 42.2695C102.353 42.2695 102.604 43.3774 102.314 44.1953C102.024 45.0132 101.085 44.7882 99.6481 44.1044C98.2113 43.4164 97.6141 42.0705 97.5492 41.3478C97.5102 40.941 97.4453 40.5298 97.4453 40.1187C97.4453 40.0971 97.4453 40.0754 97.454 40.0538C97.4626 40.0452 97.4713 40.0365 97.4756 40.0322Z" fill="#F2B096"/>
<path d="M95.7782 39.4437C93.1384 39.1537 83.2109 38.3488 75.6549 40.3048C69.7434 41.8368 64.9095 45.3465 64.7537 45.5326C64.5936 45.7187 66.4977 48.1465 66.7877 48.2244C67.0776 48.3023 72.0933 46.2726 78.563 45.5845C85.0285 44.8964 91.1823 46.4024 91.8661 46.4284C92.5542 46.4544 94.7959 44.2906 95.5878 42.1008C96.3798 39.911 95.7782 39.4437 95.7782 39.4437Z" fill="#FDC61C"/>
<path d="M100.392 39.8417C100.24 39.2921 99.4485 39.3441 99.0244 39.3397C97.9728 39.3224 98.4012 38.0804 97.7694 37.5135C97.4016 37.1846 96.8693 37.0937 96.826 36.4792C96.7957 36.0508 97.1592 35.7825 97.3886 35.4752C97.7088 35.0554 97.5703 34.8434 97.3886 34.4063C97.1809 33.9043 97.605 33.4109 98.0723 33.2638C98.3969 33.1643 98.6912 33.1469 98.8556 32.7964C99.0158 32.4632 98.8859 32.0607 98.9595 31.7102C99.0417 31.3077 99.3706 30.9961 99.7817 30.9312C100.344 30.8447 100.959 30.6759 101.223 30.122C101.595 29.3387 101.984 28.4039 102.976 28.3217C103.659 28.2654 103.958 28.7068 104.503 28.9708C104.884 29.1569 105.425 28.9924 105.793 28.841C106.165 28.6895 106.658 28.4818 107.048 28.6809C107.403 28.8583 107.515 29.3819 107.814 29.581C108.281 29.8969 108.874 29.4468 109.35 29.8926C109.891 30.4032 109.9 31.2168 110.57 31.6539C110.969 31.9179 111.592 32.1992 111.769 32.6839C111.947 33.1686 111.371 33.359 111.354 33.8134C111.336 34.1899 111.778 34.4582 111.934 34.7741C112.18 35.2805 112.016 35.5358 111.665 35.9512C111.328 36.3537 110.969 36.5398 111.233 37.1067C111.458 37.5871 111.523 37.9462 111.215 38.4309C110.943 38.8637 110.449 38.8074 110.159 39.1623C109.874 39.5128 110.112 40.0408 109.735 40.3957C109.311 40.7938 109.038 40.3481 108.597 40.4519C108.329 40.5168 108.095 40.8371 107.874 40.9929C107.571 41.2136 107.342 41.3088 106.983 41.3737C106.152 41.5295 105.754 41.4689 105.083 40.9366C104.533 40.5039 103.936 40.5125 103.265 40.5818C102.755 40.6337 102.188 40.7505 101.842 40.3264C101.621 40.0538 101.491 39.898 101.123 39.8893C100.911 39.8893 100.608 40.0019 100.392 39.8417Z" fill="#603706"/>
<path d="M99.4648 38.5351C99.4648 38.5351 101.339 40.5128 102.923 41.6769C104.506 42.8367 105.324 43.0228 105.904 42.893C106.294 42.8064 107.735 41.7159 108.574 40.6946C108.994 40.1839 109.111 39.5997 109.176 39.353C109.323 38.8077 110.119 38.5784 110.31 37.3537C110.556 35.7784 110.946 33.9738 110.206 32.7318C108.99 30.6978 106.142 29.4601 103.026 31.308C99.9149 33.1516 99.4648 38.5351 99.4648 38.5351Z" fill="#F2B096"/>
<path d="M103.122 41.2399L101.667 43.2436C101.667 43.2436 100.56 43.2436 99.4907 42.629C98.4218 42.0145 98.1621 40.7076 98.1621 40.7076L100.408 37.9336L103.122 41.2399Z" fill="#F2B096"/>
<path d="M110.003 34.6789C109.822 34.6832 109.644 35.2328 109.471 35.3756C109.285 35.5314 109.008 35.6872 108.77 35.7348C108.259 35.8387 107.874 35.5358 107.398 35.605C107 35.6613 106.65 35.8863 106.282 36.0421C106.104 36.1157 105.892 36.1979 105.702 36.2022C105.542 36.2022 105.39 36.12 105.239 36.1113C104.884 36.094 104.516 36.3277 104.217 36.4965C104.04 36.6004 103.655 36.873 103.482 36.6523C103.352 36.4878 103.56 36.146 103.499 35.9469C103.356 35.4709 102.547 35.3627 102.145 35.5401C101.604 35.7738 101.383 36.6912 101.461 37.2279C101.504 37.5481 101.612 37.8078 101.556 38.1453C101.508 38.4223 101.262 38.8723 100.963 38.9286C100.639 38.9892 100.513 38.6949 100.193 38.894C99.9894 39.0195 99.838 39.2012 99.5956 39.2921C99.4917 39.3311 99.3879 39.3441 99.2797 39.3484C99.1975 39.3527 99.0547 39.3484 98.9854 39.3267C98.7863 39.2618 98.7647 39.1277 98.6176 38.9286C98.3709 38.5997 98.3233 38.2578 98.2584 37.8554C98.1459 37.1629 98.1069 36.2974 98.267 35.6137C98.4445 34.8477 98.9508 34.0644 99.3446 33.3979C99.6519 32.8743 100.072 32.4329 100.418 31.9395C100.764 31.4419 101.184 31.0524 101.694 30.7235C102.486 30.2172 103.464 29.7368 104.369 29.4988C105.074 29.3127 105.892 29.1958 106.624 29.2391C107.026 29.2651 107.39 29.4382 107.77 29.568C108.138 29.6935 108.35 29.819 108.64 30.0743C108.883 30.2864 109.181 30.4119 109.419 30.6283C109.696 30.8793 110.042 31.0913 110.241 31.4159C110.523 31.8703 110.41 32.6449 110.376 33.1599C110.35 33.5927 110.211 34.0687 110.029 34.4539C109.99 34.5318 109.947 34.627 110.003 34.6789Z" fill="#603706"/>
<path d="M110.03 33.13C109.836 33.4632 109.939 34.0388 109.961 34.4456C109.978 34.7875 110.065 34.9303 110.229 35.2289C110.502 35.7179 110.459 36.2762 110.428 36.8387C110.411 37.1763 110.394 37.5268 110.381 37.8644C110.563 37.6091 110.653 37.2758 110.74 36.9772C110.883 36.4882 111.091 36.0554 111.086 35.5448C111.082 34.848 111.021 34.1383 110.917 33.4459C110.883 33.1992 110.606 32.1952 110.195 32.4289C109.991 32.5414 109.987 33.0737 110.03 33.13Z" fill="#603706"/>
<path d="M106.097 37.4663C106.014 37.7433 106.131 38.0245 106.356 38.0895C106.581 38.1544 106.832 37.9856 106.915 37.7086C106.997 37.4317 106.88 37.1504 106.655 37.0855C106.43 37.0162 106.179 37.1893 106.097 37.4663Z" fill="#33364F"/>
<path d="M108.447 38.6218C108.33 38.8425 108.373 39.0935 108.538 39.1801C108.702 39.2666 108.932 39.1584 109.048 38.9334C109.165 38.7127 109.122 38.4617 108.957 38.3751C108.793 38.2929 108.564 38.4011 108.447 38.6218Z" fill="#33364F"/>
<path d="M109.009 37.6612C109.286 37.341 110.16 38.1502 110.004 38.4445C109.887 38.6566 108.883 37.8084 109.009 37.6612Z" fill="#603813"/>
<path d="M107.952 36.8217C108.065 36.3933 106.122 35.6446 105.914 36.1033C105.845 36.2678 107.9 37.0337 107.952 36.8217Z" fill="#603813"/>
<path d="M105.546 39.9979C106.13 40.5432 107.428 41.2183 107.428 41.2183C107.428 41.2183 107.091 41.4823 106.831 41.5429C106.572 41.6078 105.827 41.0971 105.611 40.9197C105.403 40.7423 105.546 39.9979 105.546 39.9979Z" fill="#BC755C"/>
<path d="M105.715 41.4392C105.849 41.4998 105.987 41.5604 106.113 41.634C106.178 41.6729 106.243 41.7119 106.134 41.7681C105.909 41.885 105.667 41.7032 105.585 41.4998C105.537 41.3786 105.585 41.383 105.693 41.4349C105.702 41.4349 105.706 41.4349 105.715 41.4392Z" fill="#BC755C"/>
<path d="M107.944 38.6391C107.909 38.8728 107.875 39.1108 107.862 39.3488C107.849 39.5695 107.888 39.7903 107.883 40.0153C107.879 40.1235 107.87 40.2446 107.81 40.3355C107.74 40.4394 107.611 40.4524 107.494 40.4264C107.273 40.3788 107.1 40.21 106.91 40.0975C106.84 40.0586 106.78 40.1624 106.849 40.2057C107.057 40.3312 107.247 40.513 107.494 40.5562C107.71 40.5952 107.901 40.5043 107.965 40.2879C108.043 40.0412 107.991 39.7643 107.983 39.5133C107.97 39.2363 108.022 38.9507 108.065 38.6781C108.074 38.5958 107.957 38.5612 107.944 38.6391Z" fill="#BC755C"/>
<path d="M102.815 41.5907C102.504 41.3916 102.205 41.1709 101.92 40.9329C101.859 40.881 101.773 40.9675 101.833 41.0194C102.123 41.2661 102.43 41.4955 102.751 41.6989C102.82 41.7378 102.88 41.634 102.815 41.5907Z" fill="#BC755C"/>
<path d="M101.44 37.0421C101.457 37.1979 101.522 37.3364 101.617 37.4619C101.704 37.5701 101.812 37.6696 101.942 37.7129C102.015 37.7389 102.05 37.6177 101.976 37.5961C101.873 37.5615 101.782 37.4749 101.712 37.3884C101.635 37.2888 101.574 37.1676 101.561 37.0465C101.557 37.0119 101.535 36.9859 101.5 36.9859C101.474 36.9816 101.435 37.0118 101.44 37.0421Z" fill="#BC755C"/>
<path d="M102.587 37.0942C102.491 37.0942 102.418 36.9774 102.396 36.8952C102.366 36.7956 102.422 36.7091 102.522 36.6788C102.613 36.6485 102.712 36.6571 102.803 36.6182C102.894 36.5793 102.946 36.497 102.976 36.4061C103.037 36.2417 103.041 36.034 102.894 35.9128C102.786 35.8262 102.634 35.8219 102.504 35.8565C102.357 35.8955 102.21 35.9777 102.119 36.0989C102.072 36.1638 102.18 36.2244 102.227 36.1595C102.301 36.0643 102.422 36.0037 102.535 35.9734C102.639 35.9474 102.777 35.9431 102.851 36.0383C102.903 36.1075 102.907 36.1984 102.89 36.2806C102.872 36.3629 102.838 36.4711 102.751 36.5057C102.669 36.5403 102.569 36.5316 102.483 36.5576C102.396 36.5879 102.314 36.6528 102.279 36.7394C102.21 36.9255 102.379 37.2111 102.587 37.2111C102.665 37.2197 102.665 37.0942 102.587 37.0942Z" fill="#BC755C"/>
<path d="M102.3 42.2441C102.188 42.3999 102.075 42.5514 101.963 42.7072C101.941 42.7331 101.959 42.7764 101.985 42.7894C102.015 42.8067 102.049 42.7937 102.067 42.7678C102.179 42.612 102.292 42.4605 102.404 42.3047C102.426 42.2787 102.409 42.2355 102.383 42.2225C102.352 42.2052 102.318 42.2182 102.3 42.2441Z" fill="#BC755C"/>
<path d="M98.3583 40.5089C98.4449 40.4223 98.5315 40.3401 98.618 40.2535C98.6267 40.2449 98.6353 40.2362 98.6396 40.2319C98.6613 40.2102 98.6656 40.167 98.6396 40.1453C98.6137 40.1237 98.5791 40.1194 98.5531 40.1453C98.4838 40.2102 98.4189 40.2795 98.3497 40.3444C98.3237 40.3704 98.2978 40.3963 98.2718 40.4223C98.2502 40.4439 98.2458 40.4872 98.2718 40.5089C98.2978 40.5305 98.3367 40.5305 98.3583 40.5089Z" fill="#BC755C"/>
<path d="M105.508 40.2879C106.01 40.8115 107.1 41.3222 107.152 41.3092C107.196 41.3005 107.295 41.2356 107.364 41.1837C107.1 41.0409 106.053 40.474 105.542 39.9979C105.547 39.9979 105.521 40.1234 105.508 40.2879Z" fill="#EBECED"/>
<path d="M94.951 76.2282C92.8219 76.1719 90.6927 75.9988 88.6241 75.4579C87.7672 75.2329 86.9147 74.9516 86.1401 74.5145C85.3351 74.0601 84.6514 73.4412 84.1364 72.6752C83.5521 71.7967 83.1973 70.7711 83.1194 69.7152C83.1064 69.5637 82.8684 69.5637 82.8814 69.7152C83.0155 71.615 84.0109 73.4109 85.5991 74.4669C86.3651 74.9775 87.2349 75.3151 88.1178 75.5661C89.1131 75.8517 90.1258 76.0551 91.1514 76.1893C92.4107 76.358 93.6787 76.4273 94.9467 76.4619C95.1068 76.4705 95.1025 76.2325 94.951 76.2282Z" fill="#33364F"/>
<path d="M85.0333 82.8494C86.4051 81.2395 87.4264 79.344 88.0107 77.3144C88.1751 76.7388 88.3049 76.1503 88.4002 75.5574C88.4261 75.4059 88.1924 75.341 88.1708 75.4925C87.8419 77.5524 87.0759 79.5301 85.9248 81.2698C85.6002 81.7632 85.2453 82.2349 84.8602 82.6849C84.765 82.7974 84.9337 82.9662 85.0333 82.8494Z" fill="#33364F"/>
<path d="M97.7952 61.116C97.0984 61.0684 96.458 60.7742 95.8175 60.5145C95.1381 60.2375 94.4413 60.0341 93.7359 59.8394C93.5888 59.7961 93.5239 60.0255 93.671 60.0688C94.3894 60.2722 95.1034 60.4799 95.7958 60.7655C96.4407 61.0295 97.0855 61.3064 97.7909 61.3584C97.9467 61.3627 97.9467 61.1247 97.7952 61.116Z" fill="#33364F"/>
<path d="M92.3043 59.4025C91.9364 59.3073 91.5686 59.2121 91.2008 59.1169C91.0536 59.0779 90.9887 59.3073 91.1358 59.3462C91.5037 59.4414 91.8715 59.5366 92.2394 59.6318C92.3908 59.6708 92.4558 59.4414 92.3043 59.4025Z" fill="#33364F"/>
<path d="M88.7033 58.2773C88.4133 58.2167 88.1234 58.1604 87.8334 58.0998C87.5651 58.0436 87.2708 58.0133 87.0242 57.8921C86.8857 57.8229 86.7688 58.0306 86.903 58.0998C87.1626 58.2297 87.4569 58.2686 87.7382 58.3249C88.0411 58.3855 88.3397 58.446 88.6427 58.511C88.7898 58.5369 88.8504 58.3076 88.7033 58.2773Z" fill="#33364F"/>
<path d="M87.2049 58.5586C87.1573 58.5586 87.1097 58.5586 87.0621 58.5499C87.0535 58.5499 87.0491 58.5499 87.0405 58.5456C87.0535 58.5456 87.0535 58.5456 87.0405 58.5456C87.0318 58.5456 87.0188 58.5413 87.0102 58.5413C86.9885 58.5369 86.9626 58.5326 86.9409 58.5283C86.8933 58.5153 86.8457 58.5023 86.8025 58.485C86.7938 58.4807 86.7851 58.4764 86.7722 58.472C86.7981 58.4807 86.7592 58.4634 86.7549 58.4634C86.7332 58.4547 86.7116 58.4417 86.6899 58.4331C86.6337 58.4028 86.5558 58.4158 86.5255 58.4764C86.4952 58.5326 86.5082 58.6062 86.5688 58.6408C86.7635 58.7447 86.9842 58.8009 87.2049 58.7966C87.2655 58.7966 87.3261 58.7403 87.3261 58.6754C87.3218 58.6148 87.2698 58.5586 87.2049 58.5586Z" fill="#33364F"/>
<path d="M97.531 61.6873C97.1155 61.6354 96.7087 61.5315 96.3192 61.3844C96.2587 61.3627 96.1894 61.4103 96.1721 61.4666C96.1548 61.5315 96.1937 61.5921 96.2543 61.6137C96.6654 61.7695 97.0939 61.869 97.531 61.9253C97.5959 61.934 97.6521 61.8647 97.6521 61.8041C97.6478 61.7349 97.5959 61.696 97.531 61.6873Z" fill="#33364F"/>
<path d="M93.9571 60.7138C92.8752 60.2724 91.7673 59.9045 90.6422 59.6016C90.495 59.5627 90.4301 59.792 90.5772 59.831C91.7067 60.1296 92.8146 60.5017 93.8922 60.9432C94.035 60.9994 94.0956 60.7701 93.9571 60.7138Z" fill="#33364F"/>
<path d="M92.0645 46.4153C91.5149 46.2119 90.9437 46.0734 90.3595 46.0042C90.2945 45.9955 90.2426 46.0647 90.2383 46.1253C90.2383 46.1946 90.2945 46.2378 90.3595 46.2465C90.922 46.3157 91.4716 46.4542 92.0039 46.649C92.1468 46.6966 92.2073 46.4672 92.0645 46.4153Z" fill="#603706"/>
<path d="M103.815 51.0847C103.866 49.5354 103.819 47.9818 103.676 46.4368C103.663 46.2854 103.425 46.2854 103.438 46.4368C103.585 47.9818 103.633 49.5354 103.576 51.0847C103.572 51.2405 103.81 51.2361 103.815 51.0847Z" fill="#603706"/>
<path d="M87.3788 61.0035C87.0715 62.0335 86.8724 63.0937 86.7902 64.167C86.7512 64.6733 86.721 65.184 86.7859 65.6903C86.8508 66.1707 87.0282 66.6077 87.3225 66.9886C87.8808 67.7069 88.7203 68.2263 89.5296 68.6201C90.3648 69.0269 91.2563 69.3082 92.1564 69.5202C93.2037 69.7626 94.2683 69.9183 95.3285 70.0612C95.48 70.0828 95.5449 69.8534 95.3935 69.8318C93.5932 69.5851 91.754 69.3255 90.0748 68.6071C89.2569 68.2565 88.4433 67.7978 87.8072 67.1747C87.4783 66.8544 87.2186 66.4779 87.0931 66.0322C86.959 65.5431 86.972 65.0282 86.9979 64.5305C87.0628 63.3577 87.2662 62.1979 87.6038 61.0727C87.6514 60.9169 87.422 60.8564 87.3788 61.0035Z" fill="#33364F"/>
<path d="M97.1234 64.0244C96.193 63.9985 95.2712 63.8773 94.3668 63.6696C94.2196 63.6349 94.1547 63.8643 94.3019 63.8989C95.228 64.111 96.1714 64.2365 97.1191 64.2624C97.2749 64.2668 97.2749 64.0288 97.1234 64.0244Z" fill="#33364F"/>
<path d="M66.7014 89.5659C66.7923 91.1369 66.8529 92.7078 66.8832 94.2787C66.8875 94.4302 67.1255 94.4302 67.1212 94.2787C67.0909 92.7078 67.0303 91.1369 66.9394 89.5659C66.9308 89.4101 66.6927 89.4101 66.7014 89.5659Z" fill="#33364F"/>
<path d="M129.312 74.0297C128.923 75.791 127.841 77.2797 127.14 78.9199C127.079 79.0584 127.287 79.1795 127.348 79.041C128.057 77.3836 129.148 75.8776 129.546 74.0946C129.576 73.9431 129.347 73.8782 129.312 74.0297Z" fill="#33364F"/>
<path d="M100.712 55.0963C100.56 55.0271 100.409 54.9535 100.262 54.8843C100.232 54.8713 100.201 54.8626 100.171 54.8713C100.145 54.8799 100.115 54.9016 100.102 54.9275C100.076 54.9795 100.084 55.0617 100.145 55.092C100.296 55.1612 100.448 55.2348 100.595 55.304C100.625 55.317 100.656 55.3257 100.686 55.317C100.712 55.3084 100.742 55.2867 100.755 55.2608C100.781 55.2045 100.772 55.1223 100.712 55.0963Z" fill="#603706"/>
<path d="M93.2125 52.0324C93.7231 52.6123 94.3593 53.0753 95.1123 53.2874C95.2594 53.3263 95.3243 53.097 95.1772 53.058C94.4631 52.8589 93.8659 52.4175 93.3812 51.8679C93.2774 51.7468 93.1129 51.9155 93.2125 52.0324Z" fill="#603706"/>
</g>
<defs>
<clipPath id="clip0_648_29925">
<rect width="216.38" height="216.38" fill="white" transform="translate(0 -21.0001)"/>
</clipPath>
</defs>
</svg>
