<svg width="113" height="104" viewBox="0 0 113 104" fill="none" xmlns="http://www.w3.org/2000/svg">
<path d="M28.4863 41.3515C28.4863 41.3515 13.0567 41.8855 10.0123 49.364C6.96785 56.8424 3.22327 80.5596 3.22327 80.5596L25.2458 74.0841L60.3103 84.0314L80.9341 84.0091L84.0864 76.3263L81.2116 59.4221C81.2116 59.4221 79.5816 56.0286 76.5346 53.9419C73.4876 51.8551 67.2446 48.5665 67.2446 48.5665L28.4863 41.3515Z" fill="#3B1B2D"/>
<path d="M45.3992 34.9213C48.5679 30.0577 49.5239 24.1841 49.5239 24.1841L58.8529 32.2007C58.8529 32.2007 57.5576 35.6466 57.5768 38.9064C53.1825 38.8051 48.6082 37.6655 45.2315 35.1517C45.2876 35.0747 45.3481 34.9994 45.3992 34.9213Z" fill="#FF7E5E"/>
<path d="M45.2308 35.1512C48.6075 37.6655 53.1817 38.8045 57.576 38.9058C57.5871 40.7909 58.0367 42.6145 59.4345 43.6729C63.2489 46.5607 68.0517 49.4432 68.0517 49.4432C68.0517 49.4432 58.7419 60.005 44.4806 56.7713C30.2193 53.5376 28.6823 41.4735 28.6823 41.4735C28.6823 41.4735 41.7909 39.8364 45.2308 35.1512Z" fill="#FFBD8A"/>
<path d="M39.5052 15.1075C39.5052 15.1075 37.4559 19.8397 33.2217 26.0426C28.9875 32.2455 27.8839 39.5654 33.1499 42.9464C38.4159 46.3274 49.4321 49.5482 52.0226 56.3417C54.613 63.1352 53.4693 68.0993 55.8394 65.7004C58.2096 63.3015 57.0944 60.1949 57.2373 56.3012C57.3802 52.4075 61.6716 44.0693 59.3935 38.6962C57.1148 33.3237 49.1415 30.1617 48.519 25.4928C47.8966 20.8239 49.8945 17.6938 48.6862 12.5392C47.4779 7.38531 40.0892 11.4826 39.5052 15.1075Z" fill="#A83C3C"/>
<path d="M50.2091 7.4196C50.2091 7.4196 56.3173 2.37561 66.1971 4.58068C76.0768 6.78574 76.4789 18.5284 73.3034 25.3527C70.128 32.1769 63.2887 33.0576 58.0217 32.6383C52.7547 32.2191 49.9976 27.9378 49.2676 25.5107C48.5375 23.083 47.3917 19.7041 47.3917 19.7041C47.3917 19.7041 45.5532 21.8371 42.2692 19.8666C38.9852 17.8961 38.8017 12.2343 44.447 12.0134C44.447 12.0134 47.9625 12.1516 48.4778 14.878L50.2091 7.4196Z" fill="#FFBD8A"/>
<path d="M68.972 5.56188C68.972 5.56188 63.4054 8.92862 57.4797 10.6006C51.5539 12.2726 49.8329 11.8354 49.8329 11.8354C49.8329 11.8354 50.9765 13.4311 50.7918 15.2567C50.6072 17.0829 48.9181 19.5655 49.061 23.3001C49.2034 27.0346 50.0238 28.2858 50.0238 28.2858C50.0238 28.2858 47.4743 25.4869 47.0244 23.6296C46.5751 21.7722 47.8931 19.9012 48.2267 17.8342C48.5602 15.7672 48.4094 14.5873 48.4094 14.5873C48.4094 14.5873 43.9947 9.93123 40.2052 14.5332L39.9766 15.6239C39.9766 15.6239 39.2464 15.6956 39.5769 14.1043C39.9075 12.5135 44.3023 11.1705 45.4052 8.73524C46.5082 6.29999 47.2576 4.67592 51.0836 2.57607C54.9102 0.476204 66.0341 2.04802 69.1436 5.5018L68.972 5.56188Z" fill="#A83C3C"/>
<path d="M68.9707 5.56189C68.9707 5.56189 66.4839 10.3503 58.8515 11.7551C51.2191 13.16 48.6208 11.6871 48.6208 11.6871C48.6208 11.6871 53.1062 13.8497 52.5978 18.7295C52.0894 23.6093 48.0425 27.355 50.1784 30.3908C52.3149 33.4265 53.0313 33.6319 53.0313 33.6319C53.0313 33.6319 49.1292 29.4235 51.2056 26.5736C53.2826 23.7237 54.8863 19.0708 53.9116 16.4144C52.9369 13.758 51.1968 12.8989 51.1968 12.8989C51.1968 12.8989 59.0197 14.4236 63.2868 12.0282C67.5545 9.63214 68.8451 6.24382 68.9707 5.56189Z" fill="#A83C3C"/>
<path d="M66.5154 5.16151C66.5154 5.16151 66.2543 7.04412 68.7422 8.24621C71.2301 9.4483 72.9956 13.4473 74.2172 15.2156C75.4389 16.9838 75.067 17.5386 75.4389 16.9838C75.8108 16.429 76.2906 14.3074 75.5212 10.802C74.7518 7.2966 70.1752 3.2322 66.5154 5.16151Z" fill="#A83C3C"/>
<path d="M63.8474 13.7322L64.7885 21.1508L61.8215 21.3905L63.8474 13.7322Z" fill="#FF7E5E"/>
<path d="M66.0887 18.2717C65.9843 18.8642 66.7506 19.4865 67.8 19.6621C68.8495 19.8377 69.7854 19.4995 69.8899 18.907C69.9943 18.3145 69.228 17.6921 68.1785 17.5166C67.1284 17.341 66.1932 17.6791 66.0887 18.2717Z" fill="#FF7E5E"/>
<path d="M55.6571 16.3192C55.5526 16.9117 56.3189 17.534 57.3684 17.7096C58.4179 17.8852 59.3538 17.547 59.4582 16.9545C59.5626 16.3619 58.7964 15.7396 57.7469 15.5641C56.6968 15.3891 55.7609 15.7267 55.6571 16.3192Z" fill="#FF7E5E"/>
<path d="M66.7589 15.3922C66.7914 15.7847 67.1441 16.077 67.5457 16.0441C67.9473 16.0119 68.2469 15.6674 68.2137 15.2749C68.1812 14.8823 67.8291 14.5906 67.4275 14.6229C67.0252 14.6552 66.7263 14.9996 66.7589 15.3922Z" fill="#4A1A1A"/>
<path d="M57.74 14.0076C57.7726 14.4001 58.1246 14.6919 58.5262 14.6596C58.9279 14.6273 59.2268 14.2829 59.1942 13.8903C59.1617 13.4978 58.8097 13.2054 58.4074 13.2383C58.0064 13.2706 57.7075 13.615 57.74 14.0076Z" fill="#4A1A1A"/>
<path d="M66.3618 10.6177C66.3618 10.6177 66.5031 9.84949 67.6609 10.3612C68.8188 10.8736 69.2858 12.0168 69.2858 12.0168L66.3618 10.6177Z" fill="#4A1A1A"/>
<path d="M57.5485 9.84587C57.5485 9.84587 59.2941 8.43621 60.7627 8.67816C62.2313 8.9201 61.6459 9.93919 61.6459 9.93919L57.5485 9.84587Z" fill="#4A1A1A"/>
<path d="M57.4005 21.7474L63.7535 24.7736C63.7535 24.7736 63.0175 27.4579 59.8166 27.2667C56.6163 27.0743 55.9548 23.2754 57.4005 21.7474Z" fill="white"/>
<path d="M19.1947 46.5087C19.1947 46.5087 24.3745 47.9177 25.3537 51.2635C26.3335 54.6099 25.4383 73.7875 25.4383 73.7875L27.18 53.5519" stroke="#703356" stroke-width="0.557508" stroke-miterlimit="10"/>
<path d="M3.49544 80.3593C3.49544 80.3593 6.06702 87.6367 15.8687 89.0564C25.6704 90.4761 48.9194 88.2459 48.9194 88.2459C48.9194 88.2459 53.3698 101.419 54.9342 101.735C56.4987 102.051 55.9233 101.655 55.9233 101.655L58.1049 85.4703C58.1049 85.4703 63.6126 90.244 64.0858 90.2056C64.5591 90.1672 59.039 82.5645 57.7901 81.692C56.5413 80.82 25.1581 74.1919 25.1581 74.1919L3.49544 80.3593Z" fill="#FFBD8A"/>
<path d="M54.9353 101.735L52.3004 87.4812" stroke="#FF7E5E" stroke-width="0.557508" stroke-miterlimit="10"/>
<path d="M76.9346 84.0031L93.4034 50.3768C93.4034 50.3768 89.7003 47.6639 90.4581 45.0437C91.216 42.423 94.7229 33.7121 95.6761 33.1814C96.6293 32.6507 96.6293 32.6507 96.6293 32.6507L96.3109 41.1473C96.3109 41.1473 104.177 30.7941 105.402 30.4574C106.628 30.1206 107.395 31.027 107.395 31.027C107.395 31.027 108.601 29.9437 109.327 29.8209C110.053 29.6975 110.485 30.0586 110.485 30.0586L99.0768 84.0146L76.9346 84.0031Z" fill="#FFBD8A"/>
<path d="M95.4877 41.3866C95.4877 41.3866 101.571 39.1116 103.738 44.0821" stroke="#FF7E5E" stroke-width="0.557508" stroke-miterlimit="10"/>
<path d="M102.4 42.1834L109.527 29.7027" stroke="#FF7E5E" stroke-width="0.557508" stroke-miterlimit="10"/>
<path d="M100.247 41.0637L106.67 30.8356" stroke="#FF7E5E" stroke-width="0.557508" stroke-miterlimit="10"/>
</svg>
