<svg width="22" height="21" viewBox="0 0 22 21" fill="none" xmlns="http://www.w3.org/2000/svg">
<g clip-path="url(#clip0_950_14185)">
<path d="M17.6284 1.81958H8.44678V4.68884H9.59448V2.96728H17.6284C17.9727 2.96728 18.2023 3.19683 18.2023 3.54114V9.85351C18.2023 10.1978 17.9727 10.4274 17.6284 10.4274H10.1683V14.4443H7.12691L5.00366 16.1085V14.4443H3.2821C2.93779 14.4443 2.70825 14.2148 2.70825 13.8705V7.5581C2.70825 7.21379 2.93779 6.98425 3.2821 6.98425H10.7422V5.83655H3.2821C2.30655 5.83655 1.56055 6.58255 1.56055 7.5581V13.8705C1.56055 14.846 2.30655 15.592 3.2821 15.592H3.85596V18.5187L7.47123 15.592H11.316V11.5751H17.6284C18.604 11.5751 19.35 10.8291 19.35 9.85351V3.54114C19.35 2.56559 18.604 1.81958 17.6284 1.81958Z" fill="#6C7072"/>
<path d="M3.9707 13.2391H5.34795L5.69226 12.321H7.4712L7.81551 13.2391H9.19276L7.24166 8.13184H5.86442L3.9707 13.2391ZM6.55304 9.56647L7.12689 11.3454H5.97919L6.55304 9.56647Z" fill="#6C7072"/>
<path d="M11.8906 9.85351C12.5219 9.85351 13.3826 9.68136 14.186 9.27966C14.9894 9.68136 15.9076 9.85351 16.4814 9.85351V8.70581C16.4814 8.70581 15.9076 8.70581 15.2764 8.47627C15.965 7.78765 16.4814 6.75471 16.4814 5.26269V4.68884H14.7599V3.54114H13.6122V4.68884H11.8906V5.83655H15.2764C15.1616 6.86948 14.7025 7.50072 14.186 7.90242C13.8417 7.61549 13.4974 7.21379 13.2679 6.69733H12.0628C12.2923 7.44333 12.6366 8.01719 13.0957 8.47627C12.5219 8.70581 12.0054 8.70581 11.8906 8.70581V9.85351Z" fill="#6C7072"/>
</g>
<defs>
<clipPath id="clip0_950_14185">
<rect width="20.6587" height="20.6587" fill="white" transform="translate(0.414062 0.0980225)"/>
</clipPath>
</defs>
</svg>
