<svg width="22" height="22" viewBox="0 0 22 22" fill="none" xmlns="http://www.w3.org/2000/svg">
<path d="M17.8974 4.14921C18.0951 4.30967 18.2405 4.51478 18.2883 4.76706C18.2924 4.87712 18.2944 4.98617 18.2945 5.09624C18.2948 5.14644 18.2948 5.14644 18.2951 5.19765C18.2956 5.30996 18.2958 5.42226 18.2961 5.53457C18.2964 5.61504 18.2967 5.6955 18.2971 5.77596C18.2981 6.04038 18.2988 6.30479 18.2993 6.56921C18.2996 6.66028 18.2998 6.75135 18.3 6.84242C18.3009 7.22129 18.3016 7.60017 18.3021 7.97905C18.3027 8.52176 18.3041 9.06447 18.3064 9.60718C18.3079 9.98891 18.3087 10.3706 18.3089 10.7524C18.3091 10.9803 18.3096 11.2082 18.3109 11.4361C18.3121 11.6507 18.3123 11.8652 18.3119 12.0798C18.3119 12.1583 18.3122 12.2369 18.3129 12.3154C18.3201 13.153 18.3201 13.153 18.0063 13.4873C17.6881 13.7941 17.3919 13.8264 16.9644 13.8254C16.919 13.8265 16.8736 13.8277 16.8268 13.8289C16.4796 13.8297 16.2033 13.763 15.9422 13.5244C15.6859 13.2596 15.6068 12.9709 15.6096 12.6121C15.6094 12.5788 15.6092 12.5455 15.609 12.5112C15.6084 12.4004 15.6087 12.2896 15.609 12.1788C15.6087 12.0991 15.6085 12.0193 15.6081 11.9396C15.6074 11.7235 15.6075 11.5074 15.6077 11.2913C15.6078 11.1107 15.6076 10.9301 15.6073 10.7495C15.6068 10.3234 15.6068 9.89734 15.6073 9.47123C15.6077 9.03204 15.6072 8.59286 15.6061 8.15367C15.6052 7.77618 15.6049 7.39869 15.6052 7.0212C15.6053 6.79592 15.6052 6.57065 15.6045 6.34537C15.6039 6.13351 15.604 5.92166 15.6048 5.7098C15.605 5.6322 15.6048 5.5546 15.6044 5.477C15.6006 4.72371 15.6006 4.72371 15.7867 4.44426C15.8085 4.41113 15.8304 4.378 15.8529 4.34386C16.3367 3.79539 17.2988 3.7431 17.8974 4.14921ZM16.2709 4.8074C16.2219 4.95418 16.2245 5.0888 16.2246 5.24161C16.2244 5.27384 16.2243 5.30607 16.2241 5.33927C16.2237 5.44762 16.2235 5.55597 16.2234 5.66432C16.2231 5.74186 16.2228 5.8194 16.2226 5.89694C16.2219 6.10785 16.2214 6.31877 16.2211 6.52969C16.2209 6.66141 16.2206 6.79314 16.2204 6.92487C16.2196 7.33687 16.2191 7.74887 16.2187 8.16088C16.2183 8.63673 16.2173 9.11258 16.2156 9.58843C16.2144 9.95608 16.2138 10.3237 16.2137 10.6914C16.2136 10.911 16.2132 11.1307 16.2122 11.3504C16.2113 11.557 16.2111 11.7636 16.2115 11.9702C16.2115 12.046 16.2113 12.1219 16.2107 12.1977C16.21 12.3013 16.2103 12.4048 16.2108 12.5083C16.2104 12.5383 16.2099 12.5683 16.2095 12.5992C16.212 12.8048 16.2641 12.9197 16.3919 13.0789C16.5818 13.2565 16.8038 13.2526 17.0523 13.2489C17.2185 13.2355 17.3788 13.2077 17.5217 13.1193C17.6754 12.9311 17.7064 12.7812 17.7038 12.5449C17.7041 12.5121 17.7044 12.4792 17.7047 12.4454C17.7054 12.3358 17.705 12.2261 17.7046 12.1165C17.7049 12.0377 17.7052 11.959 17.7056 11.8802C17.7066 11.6666 17.7064 11.4529 17.7061 11.2392C17.7059 11.0609 17.7062 10.8825 17.7065 10.7041C17.7071 10.2833 17.707 9.86249 17.7063 9.44169C17.7056 9.00754 17.7063 8.5734 17.7076 8.13925C17.7087 7.76646 17.709 7.39367 17.7086 7.02087C17.7084 6.79824 17.7085 6.57561 17.7093 6.35297C17.7101 6.14366 17.7098 5.93437 17.7088 5.72505C17.7086 5.64825 17.7088 5.57144 17.7093 5.49464C17.7099 5.38975 17.7093 5.28495 17.7084 5.18007C17.7089 5.14969 17.7094 5.11932 17.7099 5.08803C17.7058 4.85614 17.6415 4.76156 17.4813 4.60566C17.307 4.52346 17.1481 4.51298 16.9568 4.51235C16.9094 4.51168 16.8619 4.511 16.813 4.5103C16.5825 4.53466 16.4194 4.63137 16.2709 4.8074Z" fill="#6C7072" stroke="#6C7072" stroke-width="0.608283"/>
<path d="M9.37111 15.0561C9.63502 15.239 9.90001 15.5033 9.95902 15.8286C9.9676 15.8856 9.9676 15.8856 9.97635 15.9438C10.0184 15.9437 10.0606 15.9436 10.1039 15.9435C11.1273 15.9408 12.1506 15.9388 13.1739 15.9375C13.6688 15.9369 14.1637 15.936 14.6586 15.9347C15.0898 15.9335 15.521 15.9327 15.9522 15.9324C16.1806 15.9322 16.4091 15.9319 16.6375 15.931C16.8523 15.9302 17.0671 15.9299 17.282 15.9301C17.361 15.9301 17.44 15.9298 17.519 15.9294C17.6266 15.9288 17.7341 15.9289 17.8417 15.9292C17.8732 15.9289 17.9047 15.9285 17.9372 15.9282C18.1476 15.9299 18.1476 15.9299 18.2471 16.0003C18.2984 16.0807 18.3045 16.1313 18.3034 16.2262C18.3037 16.2537 18.304 16.2812 18.3043 16.3095C18.2822 16.4172 18.2577 16.4446 18.1672 16.5087C18.0556 16.5203 17.9532 16.5245 17.8417 16.5232C17.7914 16.5234 17.7914 16.5234 17.74 16.5235C17.6272 16.5237 17.5144 16.5231 17.4016 16.5224C17.3208 16.5224 17.2401 16.5224 17.1594 16.5225C16.9399 16.5225 16.7204 16.5218 16.501 16.521C16.2717 16.5202 16.0425 16.5201 15.8132 16.52C15.379 16.5196 14.9447 16.5186 14.5104 16.5174C14.0161 16.516 13.5218 16.5154 13.0274 16.5148C12.0104 16.5135 10.9934 16.5114 9.97635 16.5087C9.97063 16.5467 9.96491 16.5847 9.95902 16.6239C9.90001 16.9491 9.63502 17.2135 9.37111 17.3964C9.02873 17.6012 8.63337 17.6142 8.24812 17.534C7.93058 17.4254 7.655 17.2029 7.48527 16.9137C7.35366 16.6313 7.35366 16.6313 7.35366 16.5087C7.30338 16.5089 7.2531 16.5092 7.2013 16.5095C6.72809 16.5119 6.25489 16.5138 5.78168 16.515C5.53838 16.5156 5.29509 16.5164 5.05179 16.5178C4.81712 16.5191 4.58245 16.5198 4.34778 16.5202C4.25812 16.5204 4.16846 16.5208 4.07881 16.5215C3.9535 16.5224 3.82821 16.5225 3.7029 16.5224C3.64696 16.5231 3.64696 16.5231 3.58988 16.5237C3.55577 16.5236 3.52165 16.5234 3.4865 16.5232C3.45686 16.5233 3.42721 16.5235 3.39667 16.5236C3.29626 16.5044 3.26037 16.4668 3.19772 16.3876C3.18164 16.3095 3.18164 16.3095 3.18259 16.2262C3.18227 16.1988 3.18196 16.1713 3.18164 16.143C3.20265 16.0408 3.23818 16.0089 3.31876 15.9438C3.39667 15.9289 3.39667 15.9289 3.4865 15.9292C3.53768 15.929 3.53768 15.929 3.58988 15.9287C3.62718 15.9292 3.66447 15.9296 3.7029 15.9301C3.74227 15.93 3.78164 15.93 3.82221 15.93C3.95255 15.9301 4.08288 15.931 4.21322 15.932C4.30351 15.9322 4.3938 15.9324 4.48409 15.9325C4.7219 15.933 4.9597 15.9341 5.1975 15.9355C5.4401 15.9367 5.6827 15.9373 5.92529 15.9379C6.40142 15.9392 6.87754 15.9412 7.35366 15.9438C7.36161 15.919 7.36956 15.8943 7.37775 15.8688C7.38837 15.8362 7.39899 15.8037 7.40993 15.7701C7.42038 15.7379 7.43082 15.7056 7.44158 15.6724C7.55929 15.3464 7.83444 15.1031 8.14299 14.9578C8.54134 14.816 9.0064 14.8379 9.37111 15.0561ZM8.0396 15.8227C7.93768 16.0061 7.89403 16.1758 7.93352 16.387C8.00155 16.605 8.10883 16.7767 8.30943 16.892C8.50076 16.9718 8.68328 16.9943 8.88693 16.9525C9.06355 16.8705 9.20167 16.7649 9.33076 16.6196C9.4138 16.3913 9.43512 16.1854 9.36607 15.9514C9.23655 15.7312 9.08811 15.5882 8.84658 15.5C8.50401 15.455 8.26177 15.5525 8.0396 15.8227Z" fill="#6C7072" stroke="#6C7072" stroke-width="0.608283"/>
<path d="M12.8077 6.08614C12.8564 6.08497 12.9051 6.0838 12.9553 6.0826C13.3377 6.07988 13.6074 6.147 13.8896 6.42155C14.1767 6.7955 14.184 7.17043 14.1831 7.62703C14.1833 7.68327 14.1835 7.73951 14.1837 7.79575C14.1843 7.94773 14.1843 8.0997 14.1842 8.25168C14.1841 8.37892 14.1843 8.50615 14.1845 8.63338C14.185 8.93375 14.185 9.23412 14.1848 9.53448C14.1845 9.84354 14.185 10.1526 14.1859 10.4616C14.1866 10.7277 14.1868 10.9938 14.1867 11.2599C14.1866 11.4185 14.1867 11.5771 14.1873 11.7357C14.1878 11.8849 14.1877 12.0341 14.1872 12.1834C14.187 12.2637 14.1875 12.344 14.188 12.4243C14.1854 12.8608 14.1271 13.243 13.8089 13.5633C13.4889 13.8111 13.2106 13.8157 12.8153 13.8205C12.7694 13.822 12.7234 13.8236 12.6761 13.8251C12.3334 13.8287 12.0525 13.7716 11.7952 13.5321C11.5499 13.2656 11.464 12.9904 11.463 12.6335C11.4627 12.5845 11.4625 12.5355 11.4623 12.485C11.4622 12.4311 11.4622 12.3771 11.4621 12.3232C11.4619 12.2661 11.4617 12.209 11.4615 12.1519C11.461 11.9971 11.4607 11.8423 11.4606 11.6875C11.4604 11.5906 11.4603 11.4938 11.4601 11.397C11.4595 11.0936 11.4592 10.7903 11.459 10.487C11.4588 10.1375 11.4581 9.78799 11.4569 9.43848C11.4561 9.1679 11.4557 8.89733 11.4556 8.62675C11.4556 8.46533 11.4553 8.30393 11.4546 8.14252C11.4539 7.99057 11.4539 7.83863 11.4542 7.68668C11.4543 7.60479 11.4537 7.5229 11.4531 7.44101C11.4551 7.00856 11.522 6.65819 11.8318 6.34085C12.1495 6.09832 12.4165 6.08923 12.8077 6.08614ZM12.2554 6.79934C12.1013 6.97587 12.0689 7.10856 12.0682 7.33639C12.068 7.38408 12.0677 7.43176 12.0675 7.48089C12.0675 7.53328 12.0674 7.58566 12.0674 7.63963C12.0672 7.69531 12.067 7.75098 12.0668 7.80666C12.0662 7.95797 12.066 8.10928 12.0658 8.2606C12.0657 8.35515 12.0655 8.4497 12.0653 8.54425C12.0648 8.84013 12.0644 9.13602 12.0642 9.4319C12.064 9.77336 12.0633 10.1148 12.0622 10.4563C12.0613 10.7203 12.0609 10.9842 12.0608 11.2482C12.0608 11.4059 12.0606 11.5635 12.0598 11.7212C12.0592 11.8695 12.0591 12.0178 12.0594 12.1662C12.0595 12.2464 12.0589 12.3266 12.0584 12.4069C12.0586 12.4549 12.0588 12.5029 12.059 12.5524C12.059 12.594 12.0589 12.6355 12.0589 12.6784C12.0829 12.8681 12.1546 12.9995 12.2907 13.1321C12.5291 13.2853 12.8659 13.2777 13.1371 13.2205C13.3207 13.1597 13.4262 13.0821 13.5264 12.9177C13.5694 12.7862 13.572 12.6637 13.5724 12.5259C13.5727 12.4789 13.5729 12.4319 13.5731 12.3835C13.5732 12.332 13.5732 12.2806 13.5733 12.2277C13.5735 12.1728 13.5737 12.118 13.5739 12.0632C13.5744 11.9144 13.5747 11.7656 13.5749 11.6168C13.575 11.5237 13.5751 11.4307 13.5753 11.3377C13.5759 11.0464 13.5763 10.7552 13.5764 10.4639C13.5766 10.128 13.5773 9.79214 13.5785 9.45626C13.5794 9.19641 13.5798 8.93656 13.5798 8.67671C13.5799 8.52161 13.5801 8.36652 13.5808 8.21143C13.5815 8.06547 13.5816 7.91953 13.5812 7.77357C13.5812 7.69475 13.5817 7.61592 13.5823 7.5371C13.5808 7.23091 13.5763 6.99594 13.3499 6.76956C13.0771 6.60067 12.5019 6.57536 12.2554 6.79934Z" fill="#6C7072" stroke="#6C7072" stroke-width="0.608283"/>
<path d="M8.66705 7.93954C8.71315 7.93803 8.75926 7.93652 8.80677 7.93497C9.15031 7.93143 9.43168 7.98785 9.68962 8.22801C9.97878 8.54197 10.0222 8.85745 10.0227 9.26652C10.023 9.32413 10.023 9.32413 10.0233 9.38291C10.0239 9.50975 10.0242 9.63659 10.0244 9.76344C10.0246 9.85184 10.0249 9.94024 10.0251 10.0286C10.0255 10.214 10.0258 10.3993 10.0259 10.5846C10.0261 10.8216 10.0271 11.0585 10.0282 11.2954C10.029 11.478 10.0292 11.6607 10.0293 11.8433C10.0294 11.9306 10.0297 12.0179 10.0302 12.1052C10.0309 12.2277 10.0309 12.3501 10.0306 12.4725C10.031 12.5083 10.0313 12.544 10.0317 12.5808C10.0292 12.9616 9.92206 13.2876 9.65307 13.5632C9.34046 13.8018 9.08208 13.8137 8.69731 13.8154C8.62713 13.8166 8.62713 13.8166 8.55553 13.8179C8.22213 13.8194 7.98871 13.7881 7.70876 13.596C7.40988 13.2971 7.30509 12.9704 7.30145 12.5528C7.30155 12.518 7.30165 12.4832 7.30175 12.4474C7.30154 12.4098 7.30134 12.3722 7.30113 12.3335C7.30057 12.2101 7.3006 12.0868 7.3007 11.9634C7.30054 11.8771 7.30036 11.7908 7.30017 11.7044C7.29987 11.5238 7.29988 11.3432 7.30009 11.1625C7.30033 10.9318 7.29965 10.7011 7.29871 10.4704C7.29811 10.2922 7.29808 10.114 7.29821 9.93576C7.29818 9.85073 7.29797 9.7657 7.29757 9.68067C7.29707 9.56144 7.29734 9.44224 7.29781 9.32301C7.2975 9.28837 7.29719 9.25373 7.29688 9.21804C7.29988 8.86692 7.37907 8.54454 7.60268 8.26769C7.91289 7.96749 8.25734 7.9445 8.66705 7.93954ZM8.03911 8.7213C7.92025 8.94469 7.90058 9.12536 7.9024 9.37579C7.90219 9.41198 7.90198 9.44816 7.90176 9.48545C7.90123 9.60439 7.90158 9.72331 7.90199 9.84225C7.90191 9.9253 7.90179 10.0083 7.90164 10.0914C7.90146 10.2652 7.90172 10.439 7.90229 10.6128C7.90298 10.8351 7.90258 11.0575 7.90185 11.2799C7.90142 11.4513 7.90156 11.6227 7.90187 11.7941C7.90195 11.8761 7.90185 11.9581 7.90157 12.04C7.90126 12.1547 7.90173 12.2694 7.9024 12.3842C7.90216 12.4178 7.90191 12.4514 7.90166 12.4861C7.90397 12.6997 7.93702 12.8496 8.03911 13.0386C8.30808 13.2561 8.55231 13.2579 8.88644 13.2404C9.06583 13.2115 9.16681 13.1764 9.28489 13.0412C9.42384 12.8409 9.41718 12.6702 9.41748 12.4348C9.41768 12.3978 9.41788 12.3607 9.41809 12.3226C9.41868 12.2 9.41895 12.0774 9.41918 11.9547C9.41941 11.8695 9.41964 11.7844 9.41987 11.6992C9.4203 11.5205 9.42053 11.3417 9.42067 11.163C9.42089 10.9341 9.42186 10.7052 9.42301 10.4763C9.42376 10.3003 9.42397 10.1243 9.42404 9.9483C9.42416 9.86393 9.42448 9.77955 9.42501 9.69518C9.4257 9.57705 9.42562 9.45895 9.42536 9.34083C9.42573 9.30605 9.42611 9.27126 9.42649 9.23543C9.42476 8.98628 9.37549 8.81834 9.20656 8.62673C9.03413 8.52939 8.88193 8.53633 8.68722 8.53973C8.63389 8.53879 8.63389 8.53879 8.57949 8.53784C8.35512 8.53918 8.20927 8.56128 8.03911 8.7213Z" fill="#6C7072" stroke="#6C7072" stroke-width="0.608283"/>
<path d="M4.52591 9.95435C4.56323 9.95354 4.60055 9.95273 4.639 9.9519C4.95802 9.95213 5.21303 10.0372 5.48672 10.199C5.72337 10.4488 5.86328 10.7212 5.86709 11.0648C5.86787 11.1261 5.86787 11.1261 5.86866 11.1885C5.86896 11.2325 5.86926 11.2764 5.86957 11.3216C5.86989 11.3671 5.87022 11.4126 5.87055 11.4595C5.87111 11.5558 5.87154 11.652 5.87186 11.7483C5.87256 11.8949 5.87433 12.0414 5.87611 12.188C5.87652 12.2817 5.87686 12.3754 5.87713 12.4691C5.87784 12.5126 5.87854 12.5561 5.87927 12.6009C5.87822 12.9689 5.78323 13.2677 5.52901 13.5406C5.22809 13.8012 4.91081 13.8361 4.52591 13.8279C4.48074 13.8283 4.43557 13.8287 4.38903 13.8292C4.06209 13.8263 3.81715 13.7685 3.54918 13.579C3.52864 13.5579 3.50809 13.5368 3.48693 13.5151C3.46586 13.4946 3.4448 13.4741 3.42309 13.4529C3.20614 13.1462 3.17244 12.8606 3.17406 12.4914C3.17381 12.4437 3.17356 12.3959 3.17331 12.3466C3.17302 12.246 3.17315 12.1454 3.17366 12.0448C3.17422 11.8917 3.17284 11.7387 3.17131 11.5856C3.17127 11.4874 3.17134 11.3892 3.17154 11.2911C3.17101 11.2457 3.17047 11.2004 3.16992 11.1537C3.17439 10.772 3.27533 10.4869 3.54997 10.2166C3.82413 9.97405 4.17628 9.95168 4.52591 9.95435ZM3.85703 10.8127C3.79209 10.916 3.78663 10.9748 3.78585 11.096C3.78534 11.1348 3.78483 11.1736 3.7843 11.2135C3.78442 11.2552 3.78454 11.2969 3.78466 11.3398C3.78445 11.3828 3.78424 11.4259 3.78402 11.4703C3.78376 11.5614 3.78381 11.6525 3.78416 11.7436C3.7845 11.8827 3.78334 12.0218 3.78206 12.1609C3.78199 12.2495 3.78202 12.3381 3.78214 12.4267C3.78168 12.4682 3.78123 12.5097 3.78076 12.5524C3.78311 12.794 3.80186 12.9355 3.96355 13.1192C4.23683 13.2883 4.57966 13.2649 4.88401 13.215C5.06834 13.1355 5.16419 13.0178 5.25472 12.8368C5.25893 12.7783 5.26072 12.7197 5.26122 12.6611C5.26161 12.6247 5.26199 12.5883 5.26239 12.5509C5.26256 12.5114 5.26274 12.472 5.26291 12.4314C5.26326 12.3706 5.26326 12.3706 5.26361 12.3086C5.26399 12.2228 5.26425 12.1369 5.26441 12.051C5.2648 11.9199 5.26605 11.7889 5.26733 11.6578C5.26759 11.5744 5.2678 11.491 5.26796 11.4075C5.26845 11.3684 5.26895 11.3293 5.26947 11.2891C5.26876 11.0748 5.25465 10.9235 5.13367 10.7386C4.94691 10.5694 4.75778 10.5677 4.51583 10.5646C4.47061 10.5629 4.47061 10.5629 4.42449 10.5611C4.1774 10.5583 4.02613 10.6234 3.85703 10.8127Z" fill="#6C7072" stroke="#6C7072" stroke-width="0.608283"/>
</svg>
