<svg width="19" height="25" viewBox="0 0 19 25" fill="none" xmlns="http://www.w3.org/2000/svg">
<path fill-rule="evenodd" clip-rule="evenodd" d="M4.33398 9.91667V6.04167C4.33398 4.67138 4.87833 3.35722 5.84727 2.38828C6.8162 1.41934 8.13037 0.875 9.50065 0.875C10.8709 0.875 12.1851 1.41934 13.154 2.38828C14.123 3.35722 14.6673 4.67138 14.6673 6.04167V9.91667H15.959C16.6441 9.91667 17.3012 10.1888 17.7857 10.6733C18.2701 11.1578 18.5423 11.8149 18.5423 12.5V21.5417C18.5423 22.2268 18.2701 22.8839 17.7857 23.3684C17.3012 23.8528 16.6441 24.125 15.959 24.125H3.04232C2.35718 24.125 1.70009 23.8528 1.21563 23.3684C0.731156 22.8839 0.458984 22.2268 0.458984 21.5417V12.5C0.458984 11.8149 0.731156 11.1578 1.21563 10.6733C1.70009 10.1888 2.35718 9.91667 3.04232 9.91667H4.33398ZM6.91732 6.04167C6.91732 5.35652 7.18949 4.69944 7.67396 4.21497C8.15843 3.7305 8.81551 3.45833 9.50065 3.45833C10.1858 3.45833 10.8429 3.7305 11.3273 4.21497C11.8118 4.69944 12.084 5.35652 12.084 6.04167V9.91667H6.91732V6.04167ZM9.50065 13.7917C9.84322 13.7917 10.1718 13.9278 10.414 14.17C10.6562 14.4122 10.7923 14.7408 10.7923 15.0833V18.9583C10.7923 19.3009 10.6562 19.6294 10.414 19.8717C10.1718 20.1139 9.84322 20.25 9.50065 20.25C9.15808 20.25 8.82954 20.1139 8.58731 19.8717C8.34507 19.6294 8.20898 19.3009 8.20898 18.9583V15.0833C8.20898 14.7408 8.34507 14.4122 8.58731 14.17C8.82954 13.9278 9.15808 13.7917 9.50065 13.7917Z" fill="#E8C865"/>
</svg>
