<svg width="360" height="375" viewBox="0 0 360 375" fill="none" xmlns="http://www.w3.org/2000/svg">
<path d="M210.43 308.646V279.695H181.297V250.743H152.165V221.791H123.033V192.84H93.9005V163.889H64.7674V134.937H21.6914V337.771L239.563 337.597V308.646H210.43Z" fill="#E8C865"/>
<path d="M292.202 79.0127H202.477V337.597H292.202V79.0127Z" fill="white"/>
<path d="M297.726 337.597H292.2V79.0126H202.475V337.597H196.949V73.9922H297.726V337.597Z" fill="url(#paint0_linear_690_7146)"/>
<path d="M305.743 73.9922H297.727V337.597H305.743V73.9922Z" fill="url(#paint1_linear_690_7146)"/>
<path d="M237.131 192.84V221.878H208.086V337.771H237.131H292.199V192.84H237.131Z" fill="url(#paint2_linear_690_7146)"/>
<path d="M280.294 250.742H178.953V337.771H280.294V250.742Z" fill="url(#paint3_linear_690_7146)"/>
<path d="M251.162 279.694H149.82V337.772H251.162V279.694Z" fill="url(#paint4_linear_690_7146)"/>
<path d="M222.033 308.646H120.691V337.598H222.033V308.646Z" fill="url(#paint5_linear_690_7146)"/>
<g opacity="0.5">
<path d="M160.363 337.601H153.909C150.81 333.435 146.904 329.853 142.471 327.111C140.442 325.852 138.226 324.75 135.843 324.555C133.46 324.353 130.866 325.222 129.547 327.208C128.476 328.827 128.393 330.947 128.974 332.798C129.539 334.596 130.67 336.177 131.922 337.601H128.363C128.25 337.511 128.129 337.429 128.016 337.346C125.8 335.735 123.553 334.162 121.163 332.82C121.004 332.73 120.846 332.648 120.688 332.573V322.218C122.655 322.195 124.699 321.154 126.637 320.457C131.719 318.613 137.419 319.168 142.569 320.801C144.68 321.476 146.768 322.337 148.487 323.731C150.395 325.282 151.745 327.388 153.177 329.374C155.319 332.326 157.724 335.083 160.363 337.601Z" fill="url(#paint6_linear_690_7146)"/>
<path d="M170.746 337.601H165.966C162.905 326.826 159.105 323.439 151.286 318.741C145.555 315.301 138.995 312.993 134.004 308.647H152.944C152.99 308.685 153.035 308.73 153.073 308.767C153.955 309.659 154.4 310.88 154.822 312.064C155.712 314.582 156.609 317.122 158.064 319.355C159.542 321.626 161.555 323.506 163.206 325.657C166.065 329.381 167.867 333.974 170.746 337.601Z" fill="url(#paint7_linear_690_7146)"/>
<path d="M192.017 328.684C191.972 329.688 191.814 330.722 191.241 331.547C190.163 333.113 188.006 333.45 186.099 333.435C183.972 333.42 181.733 333.098 180.067 331.794C178.958 330.925 178.204 329.688 177.247 328.654C175.754 327.028 173.793 325.882 172.285 324.271C170.43 322.293 169.375 319.722 168.357 317.22C167.46 315.017 164.956 311.405 163.426 308.647H170.257C172.014 310.753 173.665 313.113 173.59 315.811C173.529 317.991 172.323 320.202 173.062 322.255C173.379 323.162 174.042 323.896 174.691 324.608C175.678 325.694 176.666 326.773 177.654 327.852C178.747 329.051 179.886 330.288 181.394 330.895C182.902 331.502 184.885 331.269 185.805 329.943C186.498 328.939 186.43 327.62 186.272 326.421C185.412 320.127 182.562 314.312 179.667 308.647H185.48C186.988 311.36 188.127 314.275 189.258 317.167C190.705 320.876 192.177 324.713 192.017 328.684Z" fill="url(#paint8_linear_690_7146)"/>
<path d="M219.484 337.602H203.582C201.019 334.664 198.47 331.615 197.121 327.973C195.763 324.339 193.019 317.887 195.65 316.493C197.166 316.059 198.945 317.01 199.413 318.509C200.054 320.54 198.478 322.758 199.058 324.811C199.692 327.014 202.331 327.801 204.382 328.85C206.915 330.153 208.913 332.274 211.228 333.937C213.678 335.713 216.513 336.965 219.484 337.602Z" fill="url(#paint9_linear_690_7146)"/>
<path d="M222.034 327.096V331.974C218.37 329.194 214.653 326.466 210.604 324.293C209.299 323.589 207.927 322.922 206.939 321.813C204.639 319.228 205.016 314.927 202.468 312.581C201.292 311.502 199.693 311.038 198.185 310.521C196.579 309.974 195.018 309.344 193.473 308.647H201.887C203.199 309.906 204.406 311.285 205.476 312.754C208.47 316.867 210.769 322.008 215.467 323.993C216.741 324.54 218.128 324.803 219.388 325.38C220.354 325.822 221.212 326.429 222.034 327.096Z" fill="url(#paint10_linear_690_7146)"/>
</g>
<path d="M114.472 172.511C114.472 172.511 114.275 174.326 114.022 176.651C113.801 178.654 113.54 181.034 113.326 182.958C110.077 184.734 102.078 179.761 102.078 179.761C103.928 175.558 106.046 170.389 106.046 170.389L106.947 168.614L114.069 172.299L114.472 172.511Z" fill="#F39C94"/>
<path d="M114.473 172.51C114.473 172.51 114.275 174.325 114.023 176.65C109.525 174.796 107.406 170.39 107.406 170.39C107.406 170.39 111.303 171.513 114.069 172.298L114.473 172.51Z" fill="#F39C94"/>
<path d="M123.178 166.091C122.917 165.316 122.279 163.946 121.798 162.951C121.378 160.215 120.56 157.685 119.929 156.331C117.743 151.633 112.11 153.379 107.984 155.172C103.86 156.966 101.2 163.908 105.151 168.135C109.102 172.362 113.047 175.465 118.066 173.814C120.742 172.933 121.811 170.425 122.03 167.528C122.708 167.308 123.443 166.883 123.178 166.091Z" fill="#F39C94"/>
<path d="M114.094 144.951C111.209 146.831 109.383 149.765 106.668 150.414C102.492 151.413 100.319 153.283 101.395 157.281C101.209 157.235 101.031 157.172 100.864 157.086C99.8393 156.557 99.1946 155.372 98.9149 154.317C98.8749 154.167 98.6578 154.25 98.6902 154.396C99.031 155.949 99.9524 157.066 101.205 157.57C99.9426 157.773 98.7121 157.495 97.8118 156.254C97.7122 156.116 97.5094 156.256 97.5946 156.401C98.3682 157.713 99.8038 158.23 101.209 158.075C100.433 158.819 99.4035 159.185 99.4404 160.828C99.5792 167.046 106.045 170.392 106.045 170.392L106.945 168.614C106.945 168.614 104.798 166.414 105.233 163.98C105.364 163.247 105.822 162.586 106.472 162.215C108.065 161.308 109.197 162.756 109.886 163.324L110.623 162.645C110.623 162.645 111.99 159.52 111.99 157.522C116.372 157.561 122.359 155.036 121.949 150.491C121.741 145.814 117.288 142.871 114.094 144.951Z" fill="url(#paint11_linear_690_7146)"/>
<path d="M109.751 164.156C109.751 164.156 109.967 163.133 108.752 162.322C107.65 161.587 106.052 161.734 105.36 163.554C104.668 165.374 105.634 167.966 107.218 168.839C108.739 169.678 109.669 164.773 109.751 164.156Z" fill="#F39C94"/>
<path d="M145.582 293.415L147.81 300.73H155.075L153.851 293.131" fill="#F39C94"/>
<path d="M146.465 256.15C146.427 256.109 146.382 256.075 146.341 256.038C140.667 243.757 115.757 223.438 115.757 223.438L104.473 231.188L104.478 231.227L106.356 246.058C106.356 246.058 125.192 259.22 133.613 264.427C133.818 267.111 134.214 270.431 134.981 272.444C137.101 278.009 145.814 297.277 145.814 297.277L155.511 297.127C155.511 297.127 148.683 258.553 146.465 256.15Z" fill="url(#paint12_linear_690_7146)"/>
<path d="M85.8657 315.525L83.7266 323.442L91.3978 326.594L95.0117 317.725" fill="#F39C94"/>
<path d="M83.7272 323.441L91.3984 326.594L94.1279 332.238C94.1279 332.238 97.2826 332.672 99.0455 333.826C101.136 335.194 101.136 337.772 101.136 337.772H87.9692L78.8164 329.764C78.8164 329.764 79.6224 327.694 80.6305 325.677C81.0844 324.767 83.7272 323.441 83.7272 323.441Z" fill="url(#paint13_linear_690_7146)"/>
<path d="M91.6203 224.508C91.6203 224.508 87.2931 231.797 90.7351 244.642C90.5474 251.019 89.9675 264.484 91.6475 277.091C91.6475 277.091 88.8742 283.713 88.317 287.158C87.6596 291.222 84.0977 317.479 84.0977 317.479L94.2759 321.684C94.2759 321.684 109.471 285.399 110.208 279.696C111.049 273.189 116.026 226.775 116.026 226.775L91.6203 224.508Z" fill="url(#paint14_linear_690_7146)"/>
<path d="M141.793 185.28C141.247 180.102 132.699 159.007 131.819 157.758C131.174 156.842 129.22 155.595 126.619 155.113C124.948 154.803 122.826 155.383 122.728 155.467C122.468 155.69 122.814 156.208 123.078 156.388C122.096 156.49 121.511 156.429 120.681 156.668C120.282 156.782 120.709 157.942 121.87 157.951C122.128 159.069 124.938 158.584 125.676 158.876C125.836 158.94 126.119 159.018 126.457 159.1C126.219 159.415 124.573 159.474 123.877 159.487C122.918 159.505 121.418 160.378 121.947 161.099C122.17 161.404 123.378 161.417 124.285 161.436C124.767 161.445 126.074 162.458 126.074 162.458C126.904 163.155 128.742 163.681 128.742 163.681C130.195 168.992 130.234 174.32 130.693 178.88C130.938 181.311 131.288 183.038 131.6 184.207C128.503 183.94 125.106 183.835 125.106 183.835C119.463 183.762 120.299 194.28 123.029 194.427C125.171 194.543 133.357 194.16 137.028 193.104V193.105C137.03 193.106 142.508 192.077 141.793 185.28Z" fill="#F39C94"/>
<path d="M131.82 184.349C131.82 184.349 134.918 184.019 137.352 188.16C137.352 188.16 136.357 183.176 131.82 184.349Z" fill="#F39C94"/>
<path d="M113.5 182.138C113.5 182.138 121.362 182.972 128.105 183.799C128.105 183.799 128.007 191.764 125.99 199.143C125.99 199.143 115.221 198.215 110.993 195.967C106.763 193.72 106.521 182.42 113.5 182.138Z" fill="url(#paint15_linear_690_7146)"/>
<path d="M118.917 190.201C117.254 181.676 113.473 178.729 113.473 178.729L102.282 178.001C102.282 178.001 92.1306 181.231 89.4796 201.824C89.0204 204.903 88.6396 219.461 87.9791 224.703C87.82 225.967 86.5043 230.371 93.8799 231.74C108.53 234.458 112.812 228.343 120.646 228.073C123.131 227.986 121.508 226.339 121.393 225.167C120.902 220.549 119.796 196.945 118.917 190.201Z" fill="url(#paint16_linear_690_7146)"/>
<path opacity="0.7" d="M94.2239 205.218C94.2239 205.218 92.875 210.848 92.875 214.733C92.875 218.619 98.533 232.228 100.62 234.916C101.948 236.627 101.368 241.973 101.948 243.102C102.528 244.231 102.861 245.057 104.475 245.057C106.088 245.057 110.062 243.077 110.062 243.077L94.2239 205.218Z" fill="url(#paint17_linear_690_7146)"/>
<path opacity="0.5" d="M113.303 192.84C113.303 192.84 111.721 199.12 109.629 206.524L107.59 207L104.32 214.734L99.8828 204.758L113.303 192.84Z" fill="url(#paint18_linear_690_7146)"/>
<path d="M135.186 270.025L95.4991 279.305L88.8164 251.082L128.503 241.802L135.186 270.025Z" fill="url(#paint19_linear_690_7146)"/>
<path d="M114.134 239.476L107.384 241.054L100.633 242.632L99.3516 248.618L101.947 248.011L102.203 244.306L107.842 242.988L113.48 241.67L115.372 244.872L117.967 244.265L114.134 239.476Z" fill="url(#paint20_linear_690_7146)"/>
<path d="M127.355 255.996L111.782 259.637L96.2088 263.278L89.8594 252.875L95.776 265.21L112.193 261.371L128.61 257.532L128.371 243.87L127.355 255.996Z" fill="url(#paint21_linear_690_7146)"/>
<path d="M115.042 261.773L109.825 262.993L108.242 259.501L114.891 257.946L115.042 261.773Z" fill="url(#paint22_linear_690_7146)"/>
<path d="M110.883 238.355C110.371 237.795 109.58 237.427 109.12 236.931C108.659 236.435 108.02 235.307 108.02 235.307L104.318 210.921L109.48 199.057L97.018 195.192C97.018 195.192 93.1621 207.56 93.4056 210.305C94.2358 219.672 101.4 231.414 103.184 236.993C103.641 238.422 102.484 241.427 103.35 242.674C104.093 243.744 104.639 244.614 105.381 244.64C106.124 244.665 110.002 243.988 110.513 243.58C110.932 243.245 110.551 241.104 110.551 241.104C112.113 242.3 112.575 241.562 112.523 241.308C112.471 241.053 111.395 238.915 110.883 238.355Z" fill="#F39C94"/>
<path d="M113.01 193.622C113.01 193.622 109.961 201.538 108.363 204.757C101.7 203.855 97.0612 201.732 94.7344 200.437C98.0173 188.042 98.527 186.313 102.405 183.488C105.83 180.992 111.61 183.303 112.862 185.315C115.112 188.929 113.01 193.622 113.01 193.622Z" fill="url(#paint23_linear_690_7146)"/>
<path d="M117.045 182.904L115.009 183.361L113.75 182.372L114.021 178.88C114.021 178.88 114.632 178.752 115.069 178.715C115.529 179.277 116.419 180.581 117.045 182.904Z" fill="url(#paint24_linear_690_7146)"/>
<path d="M115.012 183.359C115.012 183.359 119.268 193.578 114.273 216.688C113.765 219.039 119.021 225.456 119.846 225.479C120.749 225.503 122.065 219.942 122.23 217.737C122.514 213.919 122.022 196.066 117.046 182.903L115.012 183.359Z" fill="url(#paint25_linear_690_7146)"/>
<path d="M102.281 178.001L104.149 174.637C104.149 174.637 106.069 175.831 107.958 176.64C111.296 178.07 114.271 178.473 114.271 178.473L113.636 183.413C113.636 183.413 105.819 181.844 102.281 178.001Z" fill="url(#paint26_linear_690_7146)"/>
<path d="M107.374 164.412C107.374 164.412 106.447 164.631 106.502 165.933C106.557 167.234 107.203 167.888 107.811 167.76C108.42 167.631 108.162 166.794 108.014 166.355C107.866 165.915 108.549 165.585 108.531 165.072C108.513 164.558 107.988 164.228 107.374 164.412Z" fill="#F39C94"/>
<path d="M147.808 300.73C147.808 300.73 146.584 303.593 146.38 304.961C146.177 306.329 146.89 308.646 146.89 308.646H167.537C167.537 308.646 167.995 307.038 166.823 305.468C165.65 303.897 155.072 300.73 155.072 300.73H147.808Z" fill="url(#paint27_linear_690_7146)"/>
<path d="M118.887 162.201C119.031 162.652 118.942 163.081 118.689 163.161C118.437 163.241 118.115 162.94 117.971 162.491C117.827 162.04 117.916 161.611 118.169 161.532C118.422 161.451 118.743 161.752 118.887 162.201Z" fill="url(#paint28_linear_690_7146)"/>
<path d="M118.819 160.107C118.819 160.107 118.118 159.966 117.438 160.319C116.417 160.848 116.086 162.186 116.258 162.346C116.43 162.505 116.848 161.348 117.801 160.944C118.201 160.774 118.753 160.868 118.904 160.791C119.068 160.709 119.152 160.194 118.819 160.107Z" fill="url(#paint29_linear_690_7146)"/>
<path d="M121.492 168.168L118.836 168.615C118.836 168.615 119.334 169.634 120.534 169.526C121.472 169.443 121.492 168.168 121.492 168.168Z" fill="white"/>
<path d="M52.6745 240.947C52.6745 243.484 50.6047 245.54 48.0517 245.54C45.4987 245.54 43.4297 243.483 43.4297 240.947C43.4297 238.41 45.4994 236.354 48.0517 236.354C50.6047 236.354 52.6745 238.41 52.6745 240.947Z" fill="url(#paint30_linear_690_7146)"/>
<path d="M75.0587 47.3267C75.0587 48.6665 73.9654 49.753 72.6172 49.753C71.2691 49.753 70.1758 48.6665 70.1758 47.3267C70.1758 45.9869 71.2691 44.9004 72.6172 44.9004C73.9654 44.9004 75.0587 45.9869 75.0587 47.3267Z" fill="url(#paint31_linear_690_7146)"/>
<path d="M331.393 193.919C332.536 193.919 333.462 192.998 333.462 191.863C333.462 190.727 332.536 189.807 331.393 189.807C330.251 189.807 329.324 190.727 329.324 191.863C329.324 192.998 330.251 193.919 331.393 193.919Z" fill="url(#paint32_linear_690_7146)"/>
<path d="M135.316 127.48C135.887 127.48 136.35 127.02 136.35 126.452C136.35 125.884 135.887 125.424 135.316 125.424C134.744 125.424 134.281 125.884 134.281 126.452C134.281 127.02 134.744 127.48 135.316 127.48Z" fill="url(#paint33_linear_690_7146)"/>
<path d="M317.323 299.768C318.466 299.768 319.392 298.847 319.392 297.711C319.392 296.576 318.466 295.655 317.323 295.655C316.18 295.655 315.254 296.576 315.254 297.711C315.254 298.847 316.18 299.768 317.323 299.768Z" fill="url(#paint34_linear_690_7146)"/>
<path d="M156.595 215.248C158.524 215.248 160.088 213.694 160.088 211.776C160.088 209.859 158.524 208.305 156.595 208.305C154.666 208.305 153.102 209.859 153.102 211.776C153.102 213.694 154.666 215.248 156.595 215.248Z" fill="url(#paint35_linear_690_7146)"/>
<path d="M141.858 127.48C144.285 127.48 146.252 125.525 146.252 123.113C146.252 120.702 144.285 118.747 141.858 118.747C139.432 118.747 137.465 120.702 137.465 123.113C137.465 125.525 139.432 127.48 141.858 127.48Z" fill="url(#paint36_linear_690_7146)"/>
<path d="M184.864 171.114C187.669 171.114 189.943 168.855 189.943 166.067C189.943 163.279 187.669 161.02 184.864 161.02C182.059 161.02 179.785 163.279 179.785 166.067C179.785 168.855 182.059 171.114 184.864 171.114Z" fill="url(#paint37_linear_690_7146)"/>
<path d="M322.983 222.211H320.869V220.11C320.869 219.678 320.517 219.328 320.082 219.328C319.647 219.328 319.295 219.678 319.295 220.11V222.211H317.181C316.747 222.211 316.395 222.561 316.395 222.992C316.395 223.424 316.747 223.775 317.181 223.775H319.295V225.876C319.295 226.307 319.647 226.657 320.082 226.657C320.516 226.657 320.869 226.307 320.869 225.876V223.775H322.983C323.417 223.775 323.769 223.425 323.769 222.992C323.769 222.56 323.417 222.211 322.983 222.211Z" fill="url(#paint38_linear_690_7146)"/>
<path d="M342.945 303.914H340.83V301.813C340.83 301.381 340.478 301.031 340.044 301.031C339.61 301.031 339.257 301.381 339.257 301.813V303.914H337.143C336.708 303.914 336.355 304.264 336.355 304.696C336.355 305.128 336.708 305.478 337.143 305.478H339.257V307.579C339.257 308.01 339.609 308.36 340.044 308.36C340.479 308.36 340.83 308.01 340.83 307.579V305.478H342.945C343.379 305.478 343.732 305.128 343.732 304.696C343.732 304.264 343.38 303.914 342.945 303.914Z" fill="url(#paint39_linear_690_7146)"/>
<path d="M166.324 243.088H164.209V240.987C164.209 240.555 163.857 240.205 163.423 240.205C162.989 240.205 162.636 240.555 162.636 240.987V243.088H160.522C160.087 243.088 159.734 243.438 159.734 243.87C159.734 244.302 160.086 244.652 160.522 244.652H162.636V246.753C162.636 247.184 162.988 247.534 163.423 247.534C163.858 247.534 164.209 247.184 164.209 246.753V244.652H166.324C166.758 244.652 167.11 244.302 167.11 243.87C167.11 243.438 166.759 243.088 166.324 243.088Z" fill="url(#paint40_linear_690_7146)"/>
<path d="M71.8306 259.771H69.7164V257.67C69.7164 257.239 69.3643 256.889 68.93 256.889C68.4957 256.889 68.1428 257.239 68.1428 257.67V259.771H66.0286C65.5943 259.771 65.2422 260.121 65.2422 260.554C65.2422 260.986 65.5943 261.335 66.0286 261.335H68.1428V263.436C68.1428 263.868 68.4949 264.218 68.93 264.218C69.3643 264.218 69.7164 263.869 69.7164 263.436V261.335H71.8306C72.2649 261.335 72.6178 260.985 72.6178 260.554C72.6178 260.122 72.2649 259.771 71.8306 259.771Z" fill="url(#paint41_linear_690_7146)"/>
<path d="M169.388 141.919H168.105V140.644C168.105 140.382 167.892 140.17 167.628 140.17C167.364 140.17 167.15 140.382 167.15 140.644V141.919H165.868C165.604 141.919 165.391 142.132 165.391 142.393C165.391 142.655 165.604 142.867 165.868 142.867H167.15V144.142C167.15 144.404 167.365 144.616 167.628 144.616C167.892 144.616 168.105 144.404 168.105 144.142V142.867H169.388C169.651 142.867 169.865 142.655 169.865 142.393C169.865 142.131 169.651 141.919 169.388 141.919Z" fill="url(#paint42_linear_690_7146)"/>
<path d="M30.3524 121.015H29.0699V119.74C29.0699 119.478 28.8565 119.266 28.5926 119.266C28.3287 119.266 28.1153 119.478 28.1153 119.74V121.015H26.8328C26.5689 121.015 26.3555 121.227 26.3555 121.489C26.3555 121.751 26.5696 121.963 26.8328 121.963H28.1153V123.238C28.1153 123.5 28.3287 123.712 28.5926 123.712C28.8565 123.712 29.0699 123.5 29.0699 123.238V121.963H30.3524C30.6163 121.963 30.8297 121.751 30.8297 121.489C30.8297 121.227 30.6163 121.015 30.3524 121.015Z" fill="url(#paint43_linear_690_7146)"/>
<path d="M99.3329 34.7616H98.0503V33.487C98.0503 33.2248 97.837 33.0127 97.5731 33.0127C97.3092 33.0127 97.0958 33.2248 97.0958 33.487V34.7616H95.8132C95.5493 34.7616 95.3359 34.9744 95.3359 35.2359C95.3359 35.4982 95.5493 35.7102 95.8132 35.7102H97.0958V36.9848C97.0958 37.2471 97.3092 37.4591 97.5731 37.4591C97.837 37.4591 98.0503 37.2471 98.0503 36.9848V35.7102H99.3329C99.5968 35.7102 99.8102 35.4982 99.8102 35.2359C99.8102 34.9737 99.596 34.7616 99.3329 34.7616Z" fill="url(#paint44_linear_690_7146)"/>
<path d="M194.134 45.523H192.513V43.912C192.513 43.5808 192.243 43.3125 191.91 43.3125C191.576 43.3125 191.306 43.5808 191.306 43.912V45.523H189.685C189.352 45.523 189.082 45.7912 189.082 46.1224C189.082 46.4536 189.352 46.7219 189.685 46.7219H191.306V48.3329C191.306 48.6641 191.576 48.9324 191.91 48.9324C192.243 48.9324 192.513 48.6641 192.513 48.3329V46.7219H194.134C194.467 46.7219 194.737 46.4536 194.737 46.1224C194.737 45.7912 194.467 45.523 194.134 45.523Z" fill="url(#paint45_linear_690_7146)"/>
<path d="M86.5024 114.357H84.6438V112.51C84.6438 112.13 84.3339 111.823 83.9524 111.823C83.5701 111.823 83.261 112.131 83.261 112.51V114.357H81.4024C81.0201 114.357 80.7109 114.665 80.7109 115.045C80.7109 115.424 81.0208 115.732 81.4024 115.732H83.261V117.579C83.261 117.959 83.5709 118.266 83.9524 118.266C84.3347 118.266 84.6438 117.958 84.6438 117.579V115.732H86.5024C86.8847 115.732 87.1938 115.424 87.1938 115.045C87.1946 114.665 86.8847 114.357 86.5024 114.357Z" fill="url(#paint46_linear_690_7146)"/>
<path d="M122.023 342.573H197.037" stroke="#282734" stroke-width="0.754" stroke-miterlimit="10" stroke-linecap="round" stroke-linejoin="round"/>
<path d="M72.6172 342.573H112.863" stroke="#282734" stroke-width="0.754" stroke-miterlimit="10" stroke-linecap="round" stroke-linejoin="round"/>
<path d="M174.879 308.646H222.033" stroke="#282734" stroke-width="0.754" stroke-miterlimit="10" stroke-linecap="round" stroke-linejoin="round"/>
<path d="M144.457 308.646H168.727" stroke="#282734" stroke-width="0.754" stroke-miterlimit="10" stroke-linecap="round" stroke-linejoin="round"/>
<path d="M206.281 279.694H251.165" stroke="#282734" stroke-width="0.754" stroke-miterlimit="10" stroke-linecap="round" stroke-linejoin="round"/>
<defs>
<linearGradient id="paint0_linear_690_7146" x1="318.487" y1="314.527" x2="167.056" y2="80.2056" gradientUnits="userSpaceOnUse">
<stop stop-color="#FF9C00"/>
<stop offset="1" stop-color="#FFCA00"/>
</linearGradient>
<linearGradient id="paint1_linear_690_7146" x1="301.735" y1="68.904" x2="301.735" y2="357.936" gradientUnits="userSpaceOnUse">
<stop offset="0.0056" stop-color="#FFA700"/>
<stop offset="1" stop-color="#D65000"/>
</linearGradient>
<linearGradient id="paint2_linear_690_7146" x1="250.143" y1="353.792" x2="250.143" y2="220.938" gradientUnits="userSpaceOnUse">
<stop stop-color="#E6F4FF"/>
<stop offset="1" stop-color="#E1F0FF"/>
</linearGradient>
<linearGradient id="paint3_linear_690_7146" x1="280.874" y1="335.352" x2="180.939" y2="254.213" gradientUnits="userSpaceOnUse">
<stop stop-color="#4CCEC1"/>
<stop offset="1" stop-color="#93FFE2"/>
</linearGradient>
<linearGradient id="paint4_linear_690_7146" x1="247.346" y1="333.699" x2="146.337" y2="279.202" gradientUnits="userSpaceOnUse">
<stop stop-color="#4CCEC1"/>
<stop offset="1" stop-color="#93FFE2"/>
</linearGradient>
<linearGradient id="paint5_linear_690_7146" x1="224.538" y1="339.407" x2="117.031" y2="306.07" gradientUnits="userSpaceOnUse">
<stop stop-color="#A939F8"/>
<stop offset="1" stop-color="#E559FF"/>
</linearGradient>
<linearGradient id="paint6_linear_690_7146" x1="123.631" y1="320.775" x2="172.912" y2="354.241" gradientUnits="userSpaceOnUse">
<stop stop-color="#A939F8"/>
<stop offset="1" stop-color="#E559FF"/>
</linearGradient>
<linearGradient id="paint7_linear_690_7146" x1="131.368" y1="304.286" x2="184.126" y2="340.114" gradientUnits="userSpaceOnUse">
<stop stop-color="#A939F8"/>
<stop offset="1" stop-color="#E559FF"/>
</linearGradient>
<linearGradient id="paint8_linear_690_7146" x1="135.552" y1="288.559" x2="197.804" y2="330.835" gradientUnits="userSpaceOnUse">
<stop stop-color="#A939F8"/>
<stop offset="1" stop-color="#E559FF"/>
</linearGradient>
<linearGradient id="paint9_linear_690_7146" x1="140.254" y1="286.603" x2="199.844" y2="327.071" gradientUnits="userSpaceOnUse">
<stop stop-color="#A939F8"/>
<stop offset="1" stop-color="#E559FF"/>
</linearGradient>
<linearGradient id="paint10_linear_690_7146" x1="164.176" y1="288.368" x2="209.536" y2="319.172" gradientUnits="userSpaceOnUse">
<stop stop-color="#A939F8"/>
<stop offset="1" stop-color="#E559FF"/>
</linearGradient>
<linearGradient id="paint11_linear_690_7146" x1="108.725" y1="144.678" x2="111.792" y2="170.584" gradientUnits="userSpaceOnUse">
<stop stop-color="#3F47B4"/>
<stop offset="1" stop-color="#171D6D"/>
</linearGradient>
<linearGradient id="paint12_linear_690_7146" x1="129.992" y1="325.372" x2="129.992" y2="234.518" gradientUnits="userSpaceOnUse">
<stop stop-color="#2F3872"/>
<stop offset="1" stop-color="#1C134B"/>
</linearGradient>
<linearGradient id="paint13_linear_690_7146" x1="78.8152" y1="330.607" x2="101.135" y2="330.607" gradientUnits="userSpaceOnUse">
<stop stop-color="#5FA3FA"/>
<stop offset="1" stop-color="#3768EE"/>
</linearGradient>
<linearGradient id="paint14_linear_690_7146" x1="100.062" y1="319.835" x2="100.062" y2="233.969" gradientUnits="userSpaceOnUse">
<stop stop-color="#2F3872"/>
<stop offset="1" stop-color="#1C134B"/>
</linearGradient>
<linearGradient id="paint15_linear_690_7146" x1="118.317" y1="181.977" x2="117.416" y2="198.199" gradientUnits="userSpaceOnUse">
<stop stop-color="#5FA3FA"/>
<stop offset="1" stop-color="#3768EE"/>
</linearGradient>
<linearGradient id="paint16_linear_690_7146" x1="119.54" y1="200.348" x2="85.4604" y2="212.173" gradientUnits="userSpaceOnUse">
<stop stop-color="#5FA3FA"/>
<stop offset="1" stop-color="#3768EE"/>
</linearGradient>
<linearGradient id="paint17_linear_690_7146" x1="92.8753" y1="225.137" x2="110.062" y2="225.137" gradientUnits="userSpaceOnUse">
<stop stop-color="#5FA3FA"/>
<stop offset="1" stop-color="#3768EE"/>
</linearGradient>
<linearGradient id="paint18_linear_690_7146" x1="99.8819" y1="203.787" x2="113.302" y2="203.787" gradientUnits="userSpaceOnUse">
<stop stop-color="#5FA3FA"/>
<stop offset="1" stop-color="#3768EE"/>
</linearGradient>
<linearGradient id="paint19_linear_690_7146" x1="107.854" y1="243.035" x2="115.356" y2="275.122" gradientUnits="userSpaceOnUse">
<stop stop-color="#7719F1"/>
<stop offset="1" stop-color="#2A1CFF"/>
</linearGradient>
<linearGradient id="paint20_linear_690_7146" x1="108.828" y1="247.154" x2="106.937" y2="239.066" gradientUnits="userSpaceOnUse">
<stop stop-color="#FF9C00"/>
<stop offset="1" stop-color="#FFCA00"/>
</linearGradient>
<linearGradient id="paint21_linear_690_7146" x1="112.599" y1="263.089" x2="108.037" y2="243.576" gradientUnits="userSpaceOnUse">
<stop stop-color="#7719F1"/>
<stop offset="1" stop-color="#2A1CFF"/>
</linearGradient>
<linearGradient id="paint22_linear_690_7146" x1="112.548" y1="262.866" x2="111.263" y2="257.373" gradientUnits="userSpaceOnUse">
<stop stop-color="#FF9C00"/>
<stop offset="1" stop-color="#FFCA00"/>
</linearGradient>
<linearGradient id="paint23_linear_690_7146" x1="116.058" y1="190.34" x2="81.8781" y2="202.2" gradientUnits="userSpaceOnUse">
<stop stop-color="#5FA3FA"/>
<stop offset="1" stop-color="#3768EE"/>
</linearGradient>
<linearGradient id="paint24_linear_690_7146" x1="114.991" y1="177.403" x2="118.78" y2="226.812" gradientUnits="userSpaceOnUse">
<stop stop-color="#2F3872"/>
<stop offset="1" stop-color="#1C134B"/>
</linearGradient>
<linearGradient id="paint25_linear_690_7146" x1="115.381" y1="177.353" x2="119.182" y2="226.933" gradientUnits="userSpaceOnUse">
<stop stop-color="#2F3872"/>
<stop offset="1" stop-color="#1C134B"/>
</linearGradient>
<linearGradient id="paint26_linear_690_7146" x1="114.647" y1="181.315" x2="100.545" y2="176.053" gradientUnits="userSpaceOnUse">
<stop stop-color="#5FA3FA"/>
<stop offset="1" stop-color="#3768EE"/>
</linearGradient>
<linearGradient id="paint27_linear_690_7146" x1="146.343" y1="304.688" x2="167.625" y2="304.688" gradientUnits="userSpaceOnUse">
<stop stop-color="#5FA3FA"/>
<stop offset="1" stop-color="#3768EE"/>
</linearGradient>
<linearGradient id="paint28_linear_690_7146" x1="118.354" y1="161.94" x2="118.581" y2="163.175" gradientUnits="userSpaceOnUse">
<stop stop-color="#2F3872"/>
<stop offset="1" stop-color="#1C134B"/>
</linearGradient>
<linearGradient id="paint29_linear_690_7146" x1="117.716" y1="160.629" x2="117.484" y2="162.497" gradientUnits="userSpaceOnUse">
<stop stop-color="#2F3872"/>
<stop offset="1" stop-color="#1C134B"/>
</linearGradient>
<linearGradient id="paint30_linear_690_7146" x1="57.5118" y1="250.348" x2="46.5444" y2="239.312" gradientUnits="userSpaceOnUse">
<stop stop-color="white"/>
<stop offset="1" stop-color="#E6F4FF"/>
</linearGradient>
<linearGradient id="paint31_linear_690_7146" x1="77.6141" y1="52.2925" x2="71.8208" y2="46.463" gradientUnits="userSpaceOnUse">
<stop stop-color="white"/>
<stop offset="1" stop-color="#E6F4FF"/>
</linearGradient>
<linearGradient id="paint32_linear_690_7146" x1="335.628" y1="196.07" x2="330.719" y2="191.131" gradientUnits="userSpaceOnUse">
<stop stop-color="white"/>
<stop offset="1" stop-color="#E6F4FF"/>
</linearGradient>
<linearGradient id="paint33_linear_690_7146" x1="137.433" y1="128.556" x2="134.978" y2="126.086" gradientUnits="userSpaceOnUse">
<stop stop-color="white"/>
<stop offset="1" stop-color="#E6F4FF"/>
</linearGradient>
<linearGradient id="paint34_linear_690_7146" x1="321.557" y1="301.92" x2="316.648" y2="296.98" gradientUnits="userSpaceOnUse">
<stop stop-color="white"/>
<stop offset="1" stop-color="#E6F4FF"/>
</linearGradient>
<linearGradient id="paint35_linear_690_7146" x1="163.744" y1="218.881" x2="155.455" y2="210.54" gradientUnits="userSpaceOnUse">
<stop stop-color="white"/>
<stop offset="1" stop-color="#E6F4FF"/>
</linearGradient>
<linearGradient id="paint36_linear_690_7146" x1="150.85" y1="132.049" x2="140.425" y2="121.559" gradientUnits="userSpaceOnUse">
<stop stop-color="white"/>
<stop offset="1" stop-color="#E6F4FF"/>
</linearGradient>
<linearGradient id="paint37_linear_690_7146" x1="195.258" y1="176.396" x2="183.208" y2="164.27" gradientUnits="userSpaceOnUse">
<stop stop-color="white"/>
<stop offset="1" stop-color="#E6F4FF"/>
</linearGradient>
<linearGradient id="paint38_linear_690_7146" x1="322.17" y1="226.156" x2="318.477" y2="220.491" gradientUnits="userSpaceOnUse">
<stop stop-color="#FF9C00"/>
<stop offset="1" stop-color="#FFCA00"/>
</linearGradient>
<linearGradient id="paint39_linear_690_7146" x1="342.132" y1="307.86" x2="338.439" y2="302.194" gradientUnits="userSpaceOnUse">
<stop stop-color="#FF9C00"/>
<stop offset="1" stop-color="#FFCA00"/>
</linearGradient>
<linearGradient id="paint40_linear_690_7146" x1="165.51" y1="247.034" x2="161.818" y2="241.368" gradientUnits="userSpaceOnUse">
<stop stop-color="#FF9C00"/>
<stop offset="1" stop-color="#FFCA00"/>
</linearGradient>
<linearGradient id="paint41_linear_690_7146" x1="71.017" y1="263.717" x2="67.3245" y2="258.052" gradientUnits="userSpaceOnUse">
<stop stop-color="#FF9C00"/>
<stop offset="1" stop-color="#FFCA00"/>
</linearGradient>
<linearGradient id="paint42_linear_690_7146" x1="168.894" y1="144.312" x2="166.654" y2="140.875" gradientUnits="userSpaceOnUse">
<stop stop-color="#FF9C00"/>
<stop offset="1" stop-color="#FFCA00"/>
</linearGradient>
<linearGradient id="paint43_linear_690_7146" x1="29.8591" y1="123.408" x2="27.6189" y2="119.971" gradientUnits="userSpaceOnUse">
<stop stop-color="#FF9C00"/>
<stop offset="1" stop-color="#FFCA00"/>
</linearGradient>
<linearGradient id="paint44_linear_690_7146" x1="98.8393" y1="37.1554" x2="96.5991" y2="33.7183" gradientUnits="userSpaceOnUse">
<stop stop-color="#FF9C00"/>
<stop offset="1" stop-color="#FFCA00"/>
</linearGradient>
<linearGradient id="paint45_linear_690_7146" x1="193.51" y1="48.5481" x2="190.679" y2="44.2046" gradientUnits="userSpaceOnUse">
<stop stop-color="#FF9C00"/>
<stop offset="1" stop-color="#FFCA00"/>
</linearGradient>
<linearGradient id="paint46_linear_690_7146" x1="85.7877" y1="117.826" x2="82.5415" y2="112.845" gradientUnits="userSpaceOnUse">
<stop stop-color="#FF9C00"/>
<stop offset="1" stop-color="#FFCA00"/>
</linearGradient>
</defs>
</svg>
