<svg width="18" height="13" viewBox="0 0 18 13" fill="none" xmlns="http://www.w3.org/2000/svg">
<path d="M1.87508 0H8.07663C8.40558 0 8.72105 0.131696 8.95366 0.366117C9.18626 0.600537 9.31694 0.918479 9.31694 1.25C9.31694 1.58152 9.18626 1.89946 8.95366 2.13388C8.72105 2.3683 8.40558 2.5 8.07663 2.5H1.87508C1.54612 2.5 1.23065 2.3683 0.998044 2.13388C0.765441 1.89946 0.634766 1.58152 0.634766 1.25C0.634766 0.918479 0.765441 0.600537 0.998044 0.366117C1.23065 0.131696 1.54612 0 1.87508 0ZM10.5572 10H16.7588C17.0877 10 17.4032 10.1317 17.6358 10.3661C17.8684 10.6005 17.9991 10.9185 17.9991 11.25C17.9991 11.5815 17.8684 11.8995 17.6358 12.1339C17.4032 12.3683 17.0877 12.5 16.7588 12.5H10.5572C10.2283 12.5 9.91282 12.3683 9.68021 12.1339C9.44761 11.8995 9.31694 11.5815 9.31694 11.25C9.31694 10.9185 9.44761 10.6005 9.68021 10.3661C9.91282 10.1317 10.2283 10 10.5572 10ZM1.87508 5H16.7588C17.0877 5 17.4032 5.1317 17.6358 5.36612C17.8684 5.60054 17.9991 5.91848 17.9991 6.25C17.9991 6.58152 17.8684 6.89946 17.6358 7.13388C17.4032 7.3683 17.0877 7.5 16.7588 7.5H1.87508C1.54612 7.5 1.23065 7.3683 0.998044 7.13388C0.765441 6.89946 0.634766 6.58152 0.634766 6.25C0.634766 5.91848 0.765441 5.60054 0.998044 5.36612C1.23065 5.1317 1.54612 5 1.87508 5Z" fill="black"/>
</svg>
