<svg width="25" height="25" viewBox="0 0 25 25" fill="none" xmlns="http://www.w3.org/2000/svg">
<g clip-path="url(#clip0_667_35907)">
<path d="M10.1562 20.3125H8.59375C5.54688 20.3125 3.125 17.8906 3.125 14.8438V13.2812H4.6875V14.8438C4.6875 17.0312 6.40625 18.75 8.59375 18.75H10.1562V20.3125ZM14.0625 14.0625H21.875C22.7344 14.0625 23.4375 14.7656 23.4375 15.625V20.3125C23.4375 21.1719 22.7344 21.875 21.875 21.875H20L18.6719 24.2188L17.3438 23.4375L19.1406 20.3125H21.875V15.625H14.0625V20.3125H16.4062V21.875H14.0625C13.2031 21.875 12.5 21.1719 12.5 20.3125V15.625C12.5 14.7656 13.2031 14.0625 14.0625 14.0625ZM21.875 10.9375H20.3125V9.375C20.3125 7.1875 18.5938 5.46875 16.4062 5.46875H13.2812V3.90625H16.4062C19.4531 3.90625 21.875 6.32812 21.875 9.375V10.9375ZM1.5625 8.59375H6.25V10.1562H1.5625V8.59375ZM1.5625 5.46875H10.9375V7.03125H1.5625V5.46875ZM1.5625 2.34375H10.9375V3.90625H1.5625V2.34375Z" fill="#8B8B8B" fill-opacity="0.5"/>
</g>
<defs>
<clipPath id="clip0_667_35907">
<rect width="25" height="25" fill="white"/>
</clipPath>
</defs>
</svg>
