<svg width="18" height="18" viewBox="0 0 18 18" fill="none" xmlns="http://www.w3.org/2000/svg">
<path d="M4.5 0C3.88125 0 3.375 0.50625 3.375 1.125V16.875C3.375 17.4937 3.88125 18 4.5 18H15.75C16.3687 18 16.875 17.4937 16.875 16.875V4.5L12.375 0H4.5Z" fill="#E2E5E7"/>
<path d="M13.5 4.5H16.875L12.375 0V3.375C12.375 3.99375 12.8812 4.5 13.5 4.5Z" fill="#B0B7BD"/>
<path d="M16.875 7.875L13.5 4.5H16.875V7.875Z" fill="#CAD1D8"/>
<path d="M14.625 14.625C14.625 14.9344 14.3719 15.1875 14.0625 15.1875H1.6875C1.37812 15.1875 1.125 14.9344 1.125 14.625V9C1.125 8.69062 1.37812 8.4375 1.6875 8.4375H14.0625C14.3719 8.4375 14.625 8.69062 14.625 9V14.625Z" fill="#F15642"/>
<path d="M3.5769 10.6577C3.5769 10.5092 3.6939 10.3472 3.88234 10.3472H4.92128C5.50628 10.3472 6.03278 10.7387 6.03278 11.489C6.03278 12.2 5.50628 12.596 4.92128 12.596H4.17034V13.19C4.17034 13.388 4.04434 13.5 3.88234 13.5C3.73384 13.5 3.5769 13.388 3.5769 13.19V10.6577ZM4.17034 10.9136V12.0341H4.92128C5.22278 12.0341 5.46128 11.768 5.46128 11.489C5.46128 11.1746 5.22278 10.9136 4.92128 10.9136H4.17034Z" fill="white"/>
<path d="M6.91365 13.5C6.76515 13.5 6.60315 13.419 6.60315 13.2216V10.6667C6.60315 10.5053 6.76515 10.3877 6.91365 10.3877H7.94359C9.99896 10.3877 9.95396 13.5 7.98409 13.5H6.91365ZM7.19715 10.9367V12.9516H7.94359C9.15802 12.9516 9.21202 10.9367 7.94359 10.9367H7.19715Z" fill="white"/>
<path d="M10.683 10.9728V11.6877H11.8299C11.9919 11.6877 12.1539 11.8497 12.1539 12.0066C12.1539 12.1551 11.9919 12.2766 11.8299 12.2766H10.683V13.2211C10.683 13.3786 10.571 13.4995 10.4135 13.4995C10.2155 13.4995 10.0946 13.3786 10.0946 13.2211V10.6662C10.0946 10.5048 10.2161 10.3872 10.4135 10.3872H11.9925C12.1905 10.3872 12.3075 10.5048 12.3075 10.6662C12.3075 10.8102 12.1905 10.9722 11.9925 10.9722H10.683V10.9728Z" fill="white"/>
<path d="M14.0625 15.1875H3.375V15.75H14.0625C14.3719 15.75 14.625 15.4969 14.625 15.1875V14.625C14.625 14.9344 14.3719 15.1875 14.0625 15.1875Z" fill="#CAD1D8"/>
</svg>
