<svg width="155" height="145" viewBox="0 0 155 145" fill="none" xmlns="http://www.w3.org/2000/svg">
<path d="M114.11 90.1569C114.11 90.1569 115.021 86.0305 115.341 85.6478C115.661 85.2643 118.49 84.1361 118.904 83.1881C119.318 82.2401 121.646 80.1547 121.074 79.0991C120.597 78.2199 120.551 76.8617 118.966 77.3773C117.712 77.7852 116.401 77.2658 116.088 78.4315C115.441 80.8491 110.944 81.228 110.495 84.3247C109.896 86.6408 108.402 89.1349 108.402 89.1349L114.11 90.1569Z" fill="#F79D79"/>
<path d="M125.447 84.2674C125.447 89.2585 129.96 95.0495 136.095 93.6814C144.541 91.7969 146.026 86.41 143.905 80.4159C146.027 72.6099 137.385 73.2859 131.105 73.5617C127.382 73.7251 125.447 79.277 125.447 84.2674Z" fill="#373362"/>
<path d="M125.991 80.2513C133.428 85.1156 127.918 82.4963 132.317 82.4963C136.717 82.4963 140.692 80.8524 142.846 78.9435C146.828 75.4144 139.074 71.9288 135.107 73.1732C124.422 67.6076 124.229 79.0986 125.991 80.2513Z" fill="#373362"/>
<path d="M105.175 105.726C105.175 105.726 108.569 107.129 110.435 107.6C112.955 108.191 115.297 108.58 120.376 109.754C120.576 108.124 122.328 104.473 123.664 101.304C125.077 97.948 126.074 95.0743 124.402 95.5082C118.928 96.9695 115 97.0336 114.22 96.9038C115.13 92.8904 114.491 91.19 115.177 87.24C115.56 85.0324 109.779 85.6229 109.779 85.6229C106.914 91.2228 104.829 94.1508 102.642 99.1603C101.552 101.684 102.679 104.588 105.175 105.726Z" fill="#FDC61C"/>
<path opacity="0.44" d="M105.174 105.726C105.174 105.726 108.568 107.129 110.434 107.6C112.954 108.191 115.296 108.58 120.375 109.754C120.575 108.124 122.327 104.473 123.663 101.304L119.321 98.9662C119.321 98.9662 116.757 102.204 114.418 103.75C111.72 105.532 111.115 106.385 105.174 105.726Z" fill="#FDC61C"/>
<path d="M110.241 135.015C109.96 136.501 113.857 138.591 120.809 139.395C125.43 139.917 131.417 139.877 138.409 138.752C138.449 137.908 137.887 135.577 137.767 134.814C137.325 131.76 137.445 127.662 137.968 123.482C138.249 121.393 140.62 110.222 140.62 110.222C141.182 107.971 142.543 106.71 142.783 104.902C143.265 101.527 141.182 98.0464 132.061 95.796C118.479 92.4205 115.867 105.199 115.184 108.253C114.3 110.785 113.376 115.405 112.612 118.058C111.125 123.441 110.683 132.564 110.241 135.015Z" fill="#FDC61C"/>
<path d="M103.93 181.306C104.09 182.351 106.221 209.153 106.221 209.153C106.221 209.153 112.811 211.202 113.012 209.273C113.012 209.273 116.83 182.189 116.869 180.502L118.316 175.56C118.316 175.48 118.356 175.439 118.356 175.359L126.473 147.311C128 142.529 136.635 141.27 119.537 138.661C111.794 137.479 110.923 135.912 110.239 135.015C110.03 136.339 109.354 139.636 109.114 141.806C109.064 142.246 104.452 170.014 103.93 175.921C103.89 176.605 103.85 177.528 103.809 178.332C103.73 178.975 103.85 181.306 103.93 181.306Z" fill="#57BBF8"/>
<path opacity="0.44" d="M120.809 139.395C125.429 139.918 131.417 139.877 138.409 138.752C138.449 137.909 137.887 135.577 137.767 134.814C137.324 131.76 137.445 127.662 137.968 123.482C138.249 121.393 140.62 110.222 140.62 110.222C141.182 107.972 142.026 105.963 142.267 104.154L134.673 102.748C134.673 102.748 132.701 110.694 136.139 117.476C138.704 122.536 135.775 129.071 135.614 130.478C135.413 131.884 135.596 135.177 132.703 136.824C129.81 138.472 124.385 138.552 121.974 138.591C121.331 138.631 120.97 138.953 120.809 139.395Z" fill="#FDC61C"/>
<path opacity="0.41" d="M116.906 159.316C116.906 169.003 117.498 178.371 116.87 180.502L121.005 165.072C122.532 160.29 124.571 153.79 119.615 148.19C116.231 146.663 115.102 144.346 114.605 144.358C113.514 144.386 116.906 150.252 116.906 159.316Z" fill="#57BBF8"/>
<path d="M119.844 162.098C119.924 165.112 120.808 177.328 121.893 181.265L122.496 182.993L122.576 183.194L122.857 183.877L123.099 184.319L123.982 186.047L130.291 198.544C130.332 198.585 130.332 198.624 130.371 198.665L132.903 203.688C132.903 203.729 132.943 203.768 132.943 203.768L134.51 206.903C134.51 206.943 134.551 206.943 134.551 206.983L137.363 212.528C138.287 214.577 144.476 212.568 144.033 210.72L137.845 185.404L136.64 181.104L135.957 178.854C135.957 178.854 135.917 178.492 135.877 177.809C135.796 176.121 135.596 172.746 135.676 170.858C135.796 168.205 135.354 156.954 138.328 148.958C139.172 146.708 139.252 142.85 138.81 139.836C138.81 139.756 138.81 139.715 138.81 139.715C138.65 138.59 138.448 137.586 138.167 136.822C137.845 138.71 134.389 139.353 129.648 139.595C124.464 139.876 120.687 138.59 119.522 138.67C119.482 140.56 119.723 156.111 119.844 162.098Z" fill="#57BBF8"/>
<path d="M125.51 136.421C125.551 136.702 125.711 137.024 125.992 137.346C126.555 138.069 127.56 138.712 128.403 138.672C129.649 138.632 131.698 138.551 133.225 137.627C134.752 136.702 136.078 135.256 137.243 134.573C137.323 134.532 137.364 134.492 137.404 134.412C137.605 134.131 137.565 133.729 137.404 133.207C137.324 132.965 137.203 132.684 137.042 132.403C136.56 131.399 135.837 130.474 135.837 130.474C135.837 130.474 133.868 131.801 133.104 131.801C132.341 131.841 129.207 131.519 128.363 132.524C127.519 133.528 125.43 135.417 125.51 136.421Z" fill="#F79D79"/>
<path opacity="0.56" d="M125.992 137.345C126.555 138.069 127.56 138.712 128.403 138.672C129.649 138.632 131.698 138.551 133.225 137.627C134.752 136.702 136.078 135.255 137.243 134.573C137.323 134.532 134.47 131.639 134.47 131.639C134.47 131.639 134.42 133.841 134.827 134.71C134.368 135.97 129.447 137.989 127.599 137.707C126.997 137.627 126.475 137.506 125.992 137.345Z" fill="#F79D79"/>
<path d="M134.528 130.852C133.966 131.133 135.633 135.633 136.276 135.473C137.642 135.192 141.343 133.608 142.508 133.246C143.673 132.885 144.838 132.483 146.004 132C148.334 131.036 150.464 129.63 152.956 128.143C155.286 126.737 154.563 123.361 154.563 123.361C154.121 121.312 153.639 120.387 153.197 119.343C152.715 118.258 148.134 110.382 146.286 106.846C141.665 97.9652 135.999 96.5589 135.155 99.4922C132.704 112.03 138.933 117.052 142.468 121.794C142.789 122.196 142.99 122.598 143.232 123.04C142.829 123.281 135.452 130.41 134.528 130.852Z" fill="#FDC61C"/>
<path opacity="0.44" d="M143.248 123.023C143.248 123.023 147.331 121.471 148.803 123.596C145.968 123.118 143.248 123.023 143.248 123.023Z" fill="#FDC61C"/>
<path opacity="0.44" d="M134.854 133.05C135.255 134.215 135.633 135.634 136.276 135.473C137.642 135.192 141.343 133.608 142.508 133.246C143.673 132.885 144.838 132.483 146.004 132.001C148.334 131.037 150.464 129.63 152.956 128.143C152.956 128.143 141.966 132.889 134.854 133.05Z" fill="#FDC61C"/>
<path opacity="0.44" d="M114.218 96.9032C114.218 96.9032 111.236 99.3812 109.514 99.3277C107.792 99.275 114.218 96.9032 114.218 96.9032Z" fill="#FDC61C"/>
<path opacity="0.41" d="M135.876 177.81C135.795 176.122 135.595 172.747 135.675 170.859C135.796 168.206 135.354 156.955 138.328 148.959C139.172 146.709 139.252 142.851 138.81 139.837C138.769 140.802 138.568 147.07 136.157 150.767C133.907 154.263 135.434 173.149 135.876 177.81Z" fill="#57BBF8"/>
<path d="M124.627 97.7645C126.555 99.7735 136.279 99.7735 134.793 96.5592C134.762 95.3996 135.592 94.0834 136.899 92.681C137.221 90.4711 128.861 88.2535 128.861 88.2535L125.31 95.4737C124.064 96.398 123.983 97.1618 124.627 97.7645Z" fill="#F79D79"/>
<path opacity="0.34" d="M128.402 98.1257C132.404 98.5084 136.651 92.2583 136.651 92.2583L128.273 89.2189L125.308 95.4735C124.063 96.3978 124.625 97.7643 128.402 98.1257Z" fill="#F79D79"/>
<path d="M125.46 81.3185C121.488 90.323 122.438 95.1194 128.262 95.4624C130.993 95.5625 134.862 93.6619 137.82 92.9859C145.001 90.2818 145.042 81.1863 140.469 77.7138C135.895 74.242 128.624 74.1465 125.46 81.3185Z" fill="#F79D79"/>
<path d="M127.313 78.3812C127.313 78.3812 127.228 79.1565 132.672 81.2411C133.886 81.7063 134.317 83.5198 133.583 84.5938C132.773 85.7785 132.647 86.9725 134.492 88.2535C134.502 89.5589 133.981 92.9246 135.884 93.8848C136.825 94.3599 148.047 89.7469 142.846 78.9426C136.956 66.7114 127.313 78.3812 127.313 78.3812Z" fill="#373362"/>
<path d="M133.691 87.822C133.238 89.7317 131.488 89.8165 132.133 90.5956C132.87 91.4863 134.482 91.3695 135.733 90.3344C136.985 89.2994 137.478 88.3858 136.408 87.0917C135.483 85.9734 134.065 86.2416 133.691 87.822Z" fill="#F79D79"/>
<path d="M123.861 89.1152C123.861 89.5911 124.188 89.9768 124.591 89.9768C124.993 89.9768 125.32 89.5911 125.32 89.1152C125.32 88.6393 124.994 88.2535 124.591 88.2535C124.188 88.2535 123.861 88.6393 123.861 89.1152Z" fill="#F1E0D2"/>
<path opacity="0.59" d="M131.212 85.9154C131.14 85.9154 131.07 85.8764 131.034 85.8077C131.003 85.7504 130.307 84.4663 128.892 84.875C128.789 84.9025 128.675 84.8429 128.645 84.7375C128.614 84.6321 128.675 84.519 128.782 84.4892C130.526 83.998 131.382 85.6098 131.391 85.6236C131.441 85.7221 131.402 85.8443 131.304 85.8947C131.275 85.9085 131.243 85.9154 131.212 85.9154Z" fill="#F79D79"/>
<path opacity="0.59" d="M126.535 83.9054C126.464 83.9054 126.393 83.8688 126.358 83.8C126.352 83.7908 125.748 82.6954 125.062 82.9727C124.957 83.0117 124.84 82.9636 124.8 82.8627C124.759 82.7596 124.807 82.6427 124.91 82.6007C125.944 82.1844 126.68 83.554 126.713 83.6113C126.764 83.7099 126.726 83.8298 126.629 83.8825C126.599 83.8986 126.567 83.9054 126.535 83.9054Z" fill="#F79D79"/>
<path opacity="0.36" d="M126.389 87.9152C126.388 87.9152 126.387 87.9152 126.385 87.9152C126.359 87.9152 125.751 87.8992 125.427 87.5111C125.259 87.3095 125.198 87.052 125.247 86.7465C125.405 85.7771 127.098 84.0477 127.169 83.9744C127.249 83.8919 127.376 83.8919 127.454 83.9721C127.533 84.05 127.533 84.1761 127.456 84.2547C126.99 84.7306 125.757 86.111 125.644 86.8107C125.614 86.9963 125.644 87.1414 125.735 87.2537C125.905 87.4584 126.268 87.5111 126.394 87.5157C126.504 87.518 126.592 87.6097 126.59 87.7204C126.588 87.8304 126.498 87.9152 126.389 87.9152Z" fill="#F79D79"/>
<path d="M132.797 133.992C131.778 133.968 130.746 133.783 129.759 133.706C129.467 133.691 129.418 133.662 129.235 133.661C129.059 133.666 128.844 133.706 128.626 133.766C128.186 133.888 127.724 134.07 127.261 134.283L127.439 134.091C127.175 134.39 126.958 134.639 126.738 134.979L126.726 134.997C126.571 135.237 126.25 135.305 126.011 135.149C125.771 134.994 125.703 134.674 125.859 134.434C125.902 134.368 125.959 134.314 126.022 134.275C126.252 134.133 126.427 133.844 126.484 133.567C126.49 133.539 126.504 133.515 126.524 133.498L126.663 133.373C127.058 133.019 127.476 132.658 127.971 132.347C128.221 132.191 128.488 132.043 128.812 131.923C129.129 131.78 129.602 131.765 129.824 131.771C130.895 131.777 131.92 131.742 132.956 131.865C133.541 131.934 133.96 132.465 133.89 133.05C133.824 133.601 133.339 134.004 132.797 133.992Z" fill="#F79D79"/>
<path d="M125.83 80.4925C125.819 80.4925 125.806 80.4902 125.794 80.4856C125.742 80.4673 125.718 80.41 125.737 80.3596C128.017 74.3998 134.741 75.923 134.808 75.9406C134.861 75.952 134.894 76.007 134.881 76.0597C134.87 76.1147 134.819 76.1468 134.762 76.1331C134.693 76.1193 128.141 74.6359 125.923 80.4299C125.908 80.4696 125.871 80.4925 125.83 80.4925Z" fill="#F1E0D2"/>
<path d="M135.885 93.9826C135.839 93.9826 135.8 93.9528 135.787 93.907C135.776 93.852 135.81 93.7993 135.863 93.7878C141.896 92.4235 142.003 82.8216 142.003 82.7254C142.005 82.6704 142.048 82.6268 142.103 82.6268C142.158 82.6268 142.202 82.6704 142.202 82.7254C142.202 82.8239 142.095 92.5847 135.907 93.9811C135.9 93.9826 135.893 93.9826 135.885 93.9826Z" fill="#F1E0D2"/>
<path d="M148.154 71.1053L147.875 71.663L147.338 72.7775L145.905 75.7237L145.307 76.9184L143.257 81.0991V81.119L142.66 82.3328L142.102 83.4878C141.605 83.9453 140.689 83.7467 139.653 83.1692C139.295 82.9699 138.917 82.7109 138.519 82.413C135.732 80.3024 132.785 76.3409 134.498 75.4449L138.817 74.0715L140.091 73.6735L143.416 72.6186L144.69 72.2007L148.154 71.1053Z" fill="#FC5954"/>
<path d="M137.348 78.091C137.348 78.4753 137.036 78.7877 136.652 78.7877C136.267 78.7877 135.955 78.476 135.955 78.091C135.955 77.7068 136.267 77.3951 136.652 77.3951C137.036 77.3944 137.348 77.706 137.348 78.091Z" fill="#57BBF8"/>
<path d="M142.303 77.4836C142.303 77.8679 141.992 78.1795 141.607 78.1795C141.223 78.1795 140.91 77.8679 140.91 77.4836C140.91 77.0987 141.222 76.787 141.607 76.787C141.992 76.7878 142.303 77.0994 142.303 77.4836Z" fill="#57BBF8"/>
<path d="M140.11 73.7536C140.11 74.1318 139.792 74.4503 139.414 74.4503C139.135 74.4503 138.896 74.2914 138.816 74.0722L140.091 73.6742C140.11 73.6933 140.11 73.7338 140.11 73.7536Z" fill="#57BBF8"/>
<path d="M139.731 82.8909C139.731 82.9902 139.712 83.0902 139.652 83.1697C139.294 82.9703 138.916 82.7114 138.518 82.4134C138.657 82.2737 138.836 82.1942 139.035 82.1942C139.413 82.1942 139.731 82.5128 139.731 82.8909Z" fill="#57BBF8"/>
<path d="M143.256 81.099V81.1188L142.658 82.3326C142.399 82.2532 142.221 81.9942 142.221 81.6956C142.221 81.3174 142.519 80.9989 142.917 80.9989C143.037 80.9997 143.156 81.0394 143.256 81.099Z" fill="#57BBF8"/>
<path d="M144.77 72.4789C144.77 72.857 144.451 73.1755 144.073 73.1755C143.754 73.1755 143.456 72.9364 143.416 72.6179L144.69 72.2001C144.75 72.2803 144.77 72.3796 144.77 72.4789Z" fill="#57BBF8"/>
<path d="M145.904 75.724L145.307 76.9187C145.008 76.8789 144.77 76.6001 144.77 76.2617C144.77 75.8836 145.088 75.5651 145.466 75.5651C145.625 75.5651 145.784 75.6247 145.904 75.724Z" fill="#57BBF8"/>
<path d="M147.874 71.663L147.337 72.7775C147.237 72.6583 147.178 72.5185 147.178 72.3596C147.178 71.9616 147.495 71.663 147.874 71.663Z" fill="#57BBF8"/>
<path opacity="0.44" d="M140.111 78.5096C137.058 79.1963 134.227 76.3646 134.497 75.4457C132.785 76.3417 135.732 80.3032 138.518 82.4138C138.916 82.7124 139.294 82.9714 139.653 83.17C140.688 83.7475 141.604 83.9461 142.102 83.4885L148.154 71.1053C148.154 71.1053 143.183 77.819 140.111 78.5096Z" fill="#FC5954"/>
<path d="M127.313 78.3812C127.313 78.3812 126.507 76.7488 127.585 75.8443C128.662 74.9399 133.988 74.0958 133.988 74.0958L134.062 75.9177L127.313 78.3812Z" fill="#373362"/>
<path d="M131.637 82.9995C131.271 82.6045 130.86 82.26 130.346 82.0286L130.126 81.9285C130.006 81.8743 129.89 81.9384 129.789 82.0286C129.542 82.2516 128.965 82.4311 129.395 82.9483C129.638 83.0758 129.733 82.8413 129.898 82.784C130.165 83.1988 130.498 83.5426 130.878 83.8336C131.319 84.146 131.818 84.3951 132.448 84.4997C132.284 83.8825 131.989 83.4097 131.637 82.9995Z" fill="#373362"/>
<path d="M128.169 81.239C127.748 81.0274 127.308 80.9533 126.859 80.9403C126.408 80.9472 125.946 81.0457 125.459 81.3192C125.857 81.7111 126.278 81.9265 126.711 82.051C127.077 82.1381 127.45 82.1633 127.834 82.1197C127.889 82.2488 127.787 82.3756 128.043 82.5108C128.362 82.5108 128.502 82.0533 128.546 81.7072C128.563 81.569 128.544 81.4277 128.417 81.3643L128.169 81.239Z" fill="#373362"/>
<path d="M107.629 67.5471L108.875 69.3552L109.919 70.8822L111.085 72.6101L112.411 74.5389L113.576 76.2668L114.742 77.9549L115.907 79.6828L117.354 81.772L118.6 83.5801L119.644 85.1071L120.729 86.7143C120.769 86.7143 120.809 86.754 120.849 86.754C121.532 86.9144 122.657 86.2315 122.657 85.5081L122.175 84.6648L120.648 82.0531L120.006 80.8882L118.559 78.4369L117.594 76.7488L116.067 74.0966V74.0561L115.304 72.811L113.737 70.0786C113.696 70.0381 113.696 70.0381 113.737 69.9984L113.054 68.8335L111.406 66.0201L110.964 65.2968L110.12 65.8597L107.629 67.5471Z" fill="#57BBF8"/>
<path d="M119.643 85.1071L120.727 86.7143C120.768 86.7143 120.807 86.754 120.848 86.754C121.29 86.3117 121.812 85.6288 122.174 84.6648L120.647 82.0531C120.607 83.5396 120.084 84.5036 119.643 85.1071Z" fill="#FC5954"/>
<path d="M117.352 81.7712L118.597 83.5793C119.039 82.9361 119.561 82.0119 120.004 80.8874L118.557 78.4362C118.356 79.7622 117.834 80.9279 117.352 81.7712Z" fill="#FC5954"/>
<path d="M114.74 77.9541L115.905 79.682C116.668 78.9181 117.231 77.9136 117.593 76.7487L116.066 74.0966C116.027 75.664 115.544 77.0298 114.74 77.9541Z" fill="#FC5954"/>
<path d="M112.41 74.539L113.576 76.2669C114.5 75.4235 115.023 74.1777 115.304 72.8118L113.737 70.0795C113.535 71.8066 113.254 73.5742 112.41 74.539Z" fill="#FC5954"/>
<path d="M109.918 70.8822L111.084 72.6101C111.928 71.6461 112.65 70.3193 113.053 68.8328L111.405 66.0194C111.485 67.8283 110.803 69.6364 109.918 70.8822Z" fill="#FC5954"/>
<path d="M107.629 67.5471L108.875 69.3552C109.477 68.3507 109.919 67.1453 110.121 65.8597L107.629 67.5471Z" fill="#FC5954"/>
<path opacity="0.55" d="M109.274 67.421C109.274 67.421 118.286 81.8277 119.36 83.2149C120.882 85.1819 121.664 85.7158 122.657 85.508C122.76 86.1741 121.532 86.9143 120.849 86.7539C120.809 86.7539 120.769 86.7142 120.729 86.7142L107.629 67.5471C107.963 67.7602 108.405 67.8175 109.274 67.421Z" fill="#57BBF8"/>
<path d="M114.854 80.7653C115.379 80.2207 115.811 79.6218 116.293 79.052L116.209 79.2292C116.42 78.8281 116.631 78.369 116.774 77.9466L116.875 77.6235C116.914 77.4562 116.968 77.2981 117.028 77.1446C117.159 76.8291 117.291 76.5839 117.526 76.2737C117.769 75.9529 118.225 75.8895 118.546 76.1324C118.811 76.3326 118.9 76.6794 118.787 76.975L118.729 77.1216C118.685 77.2362 118.606 77.4616 118.584 77.6311L118.523 78.324C118.447 78.8976 118.357 79.4133 118.227 79.9724L118.143 80.1504C117.873 80.8463 117.553 81.5124 117.327 82.2343C117.082 83.0126 116.254 83.4458 115.475 83.2021C114.697 82.9576 114.264 82.1281 114.507 81.3505C114.578 81.1251 114.701 80.925 114.854 80.7653Z" fill="#F79D79"/>
<path d="M108.788 65.6772C107.863 66.2921 107.33 67.1178 107.599 67.5212C107.867 67.9245 108.834 67.7526 109.759 67.1384C110.684 66.5235 111.217 65.6978 110.948 65.2945C110.68 64.8911 109.713 65.0622 108.788 65.6772Z" fill="#465683"/>
<path d="M108.788 65.6772C109.712 65.0622 110.68 64.8911 110.948 65.2945C110.98 65.3426 110.965 65.4121 110.975 65.4709C110.65 65.1501 109.76 65.3174 108.887 65.8979C108.072 66.4395 107.596 67.1293 107.67 67.5655C107.651 67.5471 107.614 67.5441 107.599 67.5219C107.331 67.1178 107.863 66.2921 108.788 65.6772Z" fill="#465683"/>
<path d="M101.121 57.6052L100.286 57.0499C100.544 56.6618 100.818 56.1539 101.018 55.6535C100.953 55.6604 100.893 55.6604 100.837 55.6604C99.57 55.6604 98.3012 54.8041 98.2516 53.8989C98.2332 53.575 98.3517 52.8058 99.8267 52.682C100.936 52.5904 101.702 52.8638 102.077 53.4971C102.14 53.6048 102.189 53.7178 102.225 53.8347C102.573 53.258 102.757 52.3902 102.761 51.2582L103.764 51.2628C103.759 53.6926 102.984 54.7926 102.194 55.2815C101.92 56.3784 101.238 57.4303 101.121 57.6052ZM100.244 53.6667C100.131 53.6667 100.017 53.6735 99.9107 53.6827C99.3615 53.7285 99.2469 53.8683 99.2469 53.8683C99.2599 54.0364 99.9382 54.6559 100.833 54.6559C101.006 54.6628 101.157 54.633 101.303 54.5894C101.324 54.3549 101.299 54.1533 101.212 54.0081C101.055 53.74 100.645 53.6667 100.244 53.6667Z" fill="#373362"/>
<path d="M80.6579 36.0795C80.2652 36.0795 79.8833 35.9741 79.5678 35.7602C79.2753 35.5585 78.3792 34.7656 79.137 32.982C79.441 32.2677 79.9559 32.0287 80.3348 31.9553C80.5716 31.9072 80.8259 31.9164 81.0849 31.9576C80.7251 31.6841 80.2255 31.4275 79.535 31.2273L79.813 30.2626C81.7869 30.8301 82.5507 31.8545 82.8334 32.6902C83.9975 33.3998 85.0051 34.3715 85.1838 34.5479L84.4788 35.2644C84.0808 34.8718 83.5354 34.4005 82.9617 33.9826C82.88 34.596 82.6088 35.1101 82.3025 35.4111C81.8533 35.8473 81.2438 36.0795 80.6579 36.0795ZM80.7075 32.9239C80.6457 32.9239 80.5861 32.9285 80.5295 32.94C80.3859 32.9675 80.2049 33.0438 80.0636 33.3769C79.7473 34.1163 79.7741 34.6831 80.1362 34.9314C80.5219 35.1911 81.1956 35.0849 81.6028 34.6908C81.8518 34.4494 82.0451 33.9124 81.9618 33.3425C81.4943 33.0866 81.0543 32.9239 80.7075 32.9239Z" fill="#373362"/>
<path d="M54.5034 31.0546C54.4239 31.0546 54.3414 31.05 54.2566 31.0386C53.1124 30.8942 51.9093 29.8446 51.962 28.3948C51.9895 27.6462 52.418 27.0908 52.9909 26.6837C52.1323 26.165 51.0033 25.8572 49.6543 25.7762L49.7123 24.7748C51.7641 24.8939 53.1123 25.4821 53.9923 26.1505C55.0129 25.735 56.0548 25.6173 56.1388 25.6082L56.2465 26.605C55.9242 26.6417 55.3681 26.7425 54.8043 26.922C54.8502 26.977 54.8929 27.0305 54.9327 27.0832C55.7355 28.1419 55.9295 29.3756 55.7653 30.1288C55.6385 30.7078 55.1557 31.0546 54.5034 31.0546ZM53.8258 27.3383C53.3415 27.6141 52.9833 27.9747 52.9657 28.4315C52.9328 29.3619 53.7662 29.9638 54.3819 30.0409C54.4927 30.057 54.7509 30.0707 54.7837 29.9172C54.8632 29.5498 54.8295 28.6102 54.1314 27.692C54.0366 27.5683 53.9351 27.4491 53.8258 27.3383Z" fill="#373362"/>
<path d="M66.54 4.47849C66.152 4.47849 65.7296 4.39828 65.2773 4.2096L65.7135 3.16691C66.2085 3.37316 66.6416 3.38004 66.9915 3.27921C65.8869 2.7422 65.738 2.03944 65.7479 1.66514C65.764 1.07696 66.1848 0.530781 66.8212 0.273355C67.4987 0.00217921 68.2244 0.126696 68.7148 0.604118C69.1319 1.0105 69.2984 1.59639 69.209 2.20749C69.7246 1.83319 69.9882 1.22209 69.992 1.21292L71.0331 1.64681C71.011 1.69951 70.4679 2.98588 69.2625 3.45413C69.018 3.54809 68.7667 3.60385 68.5078 3.6176C68.0556 4.09961 67.3795 4.47849 66.54 4.47849ZM67.5415 1.26105C67.4093 1.26105 67.2955 1.3 67.2451 1.32063C67.0381 1.40313 66.8784 1.5666 66.8754 1.69722C66.8716 1.82326 67.0373 2.05318 67.514 2.27853C67.6698 2.35186 67.8203 2.40686 67.9639 2.442C68.1587 2.04249 68.1511 1.63076 67.9272 1.41306C67.8066 1.29542 67.6652 1.26105 67.5415 1.26105Z" fill="#373362"/>
<path d="M96.5873 34.2906C94.1674 34.0568 93.1438 33.1814 92.7305 32.348C91.6642 31.9714 90.681 31.1953 90.5176 31.0647L91.1516 30.284C91.5137 30.5781 91.9919 30.8974 92.47 31.1434C92.4708 31.106 92.4731 31.0701 92.4754 31.0357C92.5602 29.7654 93.525 28.5531 94.437 28.5531C94.45 28.5531 94.463 28.5531 94.476 28.5554C94.8014 28.5668 95.5569 28.7548 95.5416 30.2367C95.5317 31.3596 95.1879 32.0876 94.5203 32.4023C94.4072 32.455 94.2904 32.4947 94.1689 32.5169C94.7113 32.9186 95.5584 33.1829 96.6851 33.2907L96.5873 34.2906ZM93.5013 31.5276C93.7366 31.5666 93.939 31.5643 94.0918 31.491C94.4508 31.3206 94.5325 30.7103 94.5371 30.2252C94.5417 29.6737 94.4141 29.5477 94.4118 29.5454C94.2407 29.5454 93.5532 30.1725 93.4784 31.0747C93.4661 31.2335 93.4738 31.3833 93.5013 31.5276Z" fill="#FDC61C"/>
<path d="M75.7774 30.2853L75.1296 29.5184C75.5582 29.1579 76.0784 28.6598 76.5459 28.1266C75.9439 27.9891 75.4558 27.6698 75.1869 27.3368C74.5277 26.524 74.4865 25.3133 75.0937 24.583C75.3191 24.3095 76.1899 23.4876 77.8979 24.4127C78.5808 24.7801 78.771 25.3148 78.81 25.6983C78.8337 25.9397 78.8054 26.1902 78.7367 26.4469C79.0445 26.1161 79.3462 25.641 79.6105 24.9703L80.5455 25.3377C79.7954 27.2482 78.7046 27.9143 77.8467 28.1167C77.0309 29.2129 75.9699 30.1242 75.7774 30.2853ZM76.4313 24.9894C76.1899 24.9894 75.9974 25.0673 75.8675 25.2239C75.5658 25.5867 75.6124 26.2666 75.9684 26.7051C76.1876 26.9762 76.7177 27.2199 77.2769 27.1901C77.6268 26.6684 77.849 26.1749 77.8108 25.8029C77.7956 25.6563 77.7375 25.4676 77.4205 25.2949C77.0431 25.0925 76.7063 24.9894 76.4313 24.9894Z" fill="#FDC61C"/>
<path d="M63.7825 24.4677C63.7764 24.1439 63.7283 23.5809 63.6023 23.0049C63.545 23.0439 63.4884 23.0805 63.4319 23.1157C62.3029 23.8185 61.0547 23.901 60.3191 23.6619C59.6843 23.4602 59.3841 22.8376 59.5553 22.073C59.8058 20.9501 60.9684 19.8662 62.4007 20.038C63.1447 20.1366 63.6573 20.6148 64.0094 21.2228C64.6068 20.4146 65.0192 19.3208 65.2232 17.9847L66.2155 18.1368C65.9053 20.1687 65.1934 21.455 64.4471 22.2678C64.7641 23.3219 64.7847 24.3692 64.7863 24.454L63.7825 24.4677ZM62.0799 21.0211C61.2556 21.0211 60.6621 21.7308 60.5353 22.293C60.5109 22.4007 60.4719 22.6581 60.6239 22.7063C60.9806 22.8163 61.9202 22.8735 62.9018 22.2632C63.0332 22.1807 63.1592 22.0906 63.2807 21.992C63.0507 21.4848 62.7246 21.0945 62.2701 21.0341C62.2059 21.0257 62.1417 21.0211 62.0799 21.0211Z" fill="#FDC61C"/>
<path d="M94.5529 54.2542C94.5025 54.2267 93.2956 53.5789 92.9496 52.3598C92.877 52.1046 92.8472 51.848 92.8602 51.5883C92.2254 50.8809 91.8442 49.7214 92.5638 48.3685L93.4507 48.8414C93.1551 49.3952 93.1291 49.8909 93.2521 50.295C93.2689 50.2629 93.2872 50.2331 93.3063 50.2034C93.9327 49.1423 94.6209 49.0438 94.9906 49.1057C95.5498 49.1729 96.0341 49.6274 96.2251 50.2591C96.4283 50.9367 96.2419 51.6234 95.7377 52.0527C95.2786 52.443 94.6415 52.537 94.0144 52.3422C94.3253 52.9854 95.0136 53.362 95.0212 53.3643L94.5529 54.2542ZM93.9441 51.2048C94.3559 51.476 94.818 51.5149 95.0876 51.285C95.3802 51.0367 95.2954 50.6579 95.2618 50.5479C95.1893 50.3095 95.0242 50.1209 94.8676 50.1025C94.6667 50.059 94.4063 50.3134 94.1679 50.7136C94.0709 50.8832 93.9946 51.0459 93.9441 51.2048Z" fill="#FDC61C"/>
<path d="M101.755 21.3352C99.3361 21.1007 98.3125 20.2261 97.8993 19.3942C96.8314 19.0176 95.8483 18.2415 95.6855 18.1101L96.318 17.3295C96.6809 17.6235 97.1598 17.9428 97.6372 18.1888C97.638 18.1499 97.6411 18.1132 97.6433 18.0788C97.7281 16.8108 98.6929 15.5985 99.605 15.5985C99.6187 15.5985 99.6317 15.5985 99.644 15.5985C99.9701 15.61 100.724 15.8009 100.71 17.2798C100.699 18.4035 100.356 19.1307 99.6875 19.4454C99.5752 19.4981 99.4576 19.5371 99.3376 19.5623C99.8785 19.9618 100.726 20.2261 101.852 20.3345L101.755 21.3352ZM98.67 18.573C98.9022 18.6189 99.1069 18.6097 99.2605 18.5364C99.6195 18.3691 99.7012 17.7557 99.7058 17.2706C99.7104 16.7199 99.5821 16.5931 99.5821 16.5931C99.3613 16.6122 98.722 17.2133 98.6471 18.1208C98.6349 18.2789 98.6425 18.4302 98.67 18.573Z" fill="#FC5954"/>
<path d="M53.1062 11.2923L52.4585 10.5253C52.8855 10.164 53.4057 9.66599 53.8732 9.13586C53.2712 8.99836 52.7831 8.67906 52.5142 8.34601C51.855 7.53095 51.8153 6.31792 52.4226 5.58995C52.6487 5.31648 53.5248 4.49455 55.2268 5.42266C55.9097 5.79009 56.0999 6.32556 56.1388 6.70903C56.1633 6.95041 56.1342 7.2002 56.0655 7.45763C56.3733 7.12458 56.6751 6.65173 56.9386 5.98029L57.8736 6.34771C57.1234 8.25816 56.0326 8.92426 55.1748 9.12669C54.359 10.2198 53.298 11.1319 53.1062 11.2923ZM53.757 5.99633C53.5172 5.99633 53.3255 6.07424 53.1941 6.23313C52.8931 6.59368 52.9389 7.27353 53.2964 7.71658C53.5149 7.98775 54.0275 8.2383 54.6057 8.19858C54.9548 7.67762 55.1779 7.18339 55.1397 6.81139C55.1251 6.66472 55.0671 6.47605 54.7493 6.30341C54.3704 6.09946 54.0328 5.99633 53.757 5.99633Z" fill="#FC5954"/>
<path d="M74.6536 50.6741C74.6475 50.3502 74.5994 49.788 74.4733 49.2113C74.416 49.2502 74.3603 49.2869 74.3045 49.3213C73.1725 50.0217 71.9266 50.0951 71.1902 49.8697C70.5554 49.6658 70.2552 49.0432 70.4263 48.2786C70.6761 47.1557 71.838 46.0603 73.2718 46.2436C74.0158 46.3421 74.5284 46.8203 74.8805 47.4284C75.4778 46.6202 75.8903 45.5271 76.0943 44.1903L77.0866 44.3416C76.7764 46.3742 76.0645 47.6598 75.3182 48.4734C75.6352 49.5275 75.6558 50.5748 75.6574 50.6596L74.6536 50.6741ZM72.9509 47.2267C72.1267 47.2267 71.5324 47.9364 71.4064 48.4986C71.3819 48.6063 71.343 48.8637 71.495 48.9118C71.8555 49.0264 72.7928 49.0776 73.7744 48.4688C73.905 48.3863 74.0318 48.2969 74.1518 48.1976C73.9218 47.6904 73.5972 47.3 73.1411 47.2405C73.077 47.2321 73.0128 47.2267 72.9509 47.2267Z" fill="#FC5954"/>
<path d="M90.9447 47.1646C90.8943 47.1371 89.6874 46.4893 89.3421 45.2702C89.2696 45.015 89.2398 44.7576 89.2528 44.4987C88.618 43.7913 88.2368 42.6318 88.9564 41.2789L89.8433 41.7525C89.5484 42.3064 89.5217 42.8021 89.6446 43.2062C89.6622 43.1741 89.6805 43.1443 89.6989 43.1145C90.3245 42.0558 91.0295 41.9802 91.3832 42.0168C91.9424 42.0856 92.4267 42.5386 92.6176 43.1718C92.8208 43.8471 92.6352 44.5338 92.1311 44.9631C91.6704 45.3557 91.0356 45.4459 90.407 45.2526C90.7186 45.895 91.4061 46.2724 91.4138 46.2739L90.9447 47.1646ZM90.3367 44.1152C90.75 44.3864 91.2113 44.4253 91.4802 44.1954C91.7728 43.9472 91.688 43.5706 91.6544 43.4606C91.5818 43.2199 91.4168 43.0313 91.2602 43.0129C91.0479 43.0152 90.7996 43.2245 90.5613 43.624C90.4627 43.7936 90.3871 43.9563 90.3367 44.1152Z" fill="#FC5954"/>
<path d="M79.2665 20.1892C78.9899 20.1892 78.6386 20.1067 78.1963 19.8814C77.1948 19.3741 76.6945 18.7424 76.709 18.003C76.7113 17.8792 76.7296 17.7593 76.761 17.6401C76.1628 17.9449 75.5495 18.5889 74.9536 19.5483L74.0996 19.0197C75.3822 16.955 76.6189 16.4248 77.5493 16.4248C78.359 15.635 79.4918 15.0972 79.6828 15.0101L80.1006 15.9245C79.6767 16.12 79.1771 16.4065 78.7455 16.7258C78.7791 16.7441 78.8112 16.7602 78.841 16.7785C79.957 17.4263 80.6185 18.8616 80.1778 19.6721C80.0739 19.863 79.8157 20.1892 79.2665 20.1892ZM77.9427 17.479C77.8014 17.6692 77.7166 17.8533 77.7127 18.0228C77.7059 18.4224 78.2192 18.7669 78.6508 18.9853C79.1374 19.2313 79.3131 19.1763 79.3131 19.1763C79.391 19.0243 79.1351 18.129 78.3582 17.6608C78.223 17.5783 78.084 17.5187 77.9427 17.479Z" fill="#57BBF8"/>
<path d="M99.9761 40.8053C98.595 39.2852 98.482 38.0126 98.6806 37.154C98.0626 35.9364 97.7158 34.582 97.6562 34.3383L98.6325 34.0992C98.7654 34.6408 98.9816 35.3298 99.2512 35.9845C99.6415 35.5071 100.143 35.2107 100.56 35.1167C101.582 34.873 102.686 35.3894 103.071 36.2557C103.215 36.5795 103.56 37.7254 101.978 38.846C101.344 39.2936 100.783 39.2271 100.42 39.0896C100.194 39.0071 99.9815 38.8689 99.7829 38.6924C99.9448 39.1148 100.235 39.5976 100.72 40.13L99.9761 40.8053ZM99.7661 37.0554C100.077 37.6001 100.421 38.0202 100.773 38.1508C100.909 38.2013 101.103 38.2288 101.399 38.0248C102.056 37.5611 102.331 37.0646 102.154 36.6651C101.961 36.2335 101.342 35.9738 100.78 36.096C100.441 36.1732 99.9952 36.5291 99.7661 37.0554Z" fill="#57BBF8"/>
<path d="M65.17 36.274C63.4864 35.0961 62.6492 33.8862 62.2512 32.8572C61.165 32.6731 60.2162 32.2278 60.1406 32.1911L60.5722 31.2859C60.8663 31.4234 61.3919 31.6304 61.9655 31.7725C61.9548 31.7038 61.9472 31.6343 61.9411 31.5678C61.8135 30.2448 62.2971 29.0944 62.8318 28.539C63.2954 28.0593 63.9867 28.0685 64.5955 28.5597C65.4923 29.2831 65.9621 30.8077 65.1562 32.0116C64.7392 32.6342 64.0838 32.8817 63.3818 32.9283C63.8401 33.8212 64.6383 34.676 65.7467 35.4521L65.17 36.274ZM63.0151 31.9337C63.5903 31.9749 64.0669 31.8352 64.3221 31.4517C64.84 30.6802 64.4474 29.7291 63.9654 29.3411C63.879 29.2724 63.6667 29.1234 63.5567 29.238C63.2947 29.5092 62.831 30.3242 62.9417 31.4723C62.9563 31.6259 62.9799 31.7802 63.0151 31.9337Z" fill="#57BBF8"/>
<path d="M36.829 14.4023C36.7243 14.4023 36.6181 14.3931 36.5097 14.3748C35.813 14.2579 35.2806 13.7866 35.1209 13.1457C34.9743 12.5575 35.1736 11.9449 35.6251 11.4713C35.6205 11.4713 35.6144 11.4713 35.6098 11.4713C34.8994 11.4713 34.2654 11.9143 34.2585 11.9212L33.6719 11.1062C33.7192 11.0718 34.8383 10.2751 36.0811 10.5088C36.3393 10.5569 36.5838 10.644 36.8114 10.7708C37.7273 10.5111 38.9357 10.6853 39.8295 11.935L39.0121 12.5178C38.6455 12.0083 38.2139 11.7646 37.7968 11.6959C37.8167 11.7257 37.8373 11.7555 37.8564 11.7853C38.5255 12.8142 38.2918 13.478 38.0917 13.7813C37.835 14.1747 37.3583 14.4023 36.829 14.4023ZM36.6754 11.9128C36.2507 12.1657 36.0109 12.5629 36.0957 12.9028C36.1888 13.2748 36.5654 13.3665 36.6777 13.3848C36.9306 13.4283 37.1666 13.3619 37.2529 13.2313C37.3599 13.0678 37.269 12.7233 37.0138 12.3329C36.9076 12.1702 36.7946 12.0297 36.6754 11.9128Z" fill="#57BBF8"/>
</svg>
