<svg width="26" height="30" viewBox="0 0 26 30" fill="none" xmlns="http://www.w3.org/2000/svg">
<path d="M3.00342 29.9043C2.50449 29.9034 2.0144 29.7726 1.58135 29.5248C0.606209 28.9722 0 27.8996 0 26.7351V3.16934C0 2.00161 0.606209 0.932211 1.58135 0.379634C2.02471 0.124828 2.52838 -0.00620676 3.03971 0.000225937C3.55104 0.00665864 4.05125 0.150323 4.48806 0.416202L24.6287 12.4721C25.0484 12.7353 25.3945 13.1008 25.6343 13.5343C25.8742 13.9678 26 14.4552 26 14.9506C26 15.446 25.8742 15.9334 25.6343 16.3669C25.3945 16.8004 25.0484 17.1659 24.6287 17.4291L4.48481 29.4883C4.03779 29.7585 3.52578 29.9023 3.00342 29.9043Z" fill="white"/>
</svg>
