<svg width="95" height="95" viewBox="0 0 95 95" fill="none" xmlns="http://www.w3.org/2000/svg">
<path d="M95 47.5C95 60.2487 89.9773 71.8244 81.8029 80.356C73.1571 89.381 60.9846 95 47.5 95C34.0154 95 21.8429 89.381 13.1971 80.356C5.02269 71.8244 0 60.2487 0 47.5C0 21.2667 21.2667 0 47.5 0C73.7333 0 95 21.2667 95 47.5Z" fill="url(#paint0_radial_170_1527)"/>
<path d="M47.5001 50.0492C58.2171 50.0492 66.905 41.3613 66.905 30.6442C66.905 19.9272 58.2171 11.2393 47.5001 11.2393C36.783 11.2393 28.0951 19.9272 28.0951 30.6442C28.0951 41.3613 36.783 50.0492 47.5001 50.0492Z" fill="url(#paint1_radial_170_1527)"/>
<path d="M81.803 80.3559C73.1572 89.3809 60.9846 94.9999 47.5001 94.9999C34.0155 94.9999 21.843 89.3809 13.1971 80.3559C18.0796 66.1041 31.5938 55.8594 47.5001 55.8594C63.4064 55.8594 76.9205 66.1041 81.803 80.3559Z" fill="url(#paint2_radial_170_1527)"/>
<defs>
<radialGradient id="paint0_radial_170_1527" cx="0" cy="0" r="1" gradientUnits="userSpaceOnUse" gradientTransform="translate(26.3517 26.06) scale(74.3716)">
<stop stop-color="#5272FC"/>
<stop offset="1" stop-color="#415364"/>
</radialGradient>
<radialGradient id="paint1_radial_170_1527" cx="0" cy="0" r="1" gradientUnits="userSpaceOnUse" gradientTransform="translate(43.0078 23.8089) scale(28.4265)">
<stop stop-color="white"/>
<stop offset="0.9989" stop-color="#D1D1D1"/>
</radialGradient>
<radialGradient id="paint2_radial_170_1527" cx="0" cy="0" r="1" gradientUnits="userSpaceOnUse" gradientTransform="translate(39.5589 68.5361) scale(39.926 39.926)">
<stop stop-color="white"/>
<stop offset="0.9989" stop-color="#D1D1D1"/>
</radialGradient>
</defs>
</svg>
