<svg width="52" height="52" viewBox="0 0 52 52" fill="none" xmlns="http://www.w3.org/2000/svg">
<rect width="52" height="52" rx="26" fill="#FE5657"/>
<rect x="9.29427" y="9.29378" width="33.4123" height="33.4123" rx="16.7061" stroke="#FEFEFE" stroke-width="2.16667"/>
<path d="M33.4954 26.2701H34.5227C34.216 28.0502 33.3854 29.6942 32.1392 30.9762C30.7638 32.391 28.9641 33.281 27.0361 33.5035L26.5899 33.555V34.0042V37.7048H25.5818V34.0042V33.5549L25.1355 33.5035C23.2073 33.2812 21.4074 32.3913 20.0318 30.9764C18.7854 29.6944 17.9547 28.0504 17.6479 26.2701H18.6742C19.006 27.9426 19.867 29.4627 21.1319 30.5881C22.5056 31.8103 24.2637 32.4848 26.0848 32.4848C27.906 32.4848 29.664 31.8103 31.0377 30.5881C32.3026 29.4627 33.1637 27.9426 33.4954 26.2701ZM26.0858 16.9667C25.1454 16.9667 24.2465 17.3511 23.5859 18.0305C22.9259 18.7094 22.5575 19.6273 22.5575 20.5815V24.7291C22.5575 25.6833 22.9259 26.6012 23.5859 27.2801C24.2465 27.9595 25.1454 28.3439 26.0858 28.3439C27.0263 28.3439 27.9252 27.9595 28.5857 27.2801C29.2458 26.6012 29.6142 25.6833 29.6142 24.7291V20.5815C29.6142 19.6273 29.2458 18.7094 28.5857 18.0305C27.9252 17.3511 27.0263 16.9667 26.0858 16.9667ZM29.2886 17.2668L29.65 16.9155L29.2886 17.2668C29.7106 17.7009 30.046 18.2169 30.2751 18.7858C30.5042 19.3547 30.6223 19.9649 30.6223 20.5815V24.7291C30.6223 25.975 30.141 27.167 29.2886 28.0438C28.4367 28.92 27.2843 29.4096 26.0858 29.4096C24.8873 29.4096 23.735 28.92 22.8831 28.0438C22.0307 27.167 21.5494 25.975 21.5494 24.7291V20.5815C21.5494 19.3356 22.0307 18.1436 22.8831 17.2668C23.735 16.3906 24.8873 15.901 26.0858 15.901C26.6796 15.901 27.2678 16.0213 27.8172 16.2553C28.3666 16.4894 28.8667 16.8329 29.2886 17.2668Z" fill="#79CCDC" stroke="#FEFEFE" stroke-width="1.0081"/>
</svg>
