<svg width="246" height="92" viewBox="0 0 246 92" fill="none" xmlns="http://www.w3.org/2000/svg">
<rect opacity="0.66" y="42.8066" width="5.70755" height="5.70755" rx="2.85378" fill="#FE5657"/>
<rect opacity="0.66" x="17.1211" y="34.2456" width="5.70755" height="22.8302" rx="2.85378" fill="#FE5657"/>
<rect opacity="0.66" x="34.2461" y="25.6841" width="5.70755" height="39.9529" rx="2.85378" fill="#FE5657"/>
<rect opacity="0.66" x="51.3672" y="39.9526" width="5.70755" height="11.4151" rx="2.85378" fill="#FE5657"/>
<rect opacity="0.66" x="68.4922" y="22.8301" width="5.70755" height="45.6604" rx="2.85378" fill="#FE5657"/>
<rect opacity="0.66" x="85.6133" y="25.6841" width="5.70755" height="39.9529" rx="2.85378" fill="#FE5657"/>
<rect opacity="0.66" x="102.734" y="31.3916" width="5.70755" height="28.5378" rx="2.85378" fill="#FE5657"/>
<rect opacity="0.66" x="119.859" y="31.3916" width="5.70755" height="28.5378" rx="2.85378" fill="#FE5657"/>
<rect opacity="0.66" x="136.98" y="31.3916" width="5.70755" height="28.5378" rx="2.85378" fill="#FE5657"/>
<rect opacity="0.66" x="154.105" y="25.6841" width="5.70755" height="39.9529" rx="2.85378" fill="#FE5657"/>
<rect opacity="0.66" x="171.227" y="31.3916" width="5.70755" height="28.5378" rx="2.85378" fill="#FE5657"/>
<rect opacity="0.66" x="188.348" y="22.8301" width="5.70755" height="45.6604" rx="2.85378" fill="#FE5657"/>
<rect opacity="0.66" x="205.473" y="31.3916" width="5.70755" height="28.5378" rx="2.85378" fill="#FE5657"/>
<rect opacity="0.66" x="222.594" y="39.9526" width="5.70755" height="11.4151" rx="2.85378" fill="#FE5657"/>
<rect opacity="0.66" x="239.719" y="42.8066" width="5.70755" height="5.70755" rx="2.85378" fill="#FE5657"/>
</svg>
