<svg width="12" height="13" viewBox="0 0 12 13" fill="none" xmlns="http://www.w3.org/2000/svg">
<path d="M9.98055 3.71128L9.53881 3.25853C9.08031 2.78461 8.53117 2.40774 7.92407 2.15037C7.31696 1.89299 6.66429 1.76035 6.00488 1.76035C5.34548 1.76035 4.6928 1.89299 4.0857 2.15037C3.47859 2.40774 2.92945 2.78461 2.47095 3.25853C0.520098 5.25641 0.520098 8.4956 2.47095 10.4935C2.92945 10.9674 3.47859 11.3443 4.0857 11.6016C4.6928 11.859 5.34548 11.9917 6.00488 11.9917C6.66429 11.9917 7.31696 11.859 7.92407 11.6016C8.53117 11.3443 9.08031 10.9674 9.53881 10.4935C10.0804 9.93632 10.4896 9.26441 10.7362 8.52754C10.9827 7.79068 11.0602 7.00777 10.963 6.23686M9.98055 3.71128H7.33011M9.98055 3.71128L9.97955 0.997803" stroke="#FEFEFE" stroke-width="1.2691" stroke-linecap="round" stroke-linejoin="round"/>
</svg>
