<svg width="18" height="18" viewBox="0 0 18 18" fill="none" xmlns="http://www.w3.org/2000/svg">
<path d="M12.2041 4.50593C12.4643 4.95101 12.9472 5.25 13.5 5.25C14.3284 5.25 15 4.57843 15 3.75C15 2.92157 14.3284 2.25 13.5 2.25C12.6716 2.25 12 2.92157 12 3.75C12 4.02567 12.0744 4.28396 12.2041 4.50593ZM12.2041 4.50593L5.79588 8.24407M5.79588 8.24407C5.53569 7.79899 5.05276 7.5 4.5 7.5C3.67157 7.5 3 8.17157 3 9C3 9.82843 3.67157 10.5 4.5 10.5C5.05276 10.5 5.53569 10.201 5.79588 9.75593M5.79588 8.24407C5.92564 8.46604 6 8.72433 6 9C6 9.27567 5.92564 9.53396 5.79588 9.75593M5.79588 9.75593L12.2041 13.4941M12.2041 13.4941C12.4643 13.049 12.9472 12.75 13.5 12.75C14.3284 12.75 15 13.4216 15 14.25C15 15.0784 14.3284 15.75 13.5 15.75C12.6716 15.75 12 15.0784 12 14.25C12 13.9743 12.0744 13.716 12.2041 13.4941Z" stroke="#292D32" stroke-width="2" stroke-linecap="round" stroke-linejoin="round"/>
</svg>
