<svg width="46" height="46" viewBox="0 0 46 46" fill="none" xmlns="http://www.w3.org/2000/svg">
<circle cx="23" cy="23" r="23" fill="url(#paint0_linear_162_1520)"/>
<path d="M26.2041 18.5059C26.4643 18.951 26.9472 19.25 27.5 19.25C28.3284 19.25 29 18.5784 29 17.75C29 16.9216 28.3284 16.25 27.5 16.25C26.6716 16.25 26 16.9216 26 17.75C26 18.0257 26.0744 18.284 26.2041 18.5059ZM26.2041 18.5059L19.7959 22.2441M19.7959 22.2441C19.5357 21.799 19.0528 21.5 18.5 21.5C17.6716 21.5 17 22.1716 17 23C17 23.8284 17.6716 24.5 18.5 24.5C19.0528 24.5 19.5357 24.201 19.7959 23.7559M19.7959 22.2441C19.9256 22.466 20 22.7243 20 23C20 23.2757 19.9256 23.534 19.7959 23.7559M19.7959 23.7559L26.2041 27.4941M26.2041 27.4941C26.4643 27.049 26.9472 26.75 27.5 26.75C28.3284 26.75 29 27.4216 29 28.25C29 29.0784 28.3284 29.75 27.5 29.75C26.6716 29.75 26 29.0784 26 28.25C26 27.9743 26.0744 27.716 26.2041 27.4941Z" stroke="#292D32" stroke-width="2" stroke-linecap="round" stroke-linejoin="round"/>
<defs>
<linearGradient id="paint0_linear_162_1520" x1="23" y1="0" x2="23" y2="46" gradientUnits="userSpaceOnUse">
<stop stop-color="#DEE4FF"/>
<stop offset="1" stop-color="#DEE4FF" stop-opacity="0.2"/>
</linearGradient>
</defs>
</svg>
