<svg width="24" height="24" viewBox="0 0 24 24" fill="none" xmlns="http://www.w3.org/2000/svg">
<path d="M21.5344 10.2844L17.0344 14.7844C16.8904 14.922 16.6992 14.9992 16.5 15C16.4005 14.9996 16.3019 14.9805 16.2094 14.9438C16.0729 14.8864 15.9564 14.7899 15.8747 14.6664C15.7929 14.543 15.7495 14.3981 15.75 14.25V10.5C13.9207 10.4985 12.1429 11.1058 10.6967 12.226C9.25056 13.3463 8.21827 14.9159 7.7625 16.6875C7.71927 16.8486 7.62425 16.9909 7.49209 17.0926C7.35993 17.1942 7.19799 17.2496 7.03125 17.25L6.84375 17.2219C6.6529 17.1712 6.48975 17.0473 6.3897 16.877C6.28966 16.7068 6.26079 16.5039 6.30938 16.3125C6.84831 14.2188 8.06849 12.3639 9.77771 11.0399C11.4869 9.71602 13.588 8.99836 15.75 9.00002V5.25002C15.7495 5.10196 15.7929 4.95706 15.8747 4.83361C15.9564 4.71015 16.0729 4.61365 16.2094 4.55627C16.3479 4.50224 16.4989 4.48853 16.6449 4.51674C16.7909 4.54494 16.9259 4.61391 17.0344 4.71565L21.5344 9.21565C21.6752 9.35785 21.7542 9.54989 21.7542 9.75002C21.7542 9.95016 21.6752 10.1422 21.5344 10.2844ZM18 19.5H3.75V8.25002C3.75 8.05111 3.67098 7.86035 3.53033 7.7197C3.38968 7.57904 3.19891 7.50002 3 7.50002C2.80109 7.50002 2.61032 7.57904 2.46967 7.7197C2.32902 7.86035 2.25 8.05111 2.25 8.25002V19.5C2.25 19.8979 2.40804 20.2794 2.68934 20.5607C2.97064 20.842 3.35218 21 3.75 21H18C18.1989 21 18.3897 20.921 18.5303 20.7804C18.671 20.6397 18.75 20.4489 18.75 20.25C18.75 20.0511 18.671 19.8603 18.5303 19.7197C18.3897 19.579 18.1989 19.5 18 19.5Z" fill="#003366"/>
</svg>
