<svg width="24" height="23" viewBox="0 0 24 23" fill="none" xmlns="http://www.w3.org/2000/svg">
<path fill-rule="evenodd" clip-rule="evenodd" d="M14.7337 0.364669C16.1875 -0.594081 18.125 0.449669 18.125 2.19092V20.0484C18.125 21.7909 16.1875 22.8334 14.7337 21.8747L7.23375 16.9309C7.18301 16.8971 7.12348 16.8788 7.0625 16.8784H3.4375C2.52582 16.8784 1.65148 16.5163 1.00682 15.8716C0.362164 15.2269 0 14.3526 0 13.4409V8.79842C0 7.88674 0.362164 7.0124 1.00682 6.36774C1.65148 5.72308 2.52582 5.36092 3.4375 5.36092H7.0625C7.12378 5.36112 7.18377 5.3433 7.235 5.30967L14.7337 0.364669ZM22.1875 6.43217C22.4361 6.43217 22.6746 6.53094 22.8504 6.70676C23.0262 6.88257 23.125 7.12103 23.125 7.36967V14.8697C23.125 15.1183 23.0262 15.3568 22.8504 15.5326C22.6746 15.7084 22.4361 15.8072 22.1875 15.8072C21.9389 15.8072 21.7004 15.7084 21.5246 15.5326C21.3488 15.3568 21.25 15.1183 21.25 14.8697V7.36967C21.25 7.12103 21.3488 6.88257 21.5246 6.70676C21.7004 6.53094 21.9389 6.43217 22.1875 6.43217Z" fill="#FEFEFE"/>
</svg>
