<svg width="24" height="23" viewBox="0 0 24 23" fill="none" xmlns="http://www.w3.org/2000/svg">
<path fill-rule="evenodd" clip-rule="evenodd" d="M14.7337 0.702103C16.1875 -0.247743 18.125 0.786313 18.125 2.51139V20.203C18.125 21.9293 16.1875 22.9622 14.7337 22.0123L7.23375 17.1145C7.18301 17.081 7.12348 17.0629 7.0625 17.0625H3.4375C2.52582 17.0625 1.65148 16.7037 1.00682 16.065C0.362164 15.4263 0 14.5601 0 13.6569V9.05752C0 8.15431 0.362164 7.28809 1.00682 6.64942C1.65148 6.01075 2.52582 5.65195 3.4375 5.65195H7.0625C7.12378 5.65215 7.18377 5.63449 7.235 5.60117L14.7337 0.702103ZM22.1875 6.71325C22.4361 6.71325 22.6746 6.8111 22.8504 6.98529C23.0262 7.15947 23.125 7.39571 23.125 7.64204V15.0724C23.125 15.3187 23.0262 15.555 22.8504 15.7291C22.6746 15.9033 22.4361 16.0012 22.1875 16.0012C21.9389 16.0012 21.7004 15.9033 21.5246 15.7291C21.3488 15.555 21.25 15.3187 21.25 15.0724V7.64204C21.25 7.39571 21.3488 7.15947 21.5246 6.98529C21.7004 6.8111 21.9389 6.71325 22.1875 6.71325Z" fill="#E8C865"/>
</svg>
