<svg width="22" height="22" viewBox="0 0 22 22" fill="none" xmlns="http://www.w3.org/2000/svg">
<path d="M19.0136 12.3348L19.2116 10.2379C19.3665 8.5921 19.444 7.76834 19.1617 7.42833C19.0904 7.33997 19.0024 7.26657 18.9027 7.21235C18.803 7.15813 18.6935 7.12417 18.5806 7.11242C18.1709 7.07627 17.657 7.6616 16.6284 8.83226C16.0964 9.43825 15.8305 9.74038 15.5344 9.78772C15.369 9.81368 15.1996 9.78656 15.0506 9.71025C14.776 9.57253 14.5944 9.19809 14.2286 8.45007L12.303 4.50427C11.6126 3.09001 11.2675 2.38245 10.7424 2.38245C10.2173 2.38245 9.87215 3.09001 9.18181 4.50427L7.25625 8.45007C6.89128 9.19895 6.70879 9.57253 6.4342 9.71025C6.28501 9.786 6.11583 9.81309 5.95045 9.78772C5.65434 9.74038 5.38836 9.43825 4.8564 8.83226C3.82777 7.6616 3.31388 7.07627 2.90415 7.11242C2.79126 7.12417 2.6818 7.15813 2.58209 7.21235C2.48237 7.26657 2.39436 7.33997 2.32313 7.42833C2.04165 7.76834 2.11912 8.5921 2.27406 10.2379L2.47118 12.3348C2.79655 15.7882 2.95838 17.5158 3.97754 18.5565C4.99412 19.598 6.51942 19.598 9.57174 19.598H11.9122C14.9637 19.598 16.489 19.598 17.5073 18.5565C18.5256 17.5149 18.6882 15.7882 19.0136 12.3348Z" stroke="#6C7072" stroke-width="1.03293"/>
<path d="M10.0076 11.4404C10.3347 10.8533 10.4983 10.5598 10.7427 10.5598C10.9872 10.5598 11.1507 10.8525 11.4778 11.4404L11.5622 11.5919C11.6552 11.7589 11.7016 11.8415 11.7739 11.8966C11.8471 11.9517 11.9375 11.9724 12.1183 12.0128L12.2818 12.0507C12.9171 12.1944 13.2347 12.2659 13.3104 12.5086C13.3862 12.7514 13.1693 13.0053 12.7363 13.5114L12.6244 13.6423C12.5013 13.786 12.4393 13.8575 12.4118 13.947C12.3842 14.0365 12.3937 14.132 12.4118 14.324L12.429 14.4987C12.4944 15.1744 12.5271 15.5127 12.33 15.6625C12.132 15.8123 11.8342 15.6754 11.2394 15.4017L11.0862 15.3311C10.9166 15.2536 10.8323 15.214 10.7427 15.214C10.6532 15.214 10.5689 15.2536 10.3993 15.3311L10.2461 15.4017C9.65127 15.6763 9.35344 15.8123 9.15546 15.6625C8.95748 15.5127 8.99105 15.1744 9.05647 14.4987L9.07368 14.324C9.09176 14.132 9.10123 14.0365 9.07368 13.947C9.04614 13.8575 8.98416 13.786 8.86107 13.6423L8.74917 13.5114C8.3162 13.0053 8.09928 12.7522 8.17503 12.5086C8.25078 12.2659 8.56841 12.1944 9.20366 12.0507L9.36721 12.0128C9.54797 11.9724 9.63835 11.9526 9.71152 11.8966C9.78383 11.8415 9.83031 11.7589 9.92327 11.5919L10.0076 11.4404Z" stroke="#6C7072" stroke-width="1.03293"/>
</svg>
