<svg width="64" height="64" viewBox="0 0 64 64" fill="none" xmlns="http://www.w3.org/2000/svg">
<path d="M38.5787 11.9981L35.3228 9.22345C33.4086 7.59218 30.5914 7.59218 28.6772 9.22345L25.4209 11.9982C24.6007 12.6972 23.5807 13.1195 22.5064 13.2052L18.2455 13.5451C15.7384 13.7451 13.7445 15.736 13.5444 18.243L13.2033 22.5073C13.1175 23.5816 12.698 24.6011 11.999 25.4214L9.22307 28.6779C7.5918 30.5921 7.59257 33.4069 9.22383 35.3211L11.9973 38.5776C12.6963 39.3979 13.1199 40.4174 13.2056 41.4917L13.5467 45.756C13.7468 48.263 15.735 50.2539 18.2421 50.4539L22.5077 50.7938C23.582 50.8795 24.6015 51.3018 25.4217 52.0008L28.677 54.7756C30.5912 56.4069 33.4086 56.4065 35.3228 54.7753L38.578 52.0005C39.3983 51.3015 40.4177 50.88 41.4921 50.7943L45.7577 50.4539C48.2647 50.2539 50.2529 48.2625 50.453 45.7555L50.7941 41.4914C50.8799 40.4171 51.3034 39.3967 52.0025 38.5765L54.7759 35.321C56.4072 33.4068 56.4069 30.591 54.7756 28.6768L52.0022 25.4219C51.3032 24.6016 50.8791 23.5816 50.7933 22.5073L50.4543 18.2425C50.2542 15.7355 48.2629 13.7454 45.7559 13.5453L41.4918 13.2055C40.4175 13.1198 39.399 12.6971 38.5787 11.9981Z" fill="url(#paint0_linear_286_1451)"/>
<path d="M39.9999 26.6662L29.3332 37.3328L23.9999 31.9995M35.3228 9.22345L38.5787 11.9981C39.399 12.6971 40.4175 13.1198 41.4918 13.2055L45.7559 13.5453C48.2629 13.7454 50.2542 15.7355 50.4543 18.2425L50.7933 22.5073C50.8791 23.5816 51.3032 24.6016 52.0022 25.4219L54.7756 28.6768C56.4069 30.591 56.4072 33.4068 54.7759 35.321L52.0025 38.5765C51.3034 39.3967 50.8799 40.4171 50.7941 41.4914L50.453 45.7555C50.2529 48.2625 48.2647 50.2539 45.7577 50.4539L41.4921 50.7943C40.4177 50.88 39.3983 51.3015 38.578 52.0005L35.3228 54.7753C33.4086 56.4065 30.5911 56.4069 28.677 54.7756L25.4217 52.0008C24.6015 51.3018 23.582 50.8795 22.5077 50.7938L18.2421 50.4539C15.735 50.2539 13.7468 48.263 13.5467 45.756L13.2056 41.4917C13.1199 40.4174 12.6963 39.3979 11.9973 38.5776L9.22383 35.3211C7.59257 33.4069 7.5918 30.5921 9.22307 28.6779L11.999 25.4214C12.698 24.6011 13.1175 23.5816 13.2033 22.5073L13.5444 18.243C13.7445 15.736 15.7384 13.7451 18.2455 13.5451L22.5064 13.2052C23.5807 13.1195 24.6007 12.6972 25.4209 11.9982L28.6772 9.22345C30.5914 7.59218 33.4086 7.59218 35.3228 9.22345Z" stroke="white" stroke-width="2" stroke-linecap="round" stroke-linejoin="round"/>
<defs>
<linearGradient id="paint0_linear_286_1451" x1="55.9992" y1="8" x2="-0.927903" y2="23.7694" gradientUnits="userSpaceOnUse">
<stop stop-color="#433BC1"/>
<stop offset="1" stop-color="#5271FB"/>
</linearGradient>
</defs>
</svg>
