<svg width="16" height="18" viewBox="0 0 16 18" fill="none" xmlns="http://www.w3.org/2000/svg">
<rect x="1" y="6.25" width="14" height="10.5" rx="4" stroke="#292D32" stroke-width="2"/>
<path d="M8.00024 12.3754L8.00024 10.6254" stroke="#292D32" stroke-width="2" stroke-linecap="round" stroke-linejoin="round"/>
<path d="M10.0511 3.07099C10.3668 3.52416 10.99 3.63561 11.4432 3.31992C11.8964 3.00423 12.0078 2.38095 11.6921 1.92779L10.0511 3.07099ZM4.47383 1.70396C4.13067 2.1367 4.20329 2.76568 4.63603 3.10884C5.06876 3.452 5.69775 3.37938 6.04091 2.94664L4.47383 1.70396ZM5.49976 6.25V4.5H3.49976V6.25H5.49976ZM5.49976 4.5C5.49976 3.11929 6.61904 2 7.99976 2V2.38419e-07C5.51447 2.38419e-07 3.49976 2.01472 3.49976 4.5H5.49976ZM11.6921 1.92779C11.1555 1.1574 10.3913 0.574165 9.50658 0.259777L8.83688 2.14432C9.32837 2.31898 9.75293 2.643 10.0511 3.07099L11.6921 1.92779ZM9.50658 0.259777C8.62189 -0.05461 7.66101 -0.0844052 6.75854 0.174565L7.31019 2.09698C7.81157 1.95311 8.34538 1.96966 8.83688 2.14432L9.50658 0.259777ZM6.75854 0.174565C5.85607 0.433535 5.0572 0.9683 4.47383 1.70396L6.04091 2.94664C6.36501 2.53794 6.80882 2.24085 7.31019 2.09698L6.75854 0.174565Z" fill="#292D32"/>
</svg>
