<svg width="22" height="22" viewBox="0 0 22 22" fill="none" xmlns="http://www.w3.org/2000/svg">
<g clip-path="url(#clip0_950_17238)">
<path fill-rule="evenodd" clip-rule="evenodd" d="M1.80604 14.619C1.54285 15.5372 1.78997 17.3735 8.62573 17.3735C15.4615 17.3735 15.7123 15.5372 15.443 14.619C14.3649 12.1673 12.0312 10.489 8.55383 10.4883C5.25748 10.4876 2.91795 12.157 1.81536 14.5983L1.80604 14.619ZM8.62573 11.8646C6.19274 11.8641 4.39167 12.9577 3.3881 14.619C3.08493 15.0781 3.71812 15.9963 8.6762 15.9963C13.6343 15.9963 14.2812 15.0781 13.9848 14.619C12.9932 12.9584 11.185 11.8651 8.62573 11.8646Z" fill="#6C7072"/>
<path fill-rule="evenodd" clip-rule="evenodd" d="M8.67666 9.11003C10.9586 9.11003 12.8084 7.26019 12.8084 4.97829C12.8084 2.6964 10.9586 0.846558 8.67666 0.846558C6.39476 0.846558 4.54492 2.6964 4.54492 4.97829C4.54492 7.26019 6.39476 9.11003 8.67666 9.11003ZM8.67665 7.73274C10.1979 7.73274 11.4311 6.49952 11.4311 4.97825C11.4311 3.45699 10.1979 2.22376 8.67665 2.22376C7.15538 2.22376 5.92216 3.45699 5.92216 4.97825C5.92216 6.49952 7.15538 7.73274 8.67665 7.73274Z" fill="#6C7072"/>
</g>
<defs>
<clipPath id="clip0_950_17238">
<rect width="20.6587" height="20.6587" fill="white" transform="translate(0.414062 0.846558)"/>
</clipPath>
</defs>
</svg>
