<svg width="94" height="36" viewBox="0 0 94 36" fill="none" xmlns="http://www.w3.org/2000/svg">
<rect opacity="0.66" x="0.414062" y="16.9521" width="2.16975" height="2.16975" rx="1.08487" fill="black"/>
<rect opacity="0.66" x="6.92383" y="13.6978" width="2.16975" height="8.679" rx="1.08487" fill="black"/>
<rect opacity="0.66" x="13.4316" y="10.4429" width="2.16975" height="15.1882" rx="1.08487" fill="black"/>
<rect opacity="0.66" x="19.9414" y="15.8677" width="2.16975" height="4.3395" rx="1.08487" fill="black"/>
<rect opacity="0.66" x="26.4512" y="9.3584" width="2.16975" height="17.358" rx="1.08487" fill="black"/>
<rect opacity="0.66" x="32.9609" y="10.4429" width="2.16975" height="15.1882" rx="1.08487" fill="black"/>
<rect opacity="0.66" x="39.4688" y="12.6128" width="2.16975" height="10.8487" rx="1.08487" fill="black"/>
<rect opacity="0.66" x="45.9785" y="12.6128" width="2.16975" height="10.8487" rx="1.08487" fill="black"/>
<rect opacity="0.66" x="52.4883" y="12.6128" width="2.16975" height="10.8487" rx="1.08487" fill="black"/>
<rect opacity="0.66" x="58.998" y="10.4429" width="2.16975" height="15.1882" rx="1.08487" fill="black"/>
<rect opacity="0.66" x="65.5059" y="12.6128" width="2.16975" height="10.8487" rx="1.08487" fill="black"/>
<rect opacity="0.66" x="72.0156" y="9.3584" width="2.16975" height="17.358" rx="1.08487" fill="black"/>
<rect opacity="0.66" x="78.5254" y="12.6128" width="2.16975" height="10.8487" rx="1.08487" fill="black"/>
<rect opacity="0.66" x="85.0352" y="15.8677" width="2.16975" height="4.3395" rx="1.08487" fill="black"/>
<rect opacity="0.66" x="91.543" y="16.9521" width="2.16975" height="2.16975" rx="1.08487" fill="black"/>
</svg>
