<svg width="345" height="345" viewBox="0 0 345 345" fill="none" xmlns="http://www.w3.org/2000/svg">
<g opacity="0.91">
<path opacity="0.6" d="M306.796 160.183C306.796 217.481 266.134 265.698 210.9 279.912C209.837 280.188 208.774 280.443 207.705 280.692C207.415 280.761 207.125 280.823 206.836 280.892C204.089 281.506 201.309 282.044 198.493 282.486C191.538 283.59 184.39 284.169 177.11 284.169C170.942 284.169 164.863 283.755 158.922 282.955C156.673 282.658 154.444 282.299 152.236 281.892C150.78 281.623 149.331 281.327 147.889 281.009C90.336 268.334 47.418 219.047 47.418 160.183C47.418 91.7077 105.488 36.2041 177.11 36.2041C248.732 36.2041 306.796 91.7077 306.796 160.183Z" fill="#C9D2F2"/>
</g>
<path d="M291.351 132.79H258.031V145.307H291.351V132.79Z" fill="#C9D2F2"/>
<path d="M250.496 85.6973H217.176V98.2139H250.496V85.6973Z" fill="#C9D2F2"/>
<path d="M264.524 226.844L263.262 227.438V105.908L264.524 105.314V226.844Z" fill="#6F82B2"/>
<path d="M267.99 92.8663C266.099 92.4178 259.489 92.8663 259.489 92.8663L245.641 120.963H282.149L267.99 92.8663Z" fill="#94A3D3"/>
<path d="M175.017 242.666L186.478 243.846C212.367 246.509 238.469 246.261 264.296 243.108L267.919 242.666C274.28 238.919 283.313 231.826 285.134 221.028C288.011 204.012 269.154 163.323 245.176 160.059C221.206 156.795 193.392 207.876 193.392 207.876C193.392 207.876 169.097 211.719 167.179 227.679C166.068 237.008 170.849 240.975 175.017 242.666Z" fill="#B9C3EA"/>
<path opacity="0.49" d="M262.345 211.692C262.345 211.692 260.841 170.871 252.002 169.215C243.163 167.553 227.748 172.845 225.016 177.73C222.29 182.615 202.598 224.45 202.598 224.45L223.56 225.492L255.093 210.395L262.345 211.692Z" fill="#94A3D3"/>
<path d="M267.919 242.666C267.919 242.666 217.832 245.426 216.5 242.666C215.168 239.906 231.908 205.744 254.374 208.352C276.847 210.96 267.919 242.666 267.919 242.666Z" fill="#B9C3EA"/>
<path d="M216.969 239.865C216.969 239.865 222.792 225.727 240.484 216.833C258.176 207.938 269.678 222.47 269.678 222.47L264.054 212.561C264.054 212.561 269.029 204.93 272.583 202.784C272.583 202.784 266.359 203.309 261.018 210.25C261.018 210.25 235.647 193.669 216.969 239.865Z" fill="#94A3D3"/>
<path d="M233.517 150.695H196.023C194.049 150.695 192.441 149.094 192.441 147.114V114.001C192.441 112.021 194.042 110.42 196.023 110.42H233.517C235.491 110.42 237.098 112.021 237.098 114.001V147.114C237.091 149.094 235.491 150.695 233.517 150.695Z" fill="#94A3D3"/>
<path d="M233.004 146.161V114.966H196.537V146.161H233.004Z" fill="#B9C3EA"/>
<path opacity="0.66" d="M189.116 159.658C189.116 195.214 170.838 224.946 146.391 232.295C142.596 233.44 138.649 234.047 134.599 234.047C124.076 234.047 114.258 229.983 105.929 222.938C90.4113 209.828 80.082 186.389 80.082 159.658C80.082 118.576 104.487 85.2627 134.599 85.2627C164.711 85.2627 189.116 118.569 189.116 159.658Z" fill="#828EBF"/>
<path d="M129.223 234.047C158.585 234.047 182.388 200.742 182.388 159.658C182.388 118.575 158.585 85.2695 129.223 85.2695C99.8611 85.2695 76.0586 118.575 76.0586 159.658C76.0586 200.742 99.8611 234.047 129.223 234.047Z" fill="#7585BA"/>
<path d="M198.495 282.485C191.54 283.589 184.391 284.169 177.112 284.169C170.943 284.169 164.864 283.755 158.923 282.955C156.674 282.658 154.445 282.299 152.237 281.892C146.455 278.483 140.99 273.922 136.926 269.741L107.125 206.144L145.213 202.652L150.761 231.584L164.568 264.628L198.495 282.485Z" fill="#D69034"/>
<path d="M39.1445 290.372C39.5723 289.896 40.2278 289.448 41.111 289.593C43.6916 290.013 52.8272 292.063 55.8356 291.801C58.1678 291.6 61.2383 289.855 62.501 289.089L75.7628 298.652C74.2862 302.654 70.436 309.72 69.6218 311.19L39.1445 290.372Z" fill="#303E84"/>
<path d="M37.082 293.368L67.5662 314.185L69.6293 311.19L39.1451 290.373L37.082 293.368Z" fill="#21316D"/>
<path d="M57.832 294.396C57.832 294.444 57.8251 294.492 57.8251 294.541C57.7906 294.906 57.6112 295.376 57.1489 295.293C56.9143 295.251 56.7211 295.086 56.5486 294.913C55.969 294.327 55.5412 293.623 55.1755 292.892C54.7822 292.105 54.3682 291.263 54.3751 290.366C54.382 289.442 55.3756 289.255 55.9966 289.897C57.0799 291.008 57.9079 292.836 57.832 294.396Z" fill="#21316D"/>
<path d="M54.4375 294.437C54.4375 294.485 54.4306 294.533 54.4306 294.582C54.3961 294.947 54.2167 295.417 53.7544 295.334C53.5198 295.292 53.3266 295.127 53.1541 294.954C52.5745 294.368 52.1467 293.664 51.781 292.933C51.3877 292.146 50.9737 291.304 50.9806 290.407C50.9875 289.483 51.9811 289.296 52.6021 289.938C53.6785 291.049 54.5134 292.877 54.4375 294.437Z" fill="#21316D"/>
<path d="M50.8828 293.568C50.8828 293.616 50.8759 293.664 50.8759 293.713C50.8414 294.078 50.662 294.547 50.1997 294.465C49.9651 294.423 49.7719 294.258 49.5994 294.085C49.0198 293.499 48.592 292.795 48.2263 292.063C47.833 291.277 47.419 290.435 47.4259 289.538C47.4328 288.613 48.4264 288.427 49.0474 289.069C50.1307 290.18 50.9587 292.008 50.8828 293.568Z" fill="#21316D"/>
<path d="M157.812 214.445C155.742 218.144 141.666 226.507 141.666 226.507L101.798 243.267L77.2543 301.882L72.4657 297.984L70.8718 296.68L60.5977 288.317L61.681 285.212C61.681 285.212 72.6244 237.505 82.6639 225.182C89.6674 216.584 120.704 202.391 120.704 202.391L126.217 199.086L137.098 201.446L145.675 203.309L146.082 205.406L154.514 204.109L157.826 203.599C157.812 203.619 159.889 210.747 157.812 214.445Z" fill="#E5AF5F"/>
<path opacity="0.68" d="M157.811 214.445C155.741 218.144 141.665 226.507 141.665 226.507L101.797 243.267L77.2536 301.882L72.465 297.984L70.8711 296.68C75.9978 285.653 95.5662 243.646 97.0773 240.631C98.8161 237.153 122.731 228.238 127.43 227.376C132.136 226.5 152.94 214.335 154.389 212.493C155.313 211.327 154.92 207.076 154.506 204.123L157.818 203.612C157.811 203.619 159.888 210.747 157.811 214.445Z" fill="#D69034"/>
<path d="M88.2819 238.396C86.3154 238.354 84.5283 237.009 83.5347 235.305C80.409 229.95 85.8945 221.643 92.0286 225.3C97.2036 228.391 94.2435 238.527 88.2819 238.396Z" fill="#EFBF7F"/>
<path d="M151.741 172.755C151.741 172.755 153.197 140.615 152.555 139.746C151.921 138.876 141.667 125.463 141.667 125.463L135.547 142.071L151.741 172.755Z" fill="#212255"/>
<path d="M62.0703 85.3941L65.0718 94.371C65.0718 94.371 74.2557 91.956 74.1453 91.5765C74.0349 91.197 70.2399 83.2344 70.2399 83.2344C70.2399 83.2344 63.7332 83.2206 62.0703 85.3941Z" fill="#F3A080"/>
<path d="M108.956 129.181L88.1313 115.464L76.1184 84.9316L58.5234 87.8917C58.5234 87.8917 67.4244 120.543 73.8276 129.968C77.388 135.219 102.338 149.888 102.338 149.888L108.956 129.181Z" fill="#212255"/>
<path d="M82.3633 117.465C83.6329 117.037 84.8956 116.589 86.1721 116.182C86.8621 115.961 87.4969 116.775 87.0001 117.361C86.4412 118.017 85.9858 118.748 85.6339 119.528C85.3096 120.253 85.1647 121.039 84.8335 121.757C84.6748 122.109 84.1504 121.998 84.109 121.633C83.971 120.529 84.3298 119.349 84.8335 118.258C84.2539 118.465 83.6743 118.672 83.0947 118.879C82.5496 119.08 81.2869 119.707 80.9557 118.804C80.6521 117.955 81.8251 117.644 82.3633 117.465Z" fill="#101233"/>
<path d="M64.0283 58.4775C64.9736 58.2843 71.0801 72.5397 71.0801 72.5397C71.8253 70.1937 73.4054 68.1168 75.4616 66.7575C75.4823 66.7437 75.503 66.7299 75.5168 66.723C75.71 66.6057 75.9377 66.516 76.124 66.6195C76.2137 66.6678 76.2758 66.7575 76.331 66.8403C76.7864 67.5924 76.7174 68.5584 76.4345 69.3933C76.1516 70.2213 75.6617 70.9665 75.2891 71.76C74.5646 73.278 74.4473 74.9754 74.3438 76.6521C74.1575 79.488 69.6863 82.0203 69.6863 82.0203C69.6863 82.0203 69.776 82.4205 69.8933 82.9725L62.393 85.2564L61.4201 81.9513L59.6813 80.6058C58.5704 79.4811 54.0992 65.3154 54.9203 64.7634C55.1411 64.6116 55.4033 64.4736 55.6586 64.3425C56.0519 64.1493 56.4383 63.9906 56.7005 63.8871C56.8937 63.8112 57.011 63.7767 57.011 63.7767C57.011 63.7767 57.3491 63.3351 57.7976 62.8866C58.0598 62.6106 58.3634 62.3346 58.6601 62.1345C58.9775 61.9137 59.2949 61.7964 59.5364 61.8723C59.7779 61.9482 60.3437 62.7072 61.0199 63.7353C62.6966 66.2814 65.0978 70.4904 65.2565 70.1661C65.4704 69.7107 62.6414 59.3883 62.6414 59.3883C62.6414 59.3883 62.8139 59.0985 63.1727 58.8432C63.3935 58.6983 63.6764 58.5534 64.0283 58.4775Z" fill="#F3A080"/>
<path d="M59.5433 61.8795C59.7848 61.9554 60.3506 62.7144 61.0268 63.7425C60.599 64.5291 59.8952 65.2674 59.5502 66.0195C59.0189 67.1925 58.7429 68.4897 58.7912 69.78C58.8671 71.8914 59.7227 73.8993 60.7577 75.7485C61.7927 77.5908 63.0071 79.3365 63.8972 81.2547C64.3733 82.2897 64.7528 83.3592 65.0633 84.4494L62.0618 85.4016L61.4201 81.9585L59.6813 80.613C58.5704 79.4883 54.0992 65.3226 54.9203 64.7706C55.1411 64.6188 55.4033 64.4808 55.6586 64.3497C56.0519 64.1565 56.4383 63.9978 56.7005 63.8943C56.8937 63.8184 57.011 63.7839 57.011 63.7839C57.011 63.7839 57.3491 63.3423 57.7976 62.8938C58.0598 62.6178 58.3634 62.3418 58.6601 62.1417C58.9844 61.9209 59.3018 61.8036 59.5433 61.8795Z" fill="#EA7C6F"/>
<path d="M57.7969 62.8868C57.9073 63.1421 58.0177 63.4043 58.1419 63.6665C58.8526 65.1845 59.6806 66.4748 60.3223 67.3718C60.9295 68.2136 61.3711 68.7173 61.4194 68.7794C61.3987 68.7035 61.1848 68.0687 60.8191 67.1027C60.4258 66.0746 59.8669 64.6808 59.17 63.1835C58.9975 62.8247 58.8319 62.4728 58.6663 62.1416C58.3696 62.3348 58.066 62.6177 57.7969 62.8868Z" fill="#B54B57"/>
<path d="M55.6641 64.3499C56.7543 66.7925 58.0446 68.5589 58.1274 68.6693C58.1067 68.5313 57.7203 66.3716 56.706 63.8945C56.4438 63.998 56.0574 64.1567 55.6641 64.3499Z" fill="#B54B57"/>
<path d="M68.0936 83.5312C68.0867 83.4898 68.066 83.4346 68.0591 83.3932C68.0039 83.1586 67.9556 82.924 67.928 82.6825C67.9211 82.4824 67.928 82.2961 67.9832 82.1029C68.1212 81.5923 68.5421 81.2197 68.9561 80.8885C70.2878 79.8052 71.7575 78.7978 72.6062 77.3074C73.6067 75.541 73.5584 73.3813 74.2139 71.4631C74.69 70.0693 75.5387 68.7514 75.5456 67.2748C75.5456 67.1023 75.5318 66.916 75.5249 66.7297C75.7112 66.6193 75.9389 66.5227 76.1321 66.6262C76.2218 66.6814 76.2839 66.7642 76.3391 66.8539C76.7945 67.606 76.7324 68.572 76.4426 69.4069C76.1597 70.2349 75.6698 70.9801 75.2972 71.7736C74.5658 73.2916 74.4554 74.989 74.345 76.6657C74.1656 79.5085 69.6944 82.0408 69.6944 82.0408C69.6944 82.0408 69.8393 82.4134 70.0463 82.8343C70.0601 82.8619 70.0808 82.8964 70.0946 82.9378L70.2395 83.2552L68.0936 83.5312Z" fill="#F8BF92"/>
<path d="M64.7255 80.8337C64.7255 80.8337 64.691 80.7302 64.622 80.5439C64.553 80.3576 64.4909 80.0747 64.4495 79.7159C64.3598 79.0052 64.4426 77.9564 64.9463 76.949C65.45 75.9416 66.2435 75.2516 66.8645 74.8928C67.175 74.7134 67.4441 74.5961 67.6304 74.534C67.8167 74.4719 67.9271 74.4443 67.9271 74.4443C67.9271 74.4443 67.8512 74.5271 67.727 74.6789C67.5959 74.8238 67.4234 75.0377 67.2233 75.3068C66.8162 75.8381 66.347 76.5833 65.9123 77.4389C65.4845 78.2945 65.1671 79.1225 64.9877 79.7642C64.898 80.0816 64.8221 80.3576 64.7876 80.5439C64.7531 80.7302 64.7255 80.8337 64.7255 80.8337Z" fill="#B54B57"/>
<path d="M142.129 134.356C142.108 134.266 142.053 134.156 141.977 134.025C143.088 132.507 143.943 130.837 144.254 128.995C144.82 125.676 143.095 121.784 139.845 120.915C142.584 118.728 145.406 115.478 143.868 112.048C143.467 111.151 142.784 110.399 141.977 109.834C139.935 108.405 137.492 108.171 135.105 107.984C130.247 107.612 125.224 107.446 120.649 109.137C116.081 110.827 112.045 114.815 111.7 119.673C108.657 119.576 105.683 121.75 104.855 124.682C104.344 126.483 104.613 128.07 105.352 129.45C100.777 134.57 99.2383 176.425 99.9973 188.866C100.536 197.802 100.301 206.089 100.128 210.049C100.073 211.312 101.184 212.305 102.433 212.112L157.819 203.618C157.819 203.618 154.128 186.058 153.472 180.848C152.81 175.646 142.239 134.874 142.129 134.356Z" fill="#212255"/>
<path d="M104.677 205.536C104.677 205.536 102.779 188.162 105.249 185.609C107.72 183.056 129.213 180.276 131.738 179.703C134.264 179.13 143.42 198.533 139.791 200.189C136.168 201.845 111.197 209.911 104.677 205.536Z" fill="#2E3172"/>
<path d="M119.208 121.701C119.208 121.701 115.171 123.261 114.723 126.704C114.274 130.147 117.848 131.32 117.848 131.32L129.426 126.462C129.426 126.462 136.133 124.896 136.947 121.584C137.762 118.272 129.709 117.375 129.709 117.375L119.208 121.701Z" fill="#101233"/>
<path d="M117.848 131.328L129.426 126.47C129.812 124.6 129.854 121.695 129.778 119.108C129.695 116.099 129.46 113.512 129.46 113.512L118.579 115.685L119.179 122.716L119.352 124.745L117.848 131.328Z" fill="#F3A080"/>
<path d="M118.586 115.678L119.186 122.709C121.518 123.068 123.927 122.468 126.045 121.433C127.383 120.777 128.577 119.949 129.785 119.108C129.702 116.099 129.467 113.512 129.467 113.512L118.586 115.678Z" fill="#EA7C6F"/>
<path d="M131.821 114.208C131.821 114.208 131.442 115.009 130.02 116.002C129.731 116.209 129.399 116.416 129.013 116.63C127.55 117.444 114.288 121.44 112.37 120.957C110.452 120.474 109.369 113.574 109.348 112.856C109.21 108.461 108.996 94.916 108.996 94.916C115.448 80.909 131.752 90.3827 133.539 92.0318C135.326 93.6809 131.821 114.208 131.821 114.208Z" fill="#F3A080"/>
<path d="M130.02 116.002C129.73 116.209 129.399 116.416 129.013 116.63C127.55 117.444 114.288 121.439 112.37 120.956C110.452 120.473 109.368 113.573 109.348 112.855C110.231 115.933 111.142 120.156 112.535 120.183C114.633 120.225 128.392 116.637 130.02 116.002Z" fill="#F8BF92"/>
<path d="M110.633 99.1388C110.633 99.1388 111.827 95.4059 113.469 96.1511C115.111 96.8963 114.6 97.2137 114.6 97.2137L110.633 99.1388Z" fill="#4A0F2F"/>
<path d="M128.655 98.1312C128.655 98.1312 124.052 93.4047 122.383 95.2746C121.41 96.3648 122.169 97.0272 122.169 97.0272L128.655 98.1312Z" fill="#4A0F2F"/>
<path d="M111.681 109.068C111.419 109.579 110.267 109.51 109.094 108.916C107.927 108.323 107.189 107.426 107.451 106.915C107.714 106.405 108.866 106.474 110.039 107.067C111.205 107.661 111.936 108.558 111.681 109.068Z" fill="#EA7C6F"/>
<path d="M128.6 107.253C128.717 108.081 127.275 108.971 125.384 109.24C123.487 109.509 121.858 109.054 121.741 108.226C121.624 107.398 123.066 106.508 124.956 106.239C126.854 105.977 128.482 106.425 128.6 107.253Z" fill="#EA7C6F"/>
<path d="M114.698 108.468C114.787 108.744 115.063 108.889 115.333 109.006C115.712 109.185 116.098 109.358 116.519 109.42C116.933 109.482 117.265 109.227 117.665 109.103C118.017 108.985 118.32 108.716 118.486 108.392C118.645 108.061 118.672 107.66 118.555 107.315C117.534 107.833 116.305 107.93 115.222 107.571C115.022 107.826 114.601 108.171 114.698 108.468Z" fill="#EA7C6F"/>
<path d="M116.939 101.554C117.215 103.983 116.532 106.508 115.062 108.461C115.952 109.075 117.105 109.254 118.112 108.861C117.615 109.468 116.822 109.758 116.042 109.661C115.269 109.558 114.559 109.04 114.234 108.323C115.4 106.301 116.504 103.845 116.939 101.554Z" fill="#DD5B67"/>
<path d="M127.546 103.955C127.546 103.955 124.068 99.7048 120.184 103.445C120.184 103.452 123.841 102.437 127.546 103.955Z" fill="#1D1E1E"/>
<path d="M113.874 103.603C113.874 103.603 111.908 100.864 109.617 103.355C109.617 103.355 111.749 102.651 113.874 103.603Z" fill="#1D1E1E"/>
<path d="M113.18 112.745L122.446 110.82C122.446 110.82 123.33 115.706 118.624 116.113C113.925 116.52 113.18 112.745 113.18 112.745Z" fill="white"/>
<path d="M129.902 114.518C132.531 114.608 134.601 113.276 135.767 112.097C136.03 111.827 136.243 111.572 136.409 111.338C137.306 110.075 138.051 105.417 136.257 104.113C135.001 103.202 133.897 104.196 133.352 104.872C133.118 105.162 132.987 105.39 132.987 105.39L129.902 114.518Z" fill="#F8BF92"/>
<path d="M129.902 114.518C132.531 114.608 134.601 113.276 135.767 112.096C135.871 111.972 135.961 111.855 136.043 111.745C136.94 110.482 137.686 105.824 135.892 104.52C134.877 103.782 133.96 104.293 133.352 104.872C133.118 105.162 132.987 105.39 132.987 105.39L129.902 114.518Z" fill="#F3A080"/>
<path d="M136.435 107.902C136.49 108.288 136.387 108.668 136.221 109.026C135.517 110.538 133.813 111.559 132.191 112.504C132.73 111.793 132.992 110.952 132.999 110.103C132.999 109.806 132.971 109.509 132.999 109.22C133.109 108.033 136.118 105.625 136.435 107.902Z" fill="#EA7C6F"/>
<path d="M131.379 112.856C131.379 112.856 131.413 112.842 131.469 112.814C131.524 112.787 131.62 112.752 131.724 112.697C131.938 112.587 132.241 112.4 132.538 112.111C132.835 111.821 133.118 111.421 133.29 110.931C133.449 110.441 133.49 109.854 133.29 109.261C133.27 109.185 133.235 109.116 133.207 109.04L133.18 108.985C133.173 108.971 133.18 108.978 133.18 108.978C133.18 108.978 133.18 108.978 133.187 108.971L133.214 108.93L133.276 108.847C133.318 108.792 133.359 108.737 133.401 108.681C133.566 108.467 133.746 108.267 133.925 108.088C134.104 107.909 134.291 107.736 134.47 107.591C134.65 107.439 134.829 107.301 134.995 107.205C135.16 107.101 135.34 107.046 135.505 107.046C135.671 107.046 135.816 107.101 135.912 107.163C136.009 107.225 136.057 107.301 136.078 107.35C136.099 107.405 136.092 107.432 136.099 107.432C136.099 107.432 136.112 107.405 136.105 107.35C136.099 107.294 136.071 107.205 135.974 107.122C135.878 107.039 135.726 106.949 135.519 106.922C135.305 106.894 135.07 106.943 134.857 107.032C134.636 107.122 134.436 107.246 134.222 107.384C134.008 107.522 133.794 107.681 133.58 107.86C133.373 108.04 133.166 108.24 132.973 108.461C132.925 108.516 132.876 108.571 132.835 108.633L132.766 108.723L132.676 108.847L132.614 108.937C132.621 108.971 132.642 109.006 132.655 109.033L132.718 109.178C132.745 109.24 132.773 109.302 132.793 109.364C132.973 109.882 132.966 110.399 132.869 110.848C132.766 111.303 132.559 111.69 132.338 111.993C132.11 112.297 131.869 112.511 131.689 112.656C131.6 112.725 131.524 112.773 131.469 112.808C131.407 112.842 131.379 112.856 131.379 112.856Z" fill="#B54B57"/>
<path d="M116.18 82.7099C116.18 82.7099 122.39 79.9568 128.172 82.7099C133.954 85.463 135.106 89.4029 135.106 89.4029C135.106 89.4029 139.481 90.4172 140.461 92.6597C141.441 94.9022 138.963 98.9594 138.963 98.9594L116.18 82.7099Z" fill="#5F1234"/>
<path d="M110.065 88.1677C108.678 88.6162 107.677 89.8927 107.208 91.2727C106.732 92.6527 106.711 94.1362 106.718 95.5921C106.732 97.048 106.766 98.5246 106.394 99.946C108.215 99.4768 109.595 97.8691 110.044 96.0544C112.507 96.0958 116.219 91.7764 116.219 91.7764L117.109 94.8331C119.863 95.2816 126.838 92.8045 126.838 92.8045L127.784 94.8607C130.392 94.909 132.331 93.805 132.331 93.805L131.42 99.9391L132.986 105.376C135.788 103.651 137.223 105.894 137.223 105.894L138.016 102.851L138.217 102.092L138.907 99.4423C139.024 99.5596 138.844 98.8489 138.962 98.9662C139.189 97.6069 138.451 96.2407 137.464 95.2609C136.712 94.5088 135.815 93.9154 134.96 93.3013C134.698 93.1081 134.442 92.908 134.194 92.7079C133.876 92.4457 133.559 92.1628 133.269 91.8661C131.979 90.631 130.875 89.1889 129.592 87.9262C127.211 85.5664 124.21 83.8 120.932 83.0548C117.661 82.3096 114.136 82.6201 111.12 84.0967C110.189 84.5452 109.312 85.111 108.353 85.4905C108.312 85.5043 108.271 85.525 108.236 85.5388C107.311 85.8907 106.276 86.0563 105.324 85.7734C106.159 87.4639 108.188 88.492 110.065 88.1677Z" fill="#38102B"/>
<path d="M134.96 93.2939C134.153 95.8676 133.891 98.6 134.201 101.27C135.581 101.043 137.03 101.36 138.217 102.091L138.907 99.4418C139.024 99.5591 138.845 98.8484 138.962 98.9657C139.19 97.6064 138.451 96.2402 137.465 95.2604C136.713 94.5014 135.816 93.9149 134.96 93.2939Z" fill="#4A0F2F"/>
<path d="M109.837 92.0453C110.382 92.066 110.927 92.0729 111.473 92.0867C111.376 92.9216 110.99 93.7151 110.382 94.2947C112.37 93.5357 114.026 91.9556 114.874 90.0098C116.896 89.9891 118.911 89.1956 120.394 87.8225C120.215 89.4233 120.035 91.0172 119.849 92.6111C123.334 92.2937 126.77 91.4588 130.02 90.1685C130.103 91.0793 129.916 92.0246 129.475 92.8388C130.744 92.5076 132 92.1833 133.263 91.8452C131.972 90.6101 130.868 89.168 129.585 87.9053C129.275 87.5948 128.943 87.2912 128.619 87.0083C126.411 85.1039 123.768 83.6825 120.926 83.0339C117.91 82.3439 114.681 82.5578 111.831 83.7446C111.59 83.8481 111.348 83.9516 111.107 84.0689C110.175 84.5174 109.299 85.0832 108.34 85.4627C108.299 85.4765 108.257 85.4972 108.223 85.511C109.589 86.5322 111.134 87.305 112.777 87.7673C111.969 89.3129 110.976 90.755 109.837 92.0453Z" fill="#4A0F2F"/>
<path d="M123.183 85.3935C123.41 86.7252 123.369 88.1052 123.051 89.4093C125.066 89.0712 126.991 88.2363 128.62 87.0219C126.412 85.1175 123.769 83.6961 120.926 83.0475C117.911 82.3575 114.682 82.5714 111.832 83.7582C113.716 84.7173 115.827 85.2969 117.918 85.0554C117.393 85.7937 116.869 86.5251 116.352 87.2565C118.732 87.1323 121.071 86.4906 123.183 85.3935Z" fill="#5F1234"/>
<path d="M137.955 131.597C131.724 136.855 123.5 139.001 115.792 141.078C112.46 138.511 109.789 136.186 107.65 132.494C107.505 132.239 107.16 132.418 107.243 132.687C108.492 136.496 112.121 139.58 115.206 141.954C115.496 142.175 115.799 142.023 115.93 141.775C123.513 140.684 133.049 137.876 138.666 132.425C139.176 131.942 138.507 131.135 137.955 131.597Z" fill="#101233"/>
<path d="M166.672 193.241C166.672 194.601 140.811 202.184 135.484 203.357C135.029 203.453 134.725 203.508 134.594 203.508C132.945 203.508 118.745 160.901 118.876 160.245C118.876 160.245 148.339 149.406 149.284 149.902C149.429 149.978 149.967 151.075 150.754 152.869C155.004 162.453 166.672 191.999 166.672 193.241Z" fill="#C9D2F2"/>
<path opacity="0.59" d="M125.845 163.799L135.484 203.357C135.029 203.453 134.725 203.508 134.594 203.508C132.945 203.508 118.745 160.901 118.876 160.245C118.876 160.245 148.339 149.406 149.284 149.902C149.429 149.978 149.967 151.075 150.754 152.869L125.845 163.799Z" fill="white"/>
<path d="M139.46 172.59C137.673 173.48 136.597 175.543 136.749 177.537C136.907 179.525 138.232 181.346 140.019 182.236C141.144 182.795 142.524 182.988 143.649 182.443C144.421 182.071 145.001 181.395 145.443 180.663C146.526 178.855 147.237 175.474 145.753 173.66C144.463 172.08 141.137 171.755 139.46 172.59Z" fill="#FFFAF5"/>
<path d="M152.556 187.024L146.201 190.088L145.194 191.944C144.297 193.172 131.546 199.63 130.89 198.934C130.711 198.747 130.538 198.526 130.38 198.299C130.131 197.954 129.924 197.609 129.786 197.381C129.69 197.209 129.635 197.105 129.635 197.105C129.635 197.105 129.165 196.857 128.669 196.491C128.365 196.284 128.054 196.036 127.82 195.787C127.565 195.518 127.399 195.235 127.433 194.994C127.468 194.752 128.096 194.097 128.972 193.296C131.132 191.309 134.754 188.37 134.423 188.273C133.961 188.142 124.598 192.434 124.598 192.434C124.598 192.434 124.301 192.316 123.997 192.013C123.818 191.833 123.638 191.592 123.514 191.268C123.183 190.398 135.769 182.38 135.769 182.38C133.423 182.035 131.208 180.862 129.6 179.117C129.586 179.103 129.572 179.082 129.559 179.068C129.421 178.903 129.296 178.703 129.365 178.51C129.4 178.413 129.469 178.344 129.545 178.282C130.187 177.737 131.118 177.647 131.953 177.785C132.788 177.923 133.568 178.275 134.375 178.51C135.927 178.965 137.563 178.806 139.17 178.648C141.889 178.378 144.994 182.236 144.994 182.236C144.994 182.236 148.499 180.8 148.768 180.966C149.286 181.29 149.741 181.67 150.128 182.077C150.831 182.808 151.342 183.636 151.701 184.402C151.749 184.499 151.79 184.595 151.832 184.692C152.398 185.975 152.556 187.024 152.556 187.024Z" fill="#F3A080"/>
<path d="M152.557 187.024L146.202 190.087L145.195 191.943C144.298 193.171 131.547 199.63 130.891 198.933C130.712 198.747 130.539 198.526 130.381 198.298C130.132 197.953 129.925 197.608 129.787 197.38C129.691 197.208 129.635 197.104 129.635 197.104C129.635 197.104 129.166 196.856 128.669 196.49C128.366 196.283 128.055 196.035 127.821 195.787C127.565 195.517 127.4 195.235 127.434 194.993C127.469 194.752 128.097 194.096 128.973 193.296C129.787 193.579 130.594 194.131 131.36 194.344C132.561 194.669 133.837 194.724 135.052 194.482C137.046 194.082 138.819 192.958 140.406 191.688C141.993 190.418 143.463 188.99 145.147 187.852C147.189 186.465 149.5 185.533 151.826 184.691C152.398 185.975 152.557 187.024 152.557 187.024Z" fill="#EA7C6F"/>
<path d="M128.662 196.498C128.89 196.353 129.118 196.208 129.345 196.049C130.677 195.138 131.774 194.152 132.526 193.399C133.23 192.696 133.644 192.199 133.692 192.137C133.623 192.171 133.051 192.468 132.195 192.965C131.277 193.496 130.042 194.241 128.731 195.145C128.414 195.359 128.11 195.58 127.82 195.787C128.048 196.042 128.359 196.291 128.662 196.498Z" fill="#B54B57"/>
<path d="M130.379 198.298C132.524 196.884 134.001 195.387 134.098 195.29C133.967 195.331 131.979 196.035 129.785 197.388C129.923 197.615 130.137 197.953 130.379 198.298Z" fill="#B54B57"/>
<path d="M129.545 179.075C129.717 179.034 129.89 178.999 130.055 178.972C131.456 178.751 132.843 179.351 134.237 179.586C136.162 179.903 138.204 179.538 140.04 180.207C141.585 180.78 142.772 182.015 144 183.112C144.38 183.45 144.801 183.795 145.311 183.85C145.732 183.892 146.139 183.733 146.526 183.574C147.712 183.091 148.899 182.532 150.107 182.077C149.713 181.67 149.265 181.29 148.74 180.966C148.471 180.8 144.966 182.236 144.966 182.236C144.966 182.236 141.868 178.385 139.143 178.648C137.535 178.806 135.9 178.965 134.354 178.51C133.54 178.275 132.76 177.93 131.925 177.785C131.09 177.64 130.166 177.737 129.517 178.282C129.441 178.344 129.365 178.42 129.338 178.51C129.282 178.71 129.407 178.91 129.545 179.075Z" fill="#F8BF92"/>
<path d="M150.83 192.441C150.83 192.441 187.669 182.58 189.07 172.996C190.478 163.412 159.4 130.127 153.307 125.897C147.215 121.674 141.66 125.455 141.66 125.455L152.134 148.363L167.08 167.918L145.752 177.454L149.933 189.812L150.83 192.441Z" fill="#212255"/>
<path d="M145.754 177.453L167.717 167.421C167.717 167.421 151.219 146.948 149.445 142.926C149.445 142.926 150.805 148.356 156.194 155.787C161.583 163.219 164.674 166.669 164.674 166.669L145.754 177.453Z" fill="#101233"/>
<path d="M166.991 84.9387L162.085 92.7978L171.214 93.0324C171.214 93.0324 179.08 106.136 181.75 106.777C184.42 107.419 205.01 97.407 205.01 94.6746C205.01 91.9422 199.048 69.7863 197.261 69.3516C195.481 68.9238 173.484 56.5866 169.406 59.8296C165.335 63.0726 158.214 72.2841 160.056 74.8026C161.899 77.3211 166.991 84.9387 166.991 84.9387Z" fill="#FFFAF5"/>
<path d="M173.843 88.8997C173.843 88.8997 169.179 66.454 179.294 67.8271C189.416 69.2071 182.427 78.9706 182.427 78.9706C182.427 78.9706 190.624 73.6507 194.129 80.6887C197.634 87.7405 173.843 88.8997 173.843 88.8997Z" fill="#687CFA"/>
<path d="M112.426 71.346L105.147 51.0186L95.5352 58.2429L112.426 71.346Z" fill="#FFFAF5"/>
<path d="M119.223 73.085L126.902 61.9001L119.899 59.2988L119.223 73.085Z" fill="#FFFAF5"/>
<path d="M107.425 79.3842L94.6599 72.7119L92.0586 79.053L107.425 79.3842Z" fill="#FFFAF5"/>
<path d="M84.6878 173.148L63.0977 172.762L66.4511 184.305L84.6878 173.148Z" fill="#FFFAF5"/>
<path d="M88.7102 167.407L80.9684 156.264L76.0625 161.894L88.7102 167.407Z" fill="#FFFAF5"/>
<path d="M90.429 180.676L79.6719 190.246L84.6744 194.924L90.429 180.676Z" fill="#FFFAF5"/>
<path d="M52.6864 217.578L53.749 214.231L54.8116 217.578C55.9708 221.228 58.4893 224.292 61.8496 226.134C58.4893 227.969 55.9708 231.033 54.8116 234.69L53.749 238.036L52.6864 234.69C51.5272 231.04 49.0087 227.976 45.6484 226.134C49.0087 224.292 51.5272 221.228 52.6864 217.578Z" fill="#C9D2F2"/>
<path d="M213.069 110.11L214.132 106.764L215.194 110.11C216.354 113.76 218.872 116.824 222.232 118.666C218.872 120.502 216.354 123.565 215.194 127.222L214.132 130.569L213.069 127.222C211.91 123.572 209.392 120.508 206.031 118.666C209.392 116.824 211.917 113.76 213.069 110.11Z" fill="#212255"/>
<path d="M296.209 160.598L296.941 158.286L297.672 160.598C298.472 163.116 300.211 165.234 302.53 166.504C300.211 167.774 298.472 169.885 297.672 172.41L296.941 174.722L296.209 172.41C295.409 169.892 293.67 167.774 291.352 166.504C293.67 165.234 295.409 163.116 296.209 160.598Z" fill="#FFFAF5"/>
<path d="M220.384 255.845L220.639 255.052L220.894 255.845C221.17 256.715 221.771 257.439 222.564 257.881C221.764 258.315 221.163 259.047 220.894 259.916L220.639 260.71L220.384 259.916C220.108 259.047 219.507 258.322 218.707 257.881C219.507 257.439 220.108 256.708 220.384 255.845Z" fill="#FFFAF5"/>
<path d="M132.037 32.6301L132.575 30.9258L133.114 32.6301C133.7 34.4931 134.99 36.0525 136.702 36.9909C134.99 37.9293 133.707 39.4887 133.114 41.3517L132.575 43.056L132.037 41.3517C131.451 39.4887 130.16 37.9293 128.449 36.9909C130.16 36.0456 131.444 34.4862 132.037 32.6301Z" fill="#212255"/>
<path d="M292.717 243.756L293.448 241.444L294.18 243.756C294.98 246.274 296.719 248.393 299.037 249.662C296.719 250.932 294.98 253.043 294.18 255.569L293.448 257.88L292.717 255.569C291.917 253.05 290.178 250.932 287.859 249.662C290.178 248.393 291.917 246.274 292.717 243.756Z" fill="#E5AF5F"/>
<path d="M218.541 60.8174L219.273 58.5059L220.004 60.8174C220.804 63.3359 222.543 65.4542 224.862 66.7238C222.543 67.9934 220.804 70.1048 220.004 72.6302L219.273 74.9417L218.541 72.6302C217.741 70.1117 216.002 67.9934 213.684 66.7238C216.002 65.4542 217.741 63.3359 218.541 60.8174Z" fill="#E5AF5F"/>
<path d="M269.603 264.932L270.059 263.49L270.514 264.932C271.011 266.506 272.101 267.823 273.543 268.617C272.094 269.41 271.011 270.728 270.514 272.302L270.059 273.744L269.603 272.302C269.107 270.728 268.016 269.41 266.574 268.617C268.016 267.823 269.107 266.506 269.603 264.932Z" fill="#212255"/>
<path d="M231.83 33.2995L232.285 31.8574L232.741 33.2995C233.237 34.8727 234.328 36.1906 235.77 36.9841C234.321 37.7776 233.237 39.0955 232.741 40.6687L232.285 42.1108L231.83 40.6687C231.333 39.0955 230.243 37.7776 228.801 36.9841C230.243 36.1906 231.333 34.8727 231.83 33.2995Z" fill="#FFFAF5"/>
<path d="M207.703 160.652L208.241 158.955L208.78 160.652C209.366 162.509 210.649 164.061 212.354 164.993C210.649 165.924 209.366 167.483 208.78 169.333L208.241 171.03L207.703 169.333C207.117 167.477 205.833 165.924 204.129 164.993C205.833 164.061 207.117 162.502 207.703 160.652Z" fill="#FFFAF5"/>
<path d="M145.484 57.8356L146.139 55.7656L146.795 57.8356C147.512 60.0919 149.065 61.9825 151.142 63.121C149.065 64.2595 147.505 66.1501 146.795 68.4064L146.139 70.4764L145.484 68.4064C144.766 66.1501 143.214 64.2595 141.137 63.121C143.214 61.9825 144.773 60.0919 145.484 57.8356Z" fill="#E6EAFD"/>
<path d="M103.71 274.109L104.366 272.039L105.021 274.109C105.739 276.365 107.291 278.256 109.368 279.394C107.291 280.533 105.732 282.424 105.021 284.68L104.366 286.75L103.71 284.68C102.993 282.424 101.44 280.533 99.3633 279.394C101.44 278.256 102.993 276.365 103.71 274.109Z" fill="#212255"/>
<path d="M63.6422 134.709L64.1114 133.226L64.5806 134.709C65.0912 136.324 66.209 137.683 67.6994 138.497C66.209 139.311 65.0981 140.664 64.5806 142.285L64.1114 143.769L63.6422 142.285C63.1316 140.671 62.0138 139.311 60.5234 138.497C62.0138 137.683 63.1247 136.324 63.6422 134.709Z" fill="#212255"/>
</svg>
