<svg width="36" height="36" viewBox="0 0 36 36" fill="none" xmlns="http://www.w3.org/2000/svg">
<rect x="1.29427" y="1.29378" width="33.4123" height="33.4123" rx="16.7061" stroke="#FEFEFE" stroke-width="2.16667"/>
<path d="M25.4954 18.2701H26.5227C26.216 20.0502 25.3854 21.6942 24.1392 22.9762C22.7638 24.391 20.9641 25.281 19.0361 25.5035L18.5899 25.555V26.0042V29.7048H17.5818V26.0042V25.5549L17.1355 25.5035C15.2073 25.2812 13.4074 24.3913 12.0318 22.9764C10.7854 21.6944 9.95472 20.0504 9.64793 18.2701H10.6742C11.006 19.9426 11.867 21.4627 13.1319 22.5881C14.5056 23.8103 16.2637 24.4848 18.0848 24.4848C19.906 24.4848 21.664 23.8103 23.0377 22.5881C24.3026 21.4627 25.1637 19.9426 25.4954 18.2701ZM18.0858 8.96673C17.1454 8.96673 16.2465 9.35112 15.5859 10.0305C14.9259 10.7094 14.5575 11.6273 14.5575 12.5815V16.7291C14.5575 17.6833 14.9259 18.6012 15.5859 19.2801C16.2465 19.9595 17.1454 20.3439 18.0858 20.3439C19.0263 20.3439 19.9252 19.9595 20.5857 19.2801C21.2458 18.6012 21.6142 17.6833 21.6142 16.7291V12.5815C21.6142 11.6273 21.2458 10.7094 20.5857 10.0305C19.9252 9.35112 19.0263 8.96673 18.0858 8.96673ZM21.2886 9.26685L21.65 8.91548L21.2886 9.26685C21.7106 9.70085 22.046 10.2169 22.2751 10.7858C22.5042 11.3547 22.6223 11.9649 22.6223 12.5815V16.7291C22.6223 17.975 22.141 19.167 21.2886 20.0438C20.4367 20.92 19.2843 21.4096 18.0858 21.4096C16.8873 21.4096 15.735 20.92 14.8831 20.0438C14.0307 19.167 13.5494 17.975 13.5494 16.7291V12.5815C13.5494 11.3356 14.0307 10.1436 14.8831 9.26685C15.735 8.39059 16.8873 7.90102 18.0858 7.90102C18.6796 7.90102 19.2678 8.02129 19.8172 8.25534C20.3666 8.4894 20.8667 8.83287 21.2886 9.26685Z" fill="#79CCDC" stroke="#FEFEFE" stroke-width="1.0081"/>
</svg>
