<svg width="45" height="45" viewBox="0 0 45 45" fill="none" xmlns="http://www.w3.org/2000/svg">
<path d="M22.6972 28.174C24.6339 28.174 26.4914 27.4046 27.8609 26.0351C29.2304 24.6656 29.9998 22.8081 29.9998 20.8713V11.7431C29.9998 9.80628 29.2304 7.94883 27.8609 6.57932C26.4914 5.20981 24.6339 4.44043 22.6972 4.44043C20.7604 4.44043 18.9029 5.20981 17.5334 6.57932C16.1639 7.94883 15.3945 9.80628 15.3945 11.7431V20.8713C15.3945 22.8081 16.1639 24.6656 17.5334 26.0351C18.9029 27.4046 20.7604 28.174 22.6972 28.174Z" fill="white"/>
<path d="M35.4772 20.8716C35.4772 20.3874 35.2848 19.923 34.9425 19.5806C34.6001 19.2382 34.1357 19.0459 33.6515 19.0459C33.1673 19.0459 32.703 19.2382 32.3606 19.5806C32.0182 19.923 31.8259 20.3874 31.8259 20.8716C31.8259 23.2925 30.8641 25.6143 29.1522 27.3262C27.4404 29.0381 25.1185 29.9998 22.6976 29.9998C20.2766 29.9998 17.9548 29.0381 16.2429 27.3262C14.531 25.6143 13.5693 23.2925 13.5693 20.8716C13.5693 20.3874 13.3769 19.923 13.0346 19.5806C12.6922 19.2382 12.2278 19.0459 11.7436 19.0459C11.2594 19.0459 10.7951 19.2382 10.4527 19.5806C10.1103 19.923 9.91797 20.3874 9.91797 20.8716C9.92157 23.942 11.0305 26.9086 13.042 29.2285C15.0535 31.5483 17.8329 33.0665 20.8719 33.5051V37.3025H17.0198C16.5888 37.3025 16.1756 37.4737 15.8708 37.7784C15.5661 38.0831 15.3949 38.4964 15.3949 38.9273V39.329C15.3949 39.7599 15.5661 40.1732 15.8708 40.4779C16.1756 40.7826 16.5888 40.9538 17.0198 40.9538H28.3754C28.8063 40.9538 29.2196 40.7826 29.5243 40.4779C29.829 40.1732 30.0002 39.7599 30.0002 39.329V38.9273C30.0002 38.4964 29.829 38.0831 29.5243 37.7784C29.2196 37.4737 28.8063 37.3025 28.3754 37.3025H24.5232V33.5051C27.5622 33.0665 30.3417 31.5483 32.3531 29.2285C34.3646 26.9086 35.4736 23.942 35.4772 20.8716Z" fill="white"/>
</svg>
